<svg width="24" height="24" viewBox="0 0 24 24" fill="none" xmlns="http://www.w3.org/2000/svg">
<path d="M11.5 20C10.6667 20 9.95833 19.7083 9.375 19.125C8.79167 18.5417 8.5 17.8333 8.5 17H10.5C10.5 17.2833 10.596 17.521 10.788 17.713C10.98 17.905 11.2173 18.0007 11.5 18C11.7827 17.9993 12.0203 17.9033 12.213 17.712C12.4057 17.5207 12.5013 17.2833 12.5 17C12.4987 16.7167 12.4027 16.4793 12.212 16.288C12.0213 16.0967 11.784 16.0007 11.5 16H2V14H11.5C12.3333 14 13.0417 14.2917 13.625 14.875C14.2083 15.4583 14.5 16.1667 14.5 17C14.5 17.8333 14.2083 18.5417 13.625 19.125C13.0417 19.7083 12.3333 20 11.5 20ZM2 10V8H15.5C15.9333 8 16.2917 7.85833 16.575 7.575C16.8583 7.29167 17 6.93333 17 6.5C17 6.06667 16.8583 5.70833 16.575 5.425C16.2917 5.14167 15.9333 5 15.5 5C15.0667 5 14.7083 5.14167 14.425 5.425C14.1417 5.70833 14 6.06667 14 6.5H12C12 5.51667 12.3377 4.68733 13.013 4.012C13.6883 3.33667 14.5173 2.99933 15.5 3C16.4827 3.00067 17.312 3.33833 17.988 4.013C18.664 4.68767 19.0013 5.51667 19 6.5C18.9987 7.48333 18.6613 8.31267 17.988 8.988C17.3147 9.66333 16.4853 10.0007 15.5 10H2ZM18.5 18V16C18.9333 16 19.2917 15.8583 19.575 15.575C19.8583 15.2917 20 14.9333 20 14.5C20 14.0667 19.8583 13.7083 19.575 13.425C19.2917 13.1417 18.9333 13 18.5 13H2V11H18.5C19.4833 11 20.3127 11.3377 20.988 12.013C21.6633 12.6883 22.0007 13.5173 22 14.5C21.9993 15.4827 21.662 16.312 20.988 16.988C20.314 17.664 19.4847 18.0013 18.5 18Z" fill="black"/>
</svg>
