<svg width="20" height="20" viewBox="0 0 20 20" fill="none" xmlns="http://www.w3.org/2000/svg">
<g clip-path="url(#clip0_144_297)">
<path d="M10 3.33325C5.83334 3.33325 2.27501 5.92492 0.833344 9.58325C2.27501 13.2416 5.83334 15.8333 10 15.8333C14.1667 15.8333 17.725 13.2416 19.1667 9.58325C17.725 5.92492 14.1667 3.33325 10 3.33325ZM10 13.7499C7.70001 13.7499 5.83334 11.8833 5.83334 9.58325C5.83334 7.28325 7.70001 5.41659 10 5.41659C12.3 5.41659 14.1667 7.28325 14.1667 9.58325C14.1667 11.8833 12.3 13.7499 10 13.7499ZM10 7.08325C8.61668 7.08325 7.50001 8.19992 7.50001 9.58325C7.50001 10.9666 8.61668 12.0833 10 12.0833C11.3833 12.0833 12.5 10.9666 12.5 9.58325C12.5 8.19992 11.3833 7.08325 10 7.08325Z" fill="#A095C1"/>
</g>
<defs>
<clipPath id="clip0_144_297">
<rect width="20" height="20" fill="white"/>
</clipPath>
</defs>
</svg>
