<svg width="336" height="240" viewBox="0 0 336 240" fill="none" xmlns="http://www.w3.org/2000/svg">
<g clip-path="url(#clip0_15_5545)">
<path opacity="0.1" d="M168 240C260.784 240 336 235.278 336 229.452C336 223.627 260.784 218.904 168 218.904C75.2162 218.904 0 223.627 0 229.452C0 235.278 75.2162 240 168 240Z" fill="#407CE2"/>
<path d="M309.648 221.64C309.65 222.474 309.565 223.305 309.392 224.121C309.36 224.274 309.325 224.44 309.29 224.571C308.381 228.212 305.818 230.875 302.758 231.044C302.656 231.044 302.554 231.044 302.438 231.044C299.203 231.044 296.467 228.257 295.565 224.418C295.539 224.316 295.517 224.213 295.494 224.098C295.322 223.283 295.236 222.452 295.238 221.618C295.238 216.418 298.461 212.205 302.438 212.205C306.416 212.205 309.648 216.447 309.648 221.64Z" fill="#3F3D56"/>
<path opacity="0.1" d="M309.648 221.64C309.65 222.474 309.564 223.305 309.392 224.121C309.36 224.274 309.325 224.44 309.289 224.571C309.181 224.571 309.075 224.571 308.969 224.571C308.177 224.529 307.389 224.422 306.614 224.252C305.928 224.464 305.226 224.624 304.515 224.731C303.97 224.813 303.421 224.864 302.87 224.885H302.313C301.654 224.885 300.996 224.841 300.342 224.754C299.286 224.613 298.248 224.355 297.248 223.987C296.7 224.169 296.143 224.318 295.577 224.434C295.552 224.332 295.529 224.229 295.507 224.114C295.334 223.299 295.249 222.468 295.251 221.634C295.251 216.434 298.473 212.221 302.451 212.221C306.429 212.221 309.648 216.446 309.648 221.64Z" fill="black"/>
<path d="M325.008 204.109C325.011 201.821 324.474 199.566 323.44 197.524L314.973 200.155L322.406 195.789C321.16 193.989 319.525 192.493 317.622 191.409C315.719 190.325 313.596 189.682 311.411 189.527C311.063 189.001 310.681 188.497 310.269 188.019L298.109 191.8L308.083 185.944C306.175 184.482 303.936 183.513 301.563 183.121C299.191 182.729 296.758 182.927 294.481 183.697C292.203 184.467 290.15 185.786 288.504 187.538C286.858 189.289 285.67 191.418 285.043 193.737L295.459 205.717L284.16 197.55C281.295 199.577 279.255 202.564 278.411 205.968C277.568 209.372 277.977 212.966 279.565 216.093C281.153 219.221 283.813 221.674 287.061 223.006C290.309 224.337 293.928 224.459 297.258 223.347C300.27 224.45 303.56 224.54 306.627 223.603C308.766 224.076 310.984 224.063 313.117 223.565C315.25 223.068 317.244 222.099 318.952 220.729C320.66 219.359 322.038 217.624 322.986 215.652C323.933 213.679 324.425 211.519 324.426 209.332C324.426 209.012 324.426 208.692 324.394 208.373C324.808 206.99 325.015 205.553 325.008 204.109Z" fill="#407CE2"/>
<path opacity="0.1" d="M324.755 206.822C320.284 205.974 315.698 205.916 311.206 206.65C306.121 207.491 300.925 209.338 295.952 207.986C293.033 207.193 290.512 205.359 287.661 204.342C284.91 203.381 281.947 203.203 279.101 203.828C278.015 206.419 277.7 209.268 278.193 212.033C278.685 214.799 279.964 217.364 281.878 219.423C283.791 221.482 286.257 222.946 288.982 223.642C291.706 224.338 294.574 224.236 297.241 223.347C300.253 224.45 303.543 224.54 306.611 223.603C308.75 224.076 310.967 224.063 313.1 223.565C315.233 223.068 317.227 222.099 318.935 220.729C320.644 219.359 322.022 217.624 322.97 215.652C323.917 213.679 324.409 211.519 324.409 209.332C324.409 209.012 324.41 208.692 324.377 208.373C324.532 207.863 324.658 207.346 324.755 206.822Z" fill="black"/>
<path d="M223.552 54.9666H221.719C221.314 54.9666 220.986 55.2943 220.986 55.6986V81.4096C220.986 81.8138 221.314 82.1415 221.719 82.1415H223.552C223.957 82.1415 224.285 81.8138 224.285 81.4096V55.6986C224.285 55.2943 223.957 54.9666 223.552 54.9666Z" fill="#3F3D56"/>
<path d="M112.656 33.6761H111.763C111.498 33.6761 111.283 33.8908 111.283 34.1556V42.1431C111.283 42.4079 111.498 42.6226 111.763 42.6226H112.656C112.921 42.6226 113.136 42.4079 113.136 42.1431V34.1556C113.136 33.8908 112.921 33.6761 112.656 33.6761Z" fill="#3F3D56"/>
<path d="M112.761 50.0571H111.757C111.458 50.0571 111.216 50.299 111.216 50.5973V65.0893C111.216 65.3876 111.458 65.6295 111.757 65.6295H112.761C113.06 65.6295 113.302 65.3876 113.302 65.0893V50.5973C113.302 50.299 113.06 50.0571 112.761 50.0571Z" fill="#3F3D56"/>
<path d="M112.72 71.076H111.763C111.479 71.076 111.248 71.3064 111.248 71.5906V86.2679C111.248 86.5521 111.479 86.7825 111.763 86.7825H112.72C113.005 86.7825 113.235 86.5521 113.235 86.2679V71.5906C113.235 71.3064 113.005 71.076 112.72 71.076Z" fill="#3F3D56"/>
<path d="M211.344 4.11362H123.754C117.446 4.11362 112.333 9.22096 112.333 15.5212V216.884C112.333 223.185 117.446 228.292 123.754 228.292H211.344C217.652 228.292 222.765 223.185 222.765 216.884V15.5212C222.765 9.22096 217.652 4.11362 211.344 4.11362Z" fill="#3F3D56"/>
<path d="M171.504 10.8067H157.709C157.26 10.8067 156.896 11.1702 156.896 11.6185V13.124C156.896 13.5724 157.26 13.9358 157.709 13.9358H171.504C171.953 13.9358 172.317 13.5724 172.317 13.124V11.6185C172.317 11.1702 171.953 10.8067 171.504 10.8067Z" fill="#E6E8EC"/>
<path d="M176.425 14.1436C177.406 14.1436 178.201 13.3494 178.201 12.3696C178.201 11.3899 177.406 10.5957 176.425 10.5957C175.445 10.5957 174.649 11.3899 174.649 12.3696C174.649 13.3494 175.445 14.1436 176.425 14.1436Z" fill="#E6E8EC"/>
<path d="M215.945 18.7111V213.685C215.945 216.008 215.02 218.236 213.375 219.878C211.73 221.52 209.5 222.443 207.174 222.443H127.923C125.597 222.443 123.367 221.52 121.722 219.878C120.077 218.236 119.153 216.008 119.152 213.685V18.7111C119.152 17.5606 119.379 16.4213 119.82 15.3584C120.26 14.2954 120.906 13.3296 121.721 12.5161C122.535 11.7026 123.502 11.0572 124.566 10.6169C125.631 10.1767 126.771 9.95004 127.923 9.95004H139.782V11.4715C139.786 13.3828 140.548 15.2148 141.902 16.5654C143.256 17.9161 145.091 18.6751 147.005 18.6759H187.325C188.273 18.6759 189.212 18.4893 190.089 18.1268C190.965 17.7642 191.761 17.2329 192.432 16.563C193.102 15.8931 193.634 15.0978 193.997 14.2226C194.36 13.3473 194.547 12.4093 194.547 11.4619V9.95004H207.19C209.514 9.95428 211.741 10.8792 213.382 12.5217C215.024 14.1643 215.945 16.3903 215.945 18.7111Z" fill="white"/>
<path opacity="0.2" d="M216.64 99.2225V165.523H215.945V165.59H119.152V84.5899C119.773 83.8824 120.402 83.1483 121.04 82.3876C134.633 66.1728 153.11 61.9058 167.411 61.4583C177.209 61.1387 186.963 63.1619 196.275 67.1797C201.193 69.302 208.253 71.6289 215.945 71.859V96.9244C216.416 98.2636 216.64 99.2225 216.64 99.2225Z" fill="#407CE2"/>
<path opacity="0.2" d="M216.64 99.2225V165.523H119.152V122.092C122.624 121.219 127.472 117.863 133.693 108.591C141.133 97.4965 151.241 94.5783 159.065 94.2714C164.425 94.0605 169.763 95.4349 174.857 98.1869C180.589 101.278 191.635 105.005 200.029 94.1851C209.309 82.2214 214.243 92.0884 215.945 96.9244C216.416 98.2636 216.64 99.2225 216.64 99.2225Z" fill="#407CE2"/>
<path d="M202.56 153.38H132.8C130.679 153.38 128.96 155.098 128.96 157.216V173.837C128.96 175.955 130.679 177.672 132.8 177.672H202.56C204.681 177.672 206.4 175.955 206.4 173.837V157.216C206.4 155.098 204.681 153.38 202.56 153.38Z" fill="#736E9E"/>
<path d="M42.8993 218.537L49.0241 214.928C48.1958 213.515 47.137 212.25 45.8913 211.185L34.3361 214.788L43.3921 209.469C41.1503 208.242 38.6275 207.62 36.0718 207.663C33.516 207.706 31.0156 208.413 28.8166 209.715C26.6175 211.016 24.7957 212.867 23.5303 215.085C22.265 217.304 21.5997 219.813 21.6001 222.366C21.6001 230.488 28.1889 230.769 36.3201 230.769C44.4513 230.769 51.0401 230.488 51.0401 222.366C51.043 220.311 50.6123 218.279 49.7761 216.402L42.8993 218.537Z" fill="#407CE2"/>
<path opacity="0.1" d="M44.4575 226.435C43.8057 225.782 43.0772 225.21 42.2879 224.731C41.1743 223.993 40.0255 223.242 38.7135 222.989C37.5615 222.769 36.3743 222.954 35.1935 222.89C33.1562 222.765 31.2386 221.886 29.8143 220.426C28.9791 219.563 28.3199 218.508 27.3151 217.84C26.2303 217.131 24.8543 216.977 23.5679 217.153C23.1951 217.209 22.8256 217.285 22.4607 217.38C21.8832 218.98 21.5887 220.668 21.5903 222.369C21.5903 230.491 28.1791 230.772 36.3103 230.772C40.2559 230.772 43.8367 230.705 46.4799 229.708L46.0383 228.883C45.6171 228.004 45.086 227.181 44.4575 226.435Z" fill="black"/>
<path d="M73.0366 186.12C72.5689 186.53 72.2086 187.048 71.987 187.629C71.4398 189.336 72.9694 191.01 73.1166 192.797C73.2318 194.216 72.4766 195.54 72.0478 196.901C71.5639 198.593 71.5952 200.39 72.1378 202.063C72.6803 203.737 73.7096 205.211 75.0943 206.298C75.389 206.548 75.7371 206.727 76.1119 206.822C76.4211 206.86 76.7346 206.833 77.0334 206.746C77.3322 206.658 77.6098 206.51 77.8494 206.311C78.5926 205.771 79.1592 205.024 79.4782 204.163C79.7437 203.317 79.887 202.438 79.9039 201.552L80.131 198.132C80.3678 194.561 80.5823 190.879 79.7119 187.373C79.4271 186.222 78.899 183.579 77.5678 183.419C76.2366 183.259 73.9198 185.257 73.0366 186.12Z" fill="#3F3D56"/>
<path d="M95.3601 171.43C93.7617 177.037 92.603 182.759 91.8945 188.546C91.7921 189.361 91.6865 190.218 91.1937 190.876C90.2113 192.196 88.2433 192.113 86.6113 191.899C86.2196 191.878 85.8377 191.769 85.4945 191.579C84.8801 191.164 84.7457 190.333 84.6721 189.594C83.5543 178.71 82.8076 167.797 82.4321 156.855C82.4161 156.436 96.0929 156.398 97.2641 157.494C98.4353 158.59 97.5265 162.691 97.2641 164.088C96.8353 166.575 96.0609 168.998 95.3601 171.43Z" fill="#FBBEBE"/>
<path opacity="0.05" d="M95.3601 171.43C93.7617 177.037 92.603 182.759 91.8945 188.546C91.7921 189.361 91.6865 190.218 91.1937 190.876C90.2113 192.196 88.2433 192.113 86.6113 191.899C86.2196 191.878 85.8377 191.769 85.4945 191.579C84.8801 191.164 84.7457 190.333 84.6721 189.594C83.5543 178.71 82.8076 167.797 82.4321 156.855C82.4161 156.436 96.0929 156.398 97.2641 157.494C98.4353 158.59 97.5265 162.691 97.2641 164.088C96.8353 166.575 96.0609 168.998 95.3601 171.43Z" fill="black"/>
<path d="M66.8799 155.298L72.4191 167.467C74.2623 171.513 76.1183 175.604 76.9983 179.961C77.3513 181.781 77.5769 183.623 77.6735 185.474C77.8072 187.061 77.7578 188.658 77.5263 190.234C77.3247 191.404 76.9535 192.541 76.7903 193.718C76.1503 198.407 78.8095 202.818 80.6303 207.18C82.2035 210.928 83.2045 214.889 83.5999 218.933C83.7663 220.656 83.8591 222.484 84.8447 223.907C86.6463 223.367 88.4063 222.9 90.2847 223.111C90.6207 220.359 88.8799 217.824 88.2399 215.12C87.0655 210.166 89.6607 204.959 88.7775 199.944C88.2975 197.227 86.8095 194.67 86.9311 191.915C87.1583 186.89 88.1023 181.815 87.1423 176.892C86.0607 171.328 82.9503 166.268 82.2623 160.642C81.7343 156.321 82.5823 151.543 80.1727 147.912C74.9087 147.602 69.4655 150.705 66.8799 155.298Z" fill="#FBBEBE"/>
<path d="M85.0849 231.715C84.5313 231.734 83.8849 231.715 83.5425 231.277C83.3754 231.023 83.2793 230.728 83.2641 230.424C83.002 228.497 82.8737 226.554 82.8801 224.61C82.8801 223.9 82.9121 223.146 83.3089 222.561C83.6001 222.204 83.9319 221.882 84.2977 221.602C85.1457 220.819 85.7633 219.684 86.8577 219.323C87.3372 219.184 87.8455 219.177 88.3285 219.304C88.8115 219.431 89.251 219.686 89.6001 220.042C90.2907 220.778 90.7182 221.721 90.8161 222.724C90.9761 223.913 90.8417 225.208 91.4721 226.24C91.7217 226.64 92.0705 226.966 92.3521 227.343C93.3121 228.621 94.1729 231.124 92.1921 231.642C90.0929 232.188 87.2641 231.645 85.0849 231.715Z" fill="#3F3D56"/>
<path d="M89.8878 83.2858C91.0079 81.1251 90.3391 78.3443 88.7391 76.5096C87.1391 74.675 84.7999 73.6521 82.4127 73.0992C79.2127 72.3513 75.7823 72.3577 72.7199 73.5339C70.2783 74.4704 68.1759 76.0909 65.9231 77.4142C61.9419 79.7551 57.486 81.175 52.883 81.5694C47.763 82.0009 42.0447 81.3296 38.0863 84.5867C30.8351 90.5509 35.8847 103.991 29.1263 110.499C27.3023 112.254 24.867 113.203 22.7774 114.632C20.6878 116.061 18.8191 118.346 19.1551 120.852C19.3151 122.057 19.9743 123.144 20.7359 124.093C24.0063 128.175 29.4975 130.313 34.6911 129.677C39.8847 129.041 44.6399 125.71 47.1711 121.127C47.8111 119.979 48.3294 118.723 49.3374 117.889C51.3566 116.224 54.3198 116.898 56.9374 116.818C62.7582 116.639 68.0447 111.656 68.5535 105.858C68.7711 103.381 68.3487 100.498 70.1311 98.759C71.5679 97.3527 73.8143 97.3654 75.7791 96.9339C79.3887 96.1445 82.0159 93.5363 83.6639 90.3528C84.4191 88.8889 84.3423 87.2524 85.4623 86.0378C86.6559 84.7017 88.8223 85.3378 89.8878 83.2858Z" fill="#3F3D56"/>
<g opacity="0.1">
<path d="M48.112 82.5826C50.235 82.4018 52.3337 82.0023 54.3744 81.3904C53.7984 81.4703 53.2224 81.5374 52.6432 81.5854C48.6304 81.921 44.24 81.5854 40.624 82.9949C43.088 82.7424 45.6704 82.7872 48.112 82.5826Z" fill="black"/>
<path d="M44.5409 118.902C43.5329 119.733 43.0017 120.992 42.3745 122.14C40.4352 125.632 37.3297 128.332 33.6001 129.769C33.8849 129.75 34.1697 129.725 34.4545 129.69C39.6481 129.05 44.4033 125.726 46.9345 121.143C47.5745 119.995 48.0897 118.736 49.1009 117.905L49.2737 117.771C47.5169 117.729 45.8337 117.835 44.5409 118.902Z" fill="black"/>
<path d="M88.4992 76.5288C86.8992 74.6942 84.544 73.6745 82.1728 73.1184C78.9728 72.3704 75.5424 72.38 72.4768 73.5563L72.272 73.6394C74.0755 73.5369 75.8844 73.6973 77.6416 74.1156C80.0128 74.6718 82.3712 75.6914 83.968 77.5293C85.5648 79.3671 86.2368 82.1447 85.1168 84.3054C84.0512 86.3574 81.8848 85.7182 80.6656 87.0446C79.5456 88.256 79.6224 89.8957 78.8672 91.3596C77.4496 94.0988 75.3024 96.4066 72.4352 97.5029C73.4368 97.2664 74.512 97.1609 75.5104 96.9435C79.12 96.1509 81.7472 93.5459 83.3952 90.3624C84.1536 88.8985 84.0768 87.2588 85.1936 86.0474C86.416 84.7209 88.5824 85.357 89.6448 83.3082C90.7648 81.1539 90.096 78.3731 88.4992 76.5288Z" fill="black"/>
<path d="M70.9825 97.944C69.0177 98.3723 66.7713 98.3627 65.3345 99.7659C63.5521 101.508 63.9745 104.391 63.7569 106.868C63.3761 111.199 60.3265 115.076 56.3809 116.837H56.6721C62.4929 116.658 67.7761 111.672 68.2849 105.877C68.5057 103.397 68.0833 100.514 69.8657 98.775C70.2741 98.3858 70.7545 98.0796 71.2801 97.8737L70.9825 97.944Z" fill="black"/>
</g>
<path d="M89.9838 112.375C89.7182 112.845 89.171 113.062 88.6622 113.251C83.395 115.188 77.8526 117.16 72.2974 116.345C72.0894 115.472 71.8846 114.597 71.6798 113.724C71.3832 112.458 71.0846 111.193 70.7838 109.927C70.643 109.323 70.499 108.712 70.3838 108.099C70.1853 107.13 70.1217 106.138 70.195 105.152C70.2288 104.794 70.2931 104.44 70.387 104.094C70.5513 103.463 70.8266 102.867 71.1998 102.333C71.2638 102.246 71.331 102.16 71.4014 102.077C71.7178 101.696 72.1018 101.376 72.5342 101.134C73.4782 100.616 74.7742 100.396 75.155 99.3919C75.3023 98.8671 75.2878 98.3102 75.1134 97.7938C74.7934 96.5152 74.2142 95.3134 73.8558 94.0477C73.4014 92.4496 74.0862 92.5486 75.6318 92.1619C78.4158 91.4619 81.3278 90.9601 84.1854 91.5226C84.051 92.9322 83.9198 94.3769 84.275 95.7513C84.6302 97.1257 85.5806 98.4298 86.947 98.8102C87.1486 98.8677 87.363 98.9029 87.587 98.9508C87.8837 98.9985 88.1653 99.1145 88.4094 99.2896C88.5778 99.4285 88.7115 99.6047 88.7998 99.8042C88.9389 100.142 89.0304 100.497 89.0718 100.859C89.5731 104.213 89.9347 107.583 90.1566 110.969V111.097C90.2224 111.531 90.1624 111.974 89.9838 112.375Z" fill="#FBBEBE"/>
<path d="M62.867 106.868C61.6702 108.687 61.267 110.899 60.9022 113.046L58.579 126.503C58.259 128.344 57.9742 130.367 58.9182 131.981C59.2382 132.528 59.6862 133.001 59.9198 133.579C60.0963 134.162 60.2121 134.76 60.2654 135.366C60.8094 138.451 63.8462 140.531 66.8926 141.279C67.9934 141.551 69.2798 141.656 70.147 140.925C71.107 140.129 71.107 138.614 70.5406 137.52C69.9742 136.427 68.9406 135.654 67.939 134.922L64.6206 132.48L66.5406 117.777C66.6814 116.709 67.1806 115.325 68.2622 115.444C69.2478 115.549 70.0062 116.984 70.883 116.521C71.1578 116.335 71.3512 116.052 71.4238 115.728C71.8078 114.523 71.7022 113.225 71.5934 111.963L71.1966 107.405C71.0654 105.925 71.4462 104.816 71.6254 103.426C71.8334 101.805 70.7518 102.297 69.4174 102.646C66.8542 103.323 64.3486 104.611 62.867 106.868Z" fill="#FBBEBE"/>
<path d="M104.131 128.967C103.888 129.377 103.526 129.704 103.095 129.907C100.504 131.366 97.4567 131.794 94.5634 131.105C93.8966 130.91 93.2192 130.752 92.5346 130.632C91.4402 130.498 90.3266 130.716 89.2226 130.632C86.9826 130.463 85.0146 129.066 83.4626 127.436C82.5282 126.477 81.6802 124.908 82.5506 123.879C82.7937 123.63 83.0957 123.447 83.4286 123.347C83.7615 123.246 84.1144 123.231 84.4546 123.303C85.1321 123.454 85.7857 123.697 86.397 124.026C88.5386 125.017 90.8299 125.648 93.1778 125.892C94.7778 126.059 96.813 125.787 97.3666 124.269C97.6354 123.53 97.4466 122.712 97.2578 121.948C96.7415 119.856 96.2252 117.762 95.709 115.667C95.6735 115.485 95.6087 115.309 95.517 115.146C95.4907 115.103 95.4596 115.062 95.4242 115.025C95.2201 114.855 94.9733 114.745 94.7106 114.705C93.517 114.411 92.3234 113.935 91.469 113.056C90.909 112.432 90.4628 111.715 90.1506 110.937C90.061 110.742 89.9778 110.544 89.8914 110.346C89.2354 108.818 88.5442 107.252 88.0098 105.647C87.6367 104.562 87.3615 103.447 87.1874 102.313C87.0466 101.332 86.9698 100.881 87.5074 100.447C87.6515 100.338 87.8046 100.242 87.965 100.159C88.2114 100.028 88.4898 99.8969 88.7842 99.7722L89.069 99.654C89.9443 99.3043 90.8437 99.018 91.7602 98.7974C93.981 98.2828 96.3522 99.3567 97.8754 101.054C99.3986 102.751 100.189 104.973 100.695 107.194C101.2 109.415 101.459 111.691 102.093 113.877C102.339 114.734 102.647 115.578 102.858 116.435C103.084 117.453 103.246 118.486 103.341 119.525C103.642 122.174 103.942 124.823 104.24 127.471C104.351 127.97 104.313 128.49 104.131 128.967Z" fill="#FBBEBE"/>
<path d="M71.2736 127.817C71.9136 131.895 70.0736 135.906 68.2944 139.643C69.3024 140.378 70.5344 140.742 71.7376 141.059C79.7907 143.173 88.1624 143.803 96.4416 142.916C96.64 141.535 96.8256 140.071 96.2592 138.799C95.9072 138.01 95.2992 137.367 94.912 136.594C94.272 135.315 94.336 133.829 94.4064 132.41L94.9792 120.318C91.008 118.49 86.4032 120.203 82.0352 120.449C79.7728 120.577 77.4816 120.302 75.2512 120.702C74.0928 120.909 70.4512 121.481 69.904 122.674C69.3568 123.866 71.0784 126.519 71.2736 127.817Z" fill="#FBBEBE"/>
<path opacity="0.05" d="M71.2736 127.817C71.9136 131.895 70.0736 135.906 68.2944 139.643C69.3024 140.378 70.5344 140.742 71.7376 141.059C79.7907 143.173 88.1624 143.803 96.4416 142.916C96.64 141.535 96.8256 140.071 96.2592 138.799C95.9072 138.01 95.2992 137.367 94.912 136.594C94.272 135.315 94.336 133.829 94.4064 132.41L94.9792 120.318C91.008 118.49 86.4032 120.203 82.0352 120.449C79.7728 120.577 77.4816 120.302 75.2512 120.702C74.0928 120.909 70.4512 121.481 69.904 122.674C69.3568 123.866 71.0784 126.519 71.2736 127.817Z" fill="black"/>
<path d="M81.7954 139.521C77.4914 138.626 73.261 137.147 68.8674 137.044C68.6468 137.022 68.4244 137.064 68.2274 137.166C68.013 137.343 67.8698 137.591 67.8242 137.866C67.3698 139.432 66.9634 141.01 66.605 142.599C65.4146 147.883 64.829 153.719 67.4466 158.463C67.421 156.922 68.3906 155.48 69.6866 154.627C70.9826 153.774 72.5346 153.428 74.0706 153.288C75.6066 153.147 77.2482 153.205 78.6786 153.834C79.6782 154.288 80.5407 154.997 81.1794 155.889C81.818 156.781 82.2104 157.825 82.317 158.916L97.437 159.405C97.5255 159.431 97.6191 159.435 97.7092 159.415C97.7993 159.396 97.8831 159.354 97.9531 159.294C98.023 159.234 98.0768 159.158 98.1096 159.072C98.1425 158.986 98.1532 158.893 98.141 158.801C98.6984 153.957 98.678 149.063 98.0802 144.223C97.9138 142.871 97.8914 140.995 96.3682 140.487C94.5506 139.879 91.677 140.589 89.7346 140.506C87.0658 140.394 84.4106 140.065 81.7954 139.521Z" fill="#3F3D56"/>
<path d="M95.5202 115.843L95.4722 122.555L80.1762 123.064C77.3698 123.16 74.541 123.255 71.805 123.879C71.0178 124.058 70.2402 124.281 69.4658 124.502C68.6594 121.552 67.8658 118.461 68.077 115.453C68.1354 114.642 68.2769 113.839 68.4994 113.056C68.9858 111.368 69.8978 109.777 70.3842 108.108C70.5802 107.459 70.6879 106.786 70.7042 106.107C70.6679 105.43 70.5607 104.758 70.3842 104.103C70.2439 103.566 70.1771 103.012 70.1858 102.457L71.3986 102.083C71.4338 102.227 71.4626 102.368 71.4882 102.515C71.5394 102.818 71.581 103.128 71.6098 103.438C71.6783 104.207 71.6997 104.978 71.6738 105.749C71.6322 107.29 71.4242 109.006 72.3874 110.224C73.6386 111.787 76.045 111.544 78.0098 111.154L83.1554 110.128C84.781 109.809 86.5954 109.355 87.4434 107.932C87.8053 107.242 87.9962 106.474 88.0002 105.695V105.542C88.0768 103.844 87.9076 102.144 87.4978 100.495C87.373 99.9768 87.2194 99.4654 87.0466 98.9636H87.5618C87.8586 99.0112 88.1401 99.1272 88.3842 99.3024C88.5526 99.4413 88.6863 99.6175 88.7746 99.817L89.0594 99.6987C90.1948 104.334 92.0659 108.759 94.6018 112.804C94.9279 113.266 95.1865 113.773 95.3698 114.309C95.4459 114.599 95.4889 114.897 95.4978 115.198C95.5234 115.386 95.5202 115.613 95.5202 115.843Z" fill="#FF6F61"/>
<path d="M79.3601 95.5276C84.4853 95.5276 88.6401 91.3776 88.6401 86.2584C88.6401 81.1391 84.4853 76.9891 79.3601 76.9891C74.2349 76.9891 70.0801 81.1391 70.0801 86.2584C70.0801 91.3776 74.2349 95.5276 79.3601 95.5276Z" fill="#FBBEBE"/>
<path d="M62.867 106.868C61.6702 108.687 61.267 110.899 60.9022 113.046L58.579 126.503C58.259 128.344 57.9742 130.367 58.9182 131.981C59.2382 132.528 59.6862 133.001 59.9198 133.579C60.0963 134.162 60.2121 134.76 60.2654 135.366C60.8094 138.451 63.8462 140.531 66.8926 141.279C67.9934 141.551 69.2798 141.656 70.147 140.924C71.107 140.129 71.107 138.614 70.5406 137.52C69.9742 136.427 68.9406 135.654 67.939 134.922L64.6206 132.48L66.5406 117.777C66.6686 116.719 64.3486 104.611 62.867 106.868Z" fill="#FBBEBE"/>
<path d="M100.698 107.213C101.203 109.435 101.463 111.71 102.096 113.897C102.343 114.756 102.65 115.597 102.861 116.454C103.088 117.472 103.249 118.503 103.344 119.541L104.243 127.487C104.347 127.978 104.308 128.488 104.131 128.958C103.887 129.367 103.526 129.694 103.095 129.897C100.502 131.353 97.4569 131.781 94.5634 131.096C93.8974 130.897 93.2198 130.739 92.5346 130.623C91.4402 130.485 90.3266 130.706 89.2226 130.623C86.9826 130.453 85.0146 129.06 83.4626 127.443C82.5282 126.484 81.6802 124.911 82.5506 123.882C82.7937 123.634 83.0957 123.451 83.4286 123.35C83.7615 123.249 84.1144 123.234 84.4546 123.307C85.1323 123.458 85.7858 123.703 86.397 124.032C88.5393 125.021 90.8303 125.651 93.1778 125.896C94.7778 126.065 96.813 125.793 97.3666 124.272C97.6354 123.533 97.4466 122.715 97.2578 121.951L95.709 115.671C95.645 115.453 100.192 104.995 100.698 107.213Z" fill="#FBBEBE"/>
<path d="M73.6159 89.1126C73.2031 87.6328 72.6239 85.7821 73.7855 84.7785C74.203 84.4566 74.706 84.2643 75.2319 84.2255C77.8399 83.9059 80.5375 85.4401 83.0335 84.6219C83.8297 84.362 84.5335 83.8776 85.0601 83.227C85.5867 82.5764 85.9135 81.7875 86.0011 80.9555C86.0888 80.1235 85.9334 79.2839 85.5539 78.5381C85.1744 77.7924 84.5869 77.1722 83.8623 76.7526C82.7711 76.1133 81.4687 75.9887 80.2111 75.8768C76.8991 75.5731 73.4463 75.2919 70.3487 76.5161C67.2511 77.7402 64.6399 80.8918 65.2799 84.1552C65.5775 85.7118 66.5407 87.051 67.5199 88.2912C68.2719 89.2341 71.2895 93.7249 72.5023 93.661C74.2111 93.5651 73.8847 90.0747 73.6159 89.1126Z" fill="#3F3D56"/>
<path opacity="0.1" d="M83.8626 76.7526C83.6778 76.6458 83.4852 76.5529 83.2866 76.4745C83.8485 76.9838 84.2667 77.6315 84.4993 78.3529C84.7319 79.0742 84.7708 79.844 84.612 80.5851C84.4532 81.3262 84.1024 82.0126 83.5947 82.5758C83.0869 83.1389 82.44 83.559 81.7186 83.794C79.2226 84.6123 76.525 83.078 73.917 83.3977C73.3911 83.4364 72.8881 83.6287 72.4706 83.9506C71.309 84.9543 71.8882 86.8049 72.301 88.2848C72.5698 89.2437 72.8962 92.7372 71.1938 92.8331H71.165C71.693 93.3477 72.1698 93.6833 72.509 93.6641C74.2114 93.5683 73.885 90.0779 73.6162 89.1158C73.2034 87.6359 72.6242 85.7853 73.7858 84.7817C74.2033 84.4598 74.7063 84.2675 75.2322 84.2287C77.8402 83.9091 80.5378 85.4433 83.0338 84.625C83.83 84.3652 84.5338 83.8807 85.0604 83.2302C85.587 82.5796 85.9138 81.7907 86.0014 80.9587C86.0891 80.1267 85.9338 79.2871 85.5542 78.5413C85.1747 77.7955 84.5872 77.1754 83.8626 76.7558V76.7526Z" fill="black"/>
<path d="M220.16 192.056H115.84V224.338H220.16V192.056Z" fill="#3F3D56"/>
<path d="M163.52 202.488V213.899L172.48 208.194L163.52 202.488Z" fill="white"/>
<path d="M83.5198 10.909L78.5534 14.0541L81.5678 8.57886C80.7135 7.89773 79.656 7.52089 78.563 7.5081H78.483C78.1379 7.51314 77.7931 7.48747 77.4526 7.43139L75.7694 8.49575L76.4926 7.18527C75.2985 6.77035 74.2674 5.98677 73.5486 4.94787L70.5342 6.86564L72.4382 3.41045C70.675 1.2977 68.3006 0.00320435 65.6894 0.00320435C62.5566 0.00320435 59.7662 1.86345 57.9646 4.76248C57.4318 5.63296 56.6769 6.34627 55.7772 6.82931C54.8775 7.31234 53.8654 7.54771 52.8446 7.51129H52.675C49.2158 7.51129 46.4126 11.4268 46.4126 16.2595C46.4126 21.0923 49.2158 25.0078 52.675 25.0078C53.436 25.0042 54.1848 24.8167 54.8574 24.4612C56.0342 23.8891 57.3215 23.5797 58.63 23.5543C59.9385 23.5289 61.2369 23.7882 62.435 24.3142C63.4488 24.7672 64.5468 25.0013 65.6574 25.0013C66.768 25.0013 67.866 24.7672 68.8798 24.3142C70.0695 23.799 71.3562 23.5455 72.6526 23.5709C73.949 23.5963 75.2248 23.8999 76.3934 24.4612C77.0591 24.8092 77.7988 24.9923 78.5502 24.995C82.0094 24.995 84.8126 21.0764 84.8126 16.2468C84.8363 14.3874 84.3918 12.5519 83.5198 10.909Z" fill="#F2F2F2"/>
<path opacity="0.03" d="M74.1567 23.7101C72.3528 23.3684 70.488 23.5709 68.7999 24.2918C67.7858 24.7438 66.6879 24.9774 65.5775 24.9774C64.467 24.9774 63.3691 24.7438 62.3551 24.2918C61.1565 23.767 59.8581 23.5085 58.5497 23.5345C57.2413 23.5604 55.9542 23.8701 54.7775 24.4421C54.1045 24.7962 53.3557 24.9826 52.5951 24.9854C49.5231 24.9854 46.9663 21.8946 46.4351 17.8161C47.0475 17.3678 47.5688 16.8069 47.9711 16.1637C49.7727 13.2614 52.5631 11.4012 55.6959 11.4012C58.8287 11.4012 61.5839 13.2391 63.3759 16.1093C63.9151 16.9726 64.6682 17.6824 65.5623 18.17C66.4563 18.6577 67.4612 18.9068 68.4799 18.8933H68.5599C71.0079 18.8933 73.1263 20.8526 74.1567 23.7101Z" fill="black"/>
<path d="M253.44 82.1991L250.963 83.7684L252.467 81.0356C252.041 80.6966 251.514 80.5088 250.97 80.5018H250.928C250.757 80.5047 250.585 80.4929 250.416 80.4667L249.562 81.0036L249.923 80.3484C249.328 80.1422 248.814 79.7528 248.454 79.2361L246.95 80.195L247.91 78.4722C247.511 77.957 247.001 77.5371 246.419 77.243C245.837 76.9489 245.196 76.7879 244.544 76.7718C242.982 76.7718 241.59 77.6987 240.704 79.1466C240.437 79.5812 240.059 79.9373 239.61 80.1782C239.16 80.4191 238.654 80.5363 238.144 80.5178H238.061C236.336 80.5178 234.938 82.4739 234.938 84.8808C234.938 87.2876 236.336 89.2469 238.061 89.2469C238.44 89.2453 238.813 89.1521 239.149 88.9752C239.735 88.6898 240.377 88.5351 241.03 88.5218C241.682 88.5086 242.33 88.6371 242.928 88.8985C243.431 89.1258 243.976 89.2445 244.528 89.2469C245.079 89.245 245.624 89.1296 246.128 88.9081C246.721 88.6511 247.363 88.5244 248.009 88.5366C248.656 88.5487 249.292 88.6994 249.875 88.9784C250.207 89.1531 250.575 89.2452 250.95 89.2469C252.675 89.2469 254.073 87.2908 254.073 84.8808C254.092 83.9478 253.874 83.0252 253.44 82.1991Z" fill="#F2F2F2"/>
<path opacity="0.03" d="M248.758 88.5852C247.857 88.4126 246.926 88.5139 246.083 88.8761C245.58 89.1003 245.034 89.2162 244.483 89.2162C243.932 89.2162 243.387 89.1003 242.883 88.8761C242.285 88.6151 241.638 88.4865 240.985 88.4992C240.333 88.5119 239.691 88.6655 239.104 88.9496C238.769 89.1278 238.395 89.2222 238.016 89.2245C236.483 89.2245 235.209 87.6807 234.944 85.6479C235.249 85.4246 235.509 85.1446 235.709 84.8232C236.608 83.3753 238 82.4484 239.549 82.4484C241.097 82.4484 242.486 83.3657 243.389 84.7944C243.658 85.2289 244.035 85.5861 244.484 85.831C244.933 86.0758 245.437 86.2 245.949 86.1912H245.987C247.187 86.1816 248.246 87.1597 248.758 88.5852Z" fill="black"/>
<path d="M258.922 41.4431L262.899 43.965L260.48 39.5765C261.165 39.0321 262.011 38.7307 262.887 38.7199H262.951C263.227 38.724 263.503 38.7037 263.776 38.6592L265.127 39.5126L264.547 38.4642C265.502 38.1296 266.327 37.5034 266.906 36.6743L269.322 38.2021L267.795 35.4341C269.207 33.7401 271.111 32.7045 273.203 32.7045C275.715 32.7045 277.949 34.1939 279.392 36.5176C279.819 37.213 280.422 37.7831 281.141 38.1699C281.86 38.5567 282.669 38.7465 283.485 38.7199H283.619C286.391 38.7199 288.637 41.8586 288.637 45.7294C288.637 49.6001 286.397 52.7388 283.619 52.7388C283.01 52.7357 282.411 52.5854 281.872 52.3009C280.928 51.8413 279.895 51.5926 278.845 51.5721C277.795 51.5517 276.753 51.7601 275.792 52.1827C274.98 52.5451 274.101 52.7324 273.211 52.7324C272.322 52.7324 271.443 52.5451 270.63 52.1827C269.678 51.7693 268.647 51.5656 267.608 51.5855C266.57 51.6054 265.548 51.8483 264.611 52.2977C264.076 52.5758 263.483 52.7227 262.88 52.726C260.109 52.726 257.863 49.5873 257.863 45.7166C257.852 44.226 258.217 42.7568 258.922 41.4431Z" fill="#F2F2F2"/>
<path opacity="0.03" d="M266.419 51.7C267.867 51.4245 269.365 51.587 270.72 52.1667C271.532 52.5291 272.411 52.7164 273.301 52.7164C274.19 52.7164 275.069 52.5291 275.881 52.1667C276.843 51.7454 277.885 51.5381 278.935 51.559C279.985 51.58 281.017 51.8288 281.961 52.2881C282.5 52.5716 283.1 52.7208 283.709 52.7228C286.169 52.7228 288.217 50.2457 288.646 46.9695C288.153 46.6121 287.734 46.1614 287.414 45.643C285.971 43.3225 283.734 41.8299 281.225 41.8299C278.717 41.8299 276.505 43.3034 275.062 45.6015C274.631 46.2945 274.028 46.8645 273.311 47.2565C272.595 47.6485 271.789 47.8491 270.973 47.8389H270.909C268.944 47.8421 267.245 49.4115 266.419 51.7Z" fill="black"/>
</g>
<defs>
<clipPath id="clip0_15_5545">
<rect width="336" height="240" fill="white"/>
</clipPath>
</defs>
</svg>
