<svg width="25" height="24" viewBox="0 0 25 24" fill="none" xmlns="http://www.w3.org/2000/svg">
<g clip-path="url(#clip0_144_135)">
<path d="M7.1665 21H3.6665C3.1165 21 2.6665 20.55 2.6665 20V10C2.6665 9.45 3.1165 9 3.6665 9H7.1665C7.7165 9 8.1665 9.45 8.1665 10V20C8.1665 20.55 7.7165 21 7.1665 21ZM14.4165 3H10.9165C10.3665 3 9.9165 3.45 9.9165 4V20C9.9165 20.55 10.3665 21 10.9165 21H14.4165C14.9665 21 15.4165 20.55 15.4165 20V4C15.4165 3.45 14.9665 3 14.4165 3ZM21.6665 11H18.1665C17.6165 11 17.1665 11.45 17.1665 12V20C17.1665 20.55 17.6165 21 18.1665 21H21.6665C22.2165 21 22.6665 20.55 22.6665 20V12C22.6665 11.45 22.2165 11 21.6665 11Z" fill="#A095C1"/>
</g>
<defs>
<clipPath id="clip0_144_135">
<rect width="24" height="24" fill="white" transform="translate(0.666504)"/>
</clipPath>
</defs>
</svg>
