<svg width="11" height="11" viewBox="0 0 11 11" fill="none" xmlns="http://www.w3.org/2000/svg">
<path d="M8.70598 6.75675C8.56568 6.89271 8.50123 7.08933 8.53318 7.28217L9.01473 9.94716C9.05535 10.173 8.96002 10.4016 8.77098 10.5322C8.58573 10.6676 8.33927 10.6838 8.13723 10.5755L5.73818 9.32425C5.65477 9.27983 5.56214 9.256 5.46735 9.25329H5.32056C5.26964 9.26087 5.21981 9.27712 5.17431 9.30204L2.77473 10.5592C2.6561 10.6188 2.52177 10.64 2.39014 10.6188C2.06948 10.5582 1.85552 10.2527 1.90806 9.93037L2.39014 7.26537C2.4221 7.07091 2.35764 6.87321 2.21735 6.73508L0.261393 4.83925C0.0978097 4.68054 0.0409347 4.44221 0.115685 4.22716C0.188268 4.01266 0.373518 3.85612 0.597226 3.82091L3.28931 3.43037C3.49406 3.40925 3.67389 3.28466 3.76598 3.1005L4.95223 0.668415C4.98039 0.614248 5.01668 0.564415 5.06056 0.522165L5.10931 0.484248C5.13477 0.456081 5.16402 0.43279 5.19652 0.413831L5.25556 0.392165L5.34764 0.354248H5.57568C5.77935 0.375373 5.95864 0.497248 6.05235 0.679248L7.25431 3.1005C7.34098 3.27762 7.50943 3.40058 7.70389 3.43037L10.396 3.82091C10.6235 3.85341 10.8136 4.0105 10.8889 4.22716C10.9599 4.44437 10.8986 4.68271 10.7318 4.83925L8.70598 6.75675Z" fill="#407CE2"/>
</svg>
