<svg width="19" height="16" viewBox="0 0 19 16" fill="none" xmlns="http://www.w3.org/2000/svg">
<path d="M1.58333 0.375C1.16341 0.375 0.76068 0.541815 0.463748 0.838748C0.166815 1.13568 0 1.53841 0 1.95833L0 12.25C0 12.6699 0.166815 13.0727 0.463748 13.3696C0.76068 13.6665 1.16341 13.8333 1.58333 13.8333H2.04725L1.65142 14.2292L2.77083 15.3486L4.28608 13.8333H6.33333V7.5H1.58333V1.95833H10.2917V3.54167H11.875V1.95833C11.875 1.53841 11.7082 1.13568 11.4113 0.838748C11.1143 0.541815 10.7116 0.375 10.2917 0.375H1.58333ZM2.375 9.875H3.9615V11.4615H2.375V9.875Z" fill="black"/>
<path d="M17.161 4.33325H8.96404L7.125 8.93046V15.0208H8.70833V13.8333H17.4167V15.0208H19V8.93046L17.161 4.33325ZM16.7224 7.49992H9.40262L10.036 5.91659H16.089L16.7224 7.49992ZM9.5 9.87492H11.0865V11.4614H9.5V9.87492ZM16.6282 9.87492V11.4614H15.0417V9.87492H16.6282Z" fill="black"/>
</svg>
