<svg width="26" height="31" viewBox="0 0 26 31" fill="none" xmlns="http://www.w3.org/2000/svg">
<path d="M7.34082 31C0.968909 27.4204 -0.708682 24.0322 0.250445 19.4047C0.958515 15.9877 3.27705 13.2076 3.49937 9.79716C4.48977 11.5937 4.90361 12.8892 5.01428 14.7666C8.16427 10.9196 10.2459 5.59411 10.3691 0C10.3691 0 18.5737 4.80526 19.1121 12.0637C19.8184 10.5676 20.1739 8.19144 19.4676 6.65146C21.5865 8.19152 33.9886 21.8631 17.7877 31C20.8337 25.0884 18.5735 17.1117 13.285 13.4277C13.6382 15.0118 13.019 20.9199 10.6793 23.516C11.3276 19.1782 10.0625 17.344 10.0625 17.344C10.0625 17.344 9.62826 19.7737 7.94357 22.2281C6.40515 24.4695 5.33919 26.8484 7.34082 31Z" fill="#F7941D"/>
</svg>
