<?xml version="1.0" standalone="no"?>
<!DOCTYPE svg PUBLIC "-//W3C//DTD SVG 20010904//EN"
 "http://www.w3.org/TR/2001/REC-SVG-20010904/DTD/svg10.dtd">
<svg version="1.0" xmlns="http://www.w3.org/2000/svg"
 width="18.000000pt" height="18.000000pt" viewBox="0 0 128.000000 128.000000"
 preserveAspectRatio="xMidYMid meet">

<g transform="translate(0.000000,128.000000) scale(0.100000,-0.100000)"
fill="#000000" stroke="none">
<path d="M504 1271 c-75 -32 -86 -151 -17 -196 12 -9 23 -22 23 -30 0 -13 -32
-15 -213 -15 -152 0 -216 -3 -225 -12 -9 -9 -12 -117 -12 -424 l0 -413 22 -15
c15 -11 45 -16 90 -16 l68 0 0 -63 c0 -36 5 -68 12 -75 17 -17 939 -17 956 0
17 17 17 829 0 846 -7 7 -43 12 -90 12 l-78 0 0 68 c0 40 -5 73 -12 80 -9 9
-73 12 -225 12 -181 0 -213 2 -213 15 0 8 11 21 23 30 53 35 63 117 20 165
-30 34 -89 48 -129 31z m77 -87 c17 -21 0 -49 -31 -49 -31 0 -48 28 -31 49 8
9 21 16 31 16 10 0 23 -7 31 -16z m-63 -254 c7 -11 21 -20 32 -20 11 0 25 9
32 20 12 19 24 20 195 20 l183 0 0 -285 0 -285 -63 0 c-36 0 -68 -5 -75 -12
-7 -7 -12 -39 -12 -75 l0 -63 -335 0 -335 0 0 360 0 360 183 0 c171 0 183 -1
195 -20z m622 -495 l0 -365 -410 0 -410 0 0 39 0 39 288 4 c274 3 289 4 329
25 45 25 74 59 91 112 8 22 12 119 12 272 l0 239 50 0 50 0 0 -365z m-190
-143 c0 -9 -25 -33 -47 -46 -9 -5 -13 2 -13 23 0 28 3 31 30 31 17 0 30 -4 30
-8z"/>
<path d="M222 818 c-8 -8 -12 -45 -12 -99 0 -114 6 -119 140 -119 134 0 140 5
140 119 0 54 -4 91 -12 99 -17 17 -239 17 -256 0z m188 -103 l0 -35 -60 0 -60
0 0 35 0 35 60 0 60 0 0 -35z"/>
<path d="M572 818 c-18 -18 -15 -35 10 -52 17 -12 50 -16 144 -16 106 0 125 3
145 19 20 16 22 23 13 38 -10 16 -29 18 -155 21 -104 2 -148 -1 -157 -10z"/>
<path d="M572 668 c-18 -18 -15 -35 10 -52 26 -19 177 -22 209 -6 21 12 25 40
7 58 -16 16 -210 16 -226 0z"/>
<path d="M222 518 c-8 -8 -12 -45 -12 -99 0 -114 6 -119 140 -119 134 0 140 5
140 119 0 54 -4 91 -12 99 -17 17 -239 17 -256 0z m188 -103 l0 -35 -60 0 -60
0 0 35 0 35 60 0 60 0 0 -35z"/>
<path d="M572 518 c-18 -18 -15 -35 10 -52 17 -12 50 -16 144 -16 106 0 125 3
145 19 20 16 22 23 13 38 -10 16 -29 18 -155 21 -104 2 -148 -1 -157 -10z"/>
<path d="M572 368 c-32 -32 9 -68 79 -68 59 0 100 29 83 57 -9 14 -26 19 -80
21 -45 2 -74 -2 -82 -10z"/>
</g>
</svg>
