<svg width="17" height="19" viewBox="0 0 17 19" fill="none" xmlns="http://www.w3.org/2000/svg">
<path d="M6.91674 0.75C5.92602 0.750586 4.94925 1.00805 4.06492 1.5017C3.18059 1.99536 2.41338 2.71142 1.82494 3.59236C1.23651 4.47329 0.843261 5.49452 0.676815 6.57396C0.510368 7.6534 0.575362 8.76094 0.866572 9.80757C1.15778 10.8542 1.66709 11.8107 2.35355 12.6003C3.04001 13.3898 3.88449 13.9903 4.8191 14.3536C5.75372 14.7169 6.7524 14.8327 7.73489 14.6918C8.71737 14.551 9.65626 14.1573 10.4761 13.5425L14.3901 17.865C14.4988 17.994 14.6299 18.0974 14.7756 18.1691C14.9212 18.2409 15.0785 18.2794 15.2379 18.2825C15.3974 18.2856 15.5557 18.2532 15.7036 18.1872C15.8515 18.1212 15.9858 18.0229 16.0986 17.8983C16.2113 17.7737 16.3002 17.6252 16.3599 17.4618C16.4197 17.2984 16.449 17.1233 16.4462 16.9471C16.4434 16.7709 16.4085 16.5971 16.3436 16.4361C16.2787 16.2751 16.1851 16.1302 16.0684 16.01L12.1576 11.684C12.8046 10.6315 13.1798 9.40402 13.2429 8.13349C13.3059 6.86296 13.0545 5.59746 12.5155 4.47306C11.9766 3.34866 11.1705 2.40789 10.1841 1.7519C9.19759 1.09592 8.068 0.749539 6.91674 0.75ZM2.95841 7.75C2.95841 6.58968 3.37544 5.47688 4.11778 4.65641C4.86011 3.83594 5.86693 3.375 6.91674 3.375C7.96656 3.375 8.97337 3.83594 9.7157 4.65641C10.458 5.47688 10.8751 6.58968 10.8751 7.75C10.8751 8.91032 10.458 10.0231 9.7157 10.8436C8.97337 11.6641 7.96656 12.125 6.91674 12.125C5.86693 12.125 4.86011 11.6641 4.11778 10.8436C3.37544 10.0231 2.95841 8.91032 2.95841 7.75Z" fill="#202020"/>
</svg>
