<svg width="19" height="19" viewBox="0 0 19 19" fill="none" xmlns="http://www.w3.org/2000/svg">
<path d="M9.5 0C4.2617 0 0 4.2617 0 9.5C0 14.7383 4.2617 19 9.5 19C14.7383 19 19 14.7383 19 9.5C19 4.2617 14.7383 0 9.5 0ZM10.45 15.2H8.55V13.3H10.45V15.2ZM11.3772 10.5592C11.191 10.7093 11.0114 10.8528 10.8689 10.9953C10.4813 11.382 10.4509 11.7334 10.45 11.7486V11.875H8.55V11.7163C8.55 11.6042 8.57755 10.5982 9.5247 9.65105C9.70995 9.4658 9.93985 9.2777 10.1811 9.082C10.8784 8.51675 11.3363 8.10445 11.3363 7.53635C11.3253 7.05643 11.1269 6.59989 10.7835 6.26441C10.4401 5.92894 9.97911 5.74117 9.49906 5.7413C9.01901 5.74142 8.55808 5.92942 8.21488 6.26508C7.87169 6.60073 7.67349 7.05737 7.6627 7.5373H5.7627C5.7627 5.47675 7.43945 3.8 9.5 3.8C11.5605 3.8 13.2373 5.47675 13.2373 7.5373C13.2373 9.05445 12.1172 9.9598 11.3772 10.5592Z" fill="#202020"/>
</svg>
