<svg width="24" height="24" viewBox="0 0 24 24" fill="none" xmlns="http://www.w3.org/2000/svg">
<path d="M20.693 17.33C21.0505 15.9965 21.0965 14.5986 20.8273 13.2445C20.5581 11.8904 19.9809 10.6164 19.1406 9.52105C18.3002 8.42568 17.2191 7.53834 15.9809 6.92768C14.7427 6.31701 13.3806 5.99939 12 5.99939C10.6194 5.99939 9.25731 6.31701 8.01911 6.92768C6.78092 7.53834 5.69981 8.42568 4.85943 9.52105C4.01905 10.6164 3.44194 11.8904 3.17274 13.2445C2.90355 14.5986 2.94948 15.9965 3.307 17.33" stroke="black" stroke-width="2" stroke-linecap="round"/>
<path d="M12.766 15.582C13.253 16.292 12.91 17.374 12 17.999C11.09 18.625 9.957 18.557 9.47 17.848C8.95 17.092 7.156 12.841 6.067 10.211C5.862 9.71595 6.467 9.29995 6.857 9.66895C8.921 11.629 12.247 14.826 12.766 15.582Z" stroke="black" stroke-width="2"/>
<path d="M12 6V8M5.636 8.636L7.05 10.05M18.364 8.636L16.95 10.05M20.693 17.33L18.762 16.812M3.307 17.33L5.238 16.812" stroke="black" stroke-width="2" stroke-linecap="round"/>
</svg>
