<svg width="20" height="20" viewBox="0 0 20 20" fill="none" xmlns="http://www.w3.org/2000/svg">
<g clip-path="url(#clip0_144_267)">
<path d="M10 18.3333C10.9167 18.3333 11.6667 17.5833 11.6667 16.6666H8.33335C8.33335 17.5833 9.07501 18.3333 10 18.3333ZM15 13.3333V9.16659C15 6.60825 13.6333 4.46659 11.25 3.89992V3.33325C11.25 2.64159 10.6917 2.08325 10 2.08325C9.30835 2.08325 8.75001 2.64159 8.75001 3.33325V3.89992C6.35835 4.46659 5.00001 6.59992 5.00001 9.16659V13.3333L3.92501 14.4083C3.40001 14.9333 3.76668 15.8333 4.50835 15.8333H15.4833C16.225 15.8333 16.6 14.9333 16.075 14.4083L15 13.3333Z" fill="#A095C1"/>
</g>
<defs>
<clipPath id="clip0_144_267">
<rect width="20" height="20" fill="white"/>
</clipPath>
</defs>
</svg>
