<svg width="20" height="20" viewBox="0 0 20 20" fill="none" xmlns="http://www.w3.org/2000/svg">
<path d="M7.6005 15.2321C7.57109 15.2317 7.54197 15.2261 7.5145 15.2156C6.86241 15.2146 6.21035 15.2053 5.5585 15.1876C5.087 15.1761 4.6495 15.1656 4.143 15.1656C3.34781 15.1648 2.58542 14.8486 2.02309 14.2863C1.46076 13.7241 1.14443 12.9618 1.1435 12.1666C1.1435 11.1646 1.6285 10.2506 2.449 9.69108C2.3822 9.36378 2.34836 9.03062 2.348 8.69658C2.348 5.97908 4.559 3.76758 7.2775 3.76758C8.16773 3.76845 9.04117 4.00987 9.80548 4.46631C10.5698 4.92275 11.1966 5.57724 11.6195 6.36058C11.8978 6.07529 12.2306 5.84884 12.5982 5.69467C12.9657 5.54049 13.3604 5.46174 13.759 5.46308C14.2147 5.46346 14.6643 5.56755 15.0737 5.76746C15.4832 5.96736 15.8418 6.25784 16.1223 6.61688C16.4029 6.97593 16.5981 7.39412 16.693 7.83977C16.788 8.28542 16.7803 8.74685 16.6705 9.18908C17.2997 9.36646 17.8538 9.74452 18.2484 10.2658C18.643 10.787 18.8565 11.4228 18.8565 12.0766C18.8565 13.7306 17.511 15.0766 15.857 15.0766C15.086 15.0766 13.3355 15.1166 11.643 15.1556C9.9345 15.1956 8.321 15.2321 7.6005 15.2321ZM7.2775 4.23308C4.816 4.23308 2.8135 6.23508 2.8135 8.69658C2.8135 9.05008 2.8555 9.40258 2.938 9.74408C2.94956 9.79211 2.94551 9.84258 2.92645 9.88816C2.90739 9.93374 2.87431 9.97207 2.832 9.99758C2.45732 10.2218 2.14748 10.5397 1.93295 10.92C1.71842 11.3003 1.6066 11.7299 1.6085 12.1666C1.60929 12.8383 1.87654 13.4824 2.3516 13.9573C2.82666 14.4323 3.47073 14.6994 4.1425 14.7001C4.653 14.7001 5.094 14.7106 5.5695 14.7221C6.122 14.7351 6.7215 14.7496 7.5345 14.7496C7.56391 14.75 7.59303 14.7556 7.6205 14.7661C8.347 14.7651 10.0165 14.7271 11.6315 14.6901C13.327 14.6511 15.08 14.6111 15.8565 14.6111C16.5284 14.6103 17.1725 14.343 17.6476 13.8678C18.1227 13.3927 18.3898 12.7485 18.3905 12.0766C18.3906 11.4873 18.1853 10.9164 17.8099 10.4621C17.4344 10.0079 16.9123 9.69882 16.3335 9.58808C16.3008 9.58186 16.2698 9.56868 16.2427 9.54944C16.2155 9.5302 16.1928 9.50533 16.1761 9.47655C16.1595 9.44776 16.1491 9.41572 16.1459 9.38259C16.1427 9.34947 16.1467 9.31604 16.1575 9.28458C16.2877 8.90294 16.325 8.49576 16.2664 8.0968C16.2078 7.69785 16.0549 7.31862 15.8204 6.99057C15.5859 6.66252 15.2766 6.3951 14.9181 6.2105C14.5596 6.02589 14.1622 5.92942 13.759 5.92908C13.3704 5.92812 12.9869 6.01702 12.6384 6.18885C12.2899 6.36068 11.9858 6.61077 11.75 6.91958C11.7256 6.95173 11.6933 6.97695 11.6561 6.99274C11.619 7.00852 11.5784 7.01433 11.5383 7.00958C11.4982 7.00483 11.4601 6.98969 11.4277 6.96566C11.3953 6.94163 11.3697 6.90954 11.3535 6.87258C11.0002 6.087 10.4277 5.42008 9.70466 4.95188C8.98165 4.48367 8.13887 4.23409 7.2775 4.23308Z" fill="black"/>
<mask id="path-2-outside-1_15_7296" maskUnits="userSpaceOnUse" x="5.63936" y="7.34277" width="9" height="6" fill="black">
<rect fill="white" x="5.63936" y="7.34277" width="9" height="6"/>
<path d="M8.929 10.7569C8.94018 10.7568 8.95124 10.7593 8.96136 10.764C8.97149 10.7688 8.98042 10.7757 8.9875 10.7844L9.149 10.9584C9.02578 11.1002 8.87328 11.2137 8.702 11.2909C8.527 11.3702 8.31533 11.4099 8.067 11.4099C7.852 11.4099 7.65667 11.3726 7.481 11.2979C7.31037 11.2264 7.15695 11.1194 7.031 10.9839C6.90273 10.8435 6.8044 10.6785 6.742 10.4989C6.67157 10.2994 6.63687 10.089 6.6395 9.87739C6.6395 9.65139 6.67517 9.44406 6.7465 9.25539C6.81007 9.07542 6.91107 8.91097 7.04285 8.7729C7.17463 8.63483 7.33419 8.52627 7.511 8.45439C7.70054 8.37828 7.90326 8.34039 8.1075 8.34289C8.32083 8.34289 8.50933 8.37706 8.673 8.44539C8.836 8.51339 8.97967 8.60606 9.104 8.72339L8.97 8.90989C8.96209 8.92383 8.95094 8.93566 8.9375 8.94439C8.92129 8.95382 8.90275 8.9585 8.884 8.95789C8.85867 8.95789 8.828 8.94422 8.792 8.91689C8.68368 8.83415 8.56093 8.77227 8.43 8.73439C8.32448 8.70463 8.21511 8.69081 8.1055 8.69339C7.95083 8.69339 7.809 8.72039 7.68 8.77439C7.55359 8.82675 7.44037 8.9065 7.3485 9.00789C7.25583 9.10956 7.18367 9.23372 7.132 9.38039C7.07866 9.54022 7.05263 9.7079 7.055 9.87639C7.055 10.0631 7.08183 10.2297 7.1355 10.3764C7.18883 10.5231 7.26217 10.6469 7.3555 10.7479C7.4955 10.8994 7.5575 10.9264 7.684 10.9794C7.81067 11.0324 7.94717 11.0589 8.0935 11.0589C8.18283 11.0589 8.26333 11.0536 8.335 11.0429C8.40284 11.0334 8.46952 11.017 8.534 10.9939C8.59347 10.9721 8.65032 10.9438 8.7035 10.9094C8.75583 10.8747 8.808 10.8339 8.86 10.7869C8.87822 10.7683 8.90297 10.7575 8.929 10.7569ZM12.3335 9.87789C12.3335 10.1022 12.2978 10.3086 12.2265 10.4969C12.1591 10.6768 12.0566 10.8415 11.925 10.9814C11.7931 11.1183 11.6338 11.2258 11.4575 11.2969C11.2653 11.3727 11.0601 11.4106 10.8535 11.4084C10.6328 11.4084 10.4318 11.3712 10.2505 11.2969C10.0745 11.2257 9.91559 11.1182 9.784 10.9814C9.6513 10.8423 9.54867 10.6774 9.4825 10.4969C9.40979 10.2987 9.37354 10.089 9.3755 9.87789C9.3755 9.65322 9.41117 9.44689 9.4825 9.25889C9.55417 9.07122 9.65467 8.90939 9.784 8.77339C9.91545 8.63606 10.0744 8.52803 10.2505 8.45639C10.442 8.37892 10.647 8.3405 10.8535 8.34339C11.0745 8.34339 11.2758 8.38106 11.4575 8.45639C11.6392 8.53172 11.795 8.63739 11.925 8.77339C12.055 8.90939 12.1555 9.07122 12.2265 9.25889C12.2978 9.44689 12.3335 9.65322 12.3335 9.87789ZM11.9165 9.87789C11.9165 9.69322 11.8913 9.52789 11.841 9.38189C11.7961 9.2447 11.7234 9.11823 11.6275 9.01039C11.5346 8.90857 11.4202 8.8288 11.2925 8.77689C11.1526 8.721 11.0031 8.69314 10.8525 8.69489C10.6922 8.69489 10.5463 8.72222 10.415 8.77689C10.2872 8.82873 10.1725 8.90851 10.0795 9.01039C9.9865 9.11139 9.91483 9.23522 9.8645 9.38189C9.8145 9.52822 9.78933 9.69356 9.789 9.87789C9.789 10.0619 9.81417 10.2269 9.8645 10.3729C9.9145 10.5182 9.98617 10.6417 10.0795 10.7434C10.1722 10.8447 10.284 10.9221 10.415 10.9754C10.5463 11.0294 10.6922 11.0564 10.8525 11.0564C11.0142 11.0564 11.1608 11.0294 11.2925 10.9754C11.4235 10.9221 11.5352 10.8447 11.6275 10.7434C11.7195 10.6417 11.7907 10.5182 11.841 10.3729C11.8917 10.2269 11.9168 10.0619 11.9165 9.87789ZM13.7345 12.5649C13.7578 12.5649 13.7767 12.5719 13.791 12.5859C13.7978 12.593 13.8032 12.6014 13.8068 12.6105C13.8104 12.6197 13.8122 12.6295 13.812 12.6394V12.7714H12.645V12.6969C12.6458 12.6619 12.6601 12.6285 12.685 12.6039L13.245 12.0414C13.2913 11.9941 13.3337 11.9486 13.372 11.9049C13.41 11.8616 13.4425 11.8177 13.4695 11.7734C13.4962 11.7294 13.5168 11.6849 13.5315 11.6399C13.5459 11.5929 13.5533 11.544 13.5535 11.4949C13.5543 11.4489 13.5459 11.4032 13.529 11.3604C13.5146 11.324 13.4922 11.2914 13.4635 11.2649C13.4347 11.2384 13.4004 11.2188 13.363 11.2074C13.2828 11.1818 13.1965 11.1821 13.1165 11.2084C13.0451 11.2326 12.9843 11.2808 12.9445 11.3449C12.9251 11.3774 12.9111 11.4129 12.903 11.4499C12.8933 11.4782 12.8802 11.4972 12.8635 11.5069C12.8468 11.5166 12.8233 11.5192 12.793 11.5149L12.6795 11.4949C12.6908 11.4156 12.7132 11.3451 12.7465 11.2834C12.7792 11.2224 12.8207 11.1709 12.871 11.1289C12.921 11.0879 12.978 11.0564 13.042 11.0344C13.1063 11.0131 13.176 11.0024 13.251 11.0024C13.325 11.0024 13.394 11.0132 13.458 11.0349C13.5195 11.054 13.5763 11.0862 13.6243 11.1291C13.6724 11.1721 13.7106 11.2249 13.7365 11.2839C13.7641 11.3486 13.7777 11.4185 13.7765 11.4889C13.7765 11.5542 13.7668 11.6146 13.7475 11.6699C13.728 11.726 13.7015 11.7795 13.6685 11.8289C13.6352 11.8796 13.5967 11.9289 13.553 11.9769C13.5093 12.0249 13.4632 12.0734 13.4145 12.1224L12.953 12.5929C12.9857 12.5842 13.0187 12.5772 13.052 12.5719C13.0853 12.5666 13.1175 12.5639 13.1485 12.5639H13.7345V12.5649Z"/>
</mask>
<path d="M8.929 10.7569C8.94018 10.7568 8.95124 10.7593 8.96136 10.764C8.97149 10.7688 8.98042 10.7757 8.9875 10.7844L9.149 10.9584C9.02578 11.1002 8.87328 11.2137 8.702 11.2909C8.527 11.3702 8.31533 11.4099 8.067 11.4099C7.852 11.4099 7.65667 11.3726 7.481 11.2979C7.31037 11.2264 7.15695 11.1194 7.031 10.9839C6.90273 10.8435 6.8044 10.6785 6.742 10.4989C6.67157 10.2994 6.63687 10.089 6.6395 9.87739C6.6395 9.65139 6.67517 9.44406 6.7465 9.25539C6.81007 9.07542 6.91107 8.91097 7.04285 8.7729C7.17463 8.63483 7.33419 8.52627 7.511 8.45439C7.70054 8.37828 7.90326 8.34039 8.1075 8.34289C8.32083 8.34289 8.50933 8.37706 8.673 8.44539C8.836 8.51339 8.97967 8.60606 9.104 8.72339L8.97 8.90989C8.96209 8.92383 8.95094 8.93566 8.9375 8.94439C8.92129 8.95382 8.90275 8.9585 8.884 8.95789C8.85867 8.95789 8.828 8.94422 8.792 8.91689C8.68368 8.83415 8.56093 8.77227 8.43 8.73439C8.32448 8.70463 8.21511 8.69081 8.1055 8.69339C7.95083 8.69339 7.809 8.72039 7.68 8.77439C7.55359 8.82675 7.44037 8.9065 7.3485 9.00789C7.25583 9.10956 7.18367 9.23372 7.132 9.38039C7.07866 9.54022 7.05263 9.7079 7.055 9.87639C7.055 10.0631 7.08183 10.2297 7.1355 10.3764C7.18883 10.5231 7.26217 10.6469 7.3555 10.7479C7.4955 10.8994 7.5575 10.9264 7.684 10.9794C7.81067 11.0324 7.94717 11.0589 8.0935 11.0589C8.18283 11.0589 8.26333 11.0536 8.335 11.0429C8.40284 11.0334 8.46952 11.017 8.534 10.9939C8.59347 10.9721 8.65032 10.9438 8.7035 10.9094C8.75583 10.8747 8.808 10.8339 8.86 10.7869C8.87822 10.7683 8.90297 10.7575 8.929 10.7569ZM12.3335 9.87789C12.3335 10.1022 12.2978 10.3086 12.2265 10.4969C12.1591 10.6768 12.0566 10.8415 11.925 10.9814C11.7931 11.1183 11.6338 11.2258 11.4575 11.2969C11.2653 11.3727 11.0601 11.4106 10.8535 11.4084C10.6328 11.4084 10.4318 11.3712 10.2505 11.2969C10.0745 11.2257 9.91559 11.1182 9.784 10.9814C9.6513 10.8423 9.54867 10.6774 9.4825 10.4969C9.40979 10.2987 9.37354 10.089 9.3755 9.87789C9.3755 9.65322 9.41117 9.44689 9.4825 9.25889C9.55417 9.07122 9.65467 8.90939 9.784 8.77339C9.91545 8.63606 10.0744 8.52803 10.2505 8.45639C10.442 8.37892 10.647 8.3405 10.8535 8.34339C11.0745 8.34339 11.2758 8.38106 11.4575 8.45639C11.6392 8.53172 11.795 8.63739 11.925 8.77339C12.055 8.90939 12.1555 9.07122 12.2265 9.25889C12.2978 9.44689 12.3335 9.65322 12.3335 9.87789ZM11.9165 9.87789C11.9165 9.69322 11.8913 9.52789 11.841 9.38189C11.7961 9.2447 11.7234 9.11823 11.6275 9.01039C11.5346 8.90857 11.4202 8.8288 11.2925 8.77689C11.1526 8.721 11.0031 8.69314 10.8525 8.69489C10.6922 8.69489 10.5463 8.72222 10.415 8.77689C10.2872 8.82873 10.1725 8.90851 10.0795 9.01039C9.9865 9.11139 9.91483 9.23522 9.8645 9.38189C9.8145 9.52822 9.78933 9.69356 9.789 9.87789C9.789 10.0619 9.81417 10.2269 9.8645 10.3729C9.9145 10.5182 9.98617 10.6417 10.0795 10.7434C10.1722 10.8447 10.284 10.9221 10.415 10.9754C10.5463 11.0294 10.6922 11.0564 10.8525 11.0564C11.0142 11.0564 11.1608 11.0294 11.2925 10.9754C11.4235 10.9221 11.5352 10.8447 11.6275 10.7434C11.7195 10.6417 11.7907 10.5182 11.841 10.3729C11.8917 10.2269 11.9168 10.0619 11.9165 9.87789ZM13.7345 12.5649C13.7578 12.5649 13.7767 12.5719 13.791 12.5859C13.7978 12.593 13.8032 12.6014 13.8068 12.6105C13.8104 12.6197 13.8122 12.6295 13.812 12.6394V12.7714H12.645V12.6969C12.6458 12.6619 12.6601 12.6285 12.685 12.6039L13.245 12.0414C13.2913 11.9941 13.3337 11.9486 13.372 11.9049C13.41 11.8616 13.4425 11.8177 13.4695 11.7734C13.4962 11.7294 13.5168 11.6849 13.5315 11.6399C13.5459 11.5929 13.5533 11.544 13.5535 11.4949C13.5543 11.4489 13.5459 11.4032 13.529 11.3604C13.5146 11.324 13.4922 11.2914 13.4635 11.2649C13.4347 11.2384 13.4004 11.2188 13.363 11.2074C13.2828 11.1818 13.1965 11.1821 13.1165 11.2084C13.0451 11.2326 12.9843 11.2808 12.9445 11.3449C12.9251 11.3774 12.9111 11.4129 12.903 11.4499C12.8933 11.4782 12.8802 11.4972 12.8635 11.5069C12.8468 11.5166 12.8233 11.5192 12.793 11.5149L12.6795 11.4949C12.6908 11.4156 12.7132 11.3451 12.7465 11.2834C12.7792 11.2224 12.8207 11.1709 12.871 11.1289C12.921 11.0879 12.978 11.0564 13.042 11.0344C13.1063 11.0131 13.176 11.0024 13.251 11.0024C13.325 11.0024 13.394 11.0132 13.458 11.0349C13.5195 11.054 13.5763 11.0862 13.6243 11.1291C13.6724 11.1721 13.7106 11.2249 13.7365 11.2839C13.7641 11.3486 13.7777 11.4185 13.7765 11.4889C13.7765 11.5542 13.7668 11.6146 13.7475 11.6699C13.728 11.726 13.7015 11.7795 13.6685 11.8289C13.6352 11.8796 13.5967 11.9289 13.553 11.9769C13.5093 12.0249 13.4632 12.0734 13.4145 12.1224L12.953 12.5929C12.9857 12.5842 13.0187 12.5772 13.052 12.5719C13.0853 12.5666 13.1175 12.5639 13.1485 12.5639H13.7345V12.5649Z" fill="black"/>
<path d="M8.929 10.7569C8.94018 10.7568 8.95124 10.7593 8.96136 10.764C8.97149 10.7688 8.98042 10.7757 8.9875 10.7844L9.149 10.9584C9.02578 11.1002 8.87328 11.2137 8.702 11.2909C8.527 11.3702 8.31533 11.4099 8.067 11.4099C7.852 11.4099 7.65667 11.3726 7.481 11.2979C7.31037 11.2264 7.15695 11.1194 7.031 10.9839C6.90273 10.8435 6.8044 10.6785 6.742 10.4989C6.67157 10.2994 6.63687 10.089 6.6395 9.87739C6.6395 9.65139 6.67517 9.44406 6.7465 9.25539C6.81007 9.07542 6.91107 8.91097 7.04285 8.7729C7.17463 8.63483 7.33419 8.52627 7.511 8.45439C7.70054 8.37828 7.90326 8.34039 8.1075 8.34289C8.32083 8.34289 8.50933 8.37706 8.673 8.44539C8.836 8.51339 8.97967 8.60606 9.104 8.72339L8.97 8.90989C8.96209 8.92383 8.95094 8.93566 8.9375 8.94439C8.92129 8.95382 8.90275 8.9585 8.884 8.95789C8.85867 8.95789 8.828 8.94422 8.792 8.91689C8.68368 8.83415 8.56093 8.77227 8.43 8.73439C8.32448 8.70463 8.21511 8.69081 8.1055 8.69339C7.95083 8.69339 7.809 8.72039 7.68 8.77439C7.55359 8.82675 7.44037 8.9065 7.3485 9.00789C7.25583 9.10956 7.18367 9.23372 7.132 9.38039C7.07866 9.54022 7.05263 9.7079 7.055 9.87639C7.055 10.0631 7.08183 10.2297 7.1355 10.3764C7.18883 10.5231 7.26217 10.6469 7.3555 10.7479C7.4955 10.8994 7.5575 10.9264 7.684 10.9794C7.81067 11.0324 7.94717 11.0589 8.0935 11.0589C8.18283 11.0589 8.26333 11.0536 8.335 11.0429C8.40284 11.0334 8.46952 11.017 8.534 10.9939C8.59347 10.9721 8.65032 10.9438 8.7035 10.9094C8.75583 10.8747 8.808 10.8339 8.86 10.7869C8.87822 10.7683 8.90297 10.7575 8.929 10.7569ZM12.3335 9.87789C12.3335 10.1022 12.2978 10.3086 12.2265 10.4969C12.1591 10.6768 12.0566 10.8415 11.925 10.9814C11.7931 11.1183 11.6338 11.2258 11.4575 11.2969C11.2653 11.3727 11.0601 11.4106 10.8535 11.4084C10.6328 11.4084 10.4318 11.3712 10.2505 11.2969C10.0745 11.2257 9.91559 11.1182 9.784 10.9814C9.6513 10.8423 9.54867 10.6774 9.4825 10.4969C9.40979 10.2987 9.37354 10.089 9.3755 9.87789C9.3755 9.65322 9.41117 9.44689 9.4825 9.25889C9.55417 9.07122 9.65467 8.90939 9.784 8.77339C9.91545 8.63606 10.0744 8.52803 10.2505 8.45639C10.442 8.37892 10.647 8.3405 10.8535 8.34339C11.0745 8.34339 11.2758 8.38106 11.4575 8.45639C11.6392 8.53172 11.795 8.63739 11.925 8.77339C12.055 8.90939 12.1555 9.07122 12.2265 9.25889C12.2978 9.44689 12.3335 9.65322 12.3335 9.87789ZM11.9165 9.87789C11.9165 9.69322 11.8913 9.52789 11.841 9.38189C11.7961 9.2447 11.7234 9.11823 11.6275 9.01039C11.5346 8.90857 11.4202 8.8288 11.2925 8.77689C11.1526 8.721 11.0031 8.69314 10.8525 8.69489C10.6922 8.69489 10.5463 8.72222 10.415 8.77689C10.2872 8.82873 10.1725 8.90851 10.0795 9.01039C9.9865 9.11139 9.91483 9.23522 9.8645 9.38189C9.8145 9.52822 9.78933 9.69356 9.789 9.87789C9.789 10.0619 9.81417 10.2269 9.8645 10.3729C9.9145 10.5182 9.98617 10.6417 10.0795 10.7434C10.1722 10.8447 10.284 10.9221 10.415 10.9754C10.5463 11.0294 10.6922 11.0564 10.8525 11.0564C11.0142 11.0564 11.1608 11.0294 11.2925 10.9754C11.4235 10.9221 11.5352 10.8447 11.6275 10.7434C11.7195 10.6417 11.7907 10.5182 11.841 10.3729C11.8917 10.2269 11.9168 10.0619 11.9165 9.87789ZM13.7345 12.5649C13.7578 12.5649 13.7767 12.5719 13.791 12.5859C13.7978 12.593 13.8032 12.6014 13.8068 12.6105C13.8104 12.6197 13.8122 12.6295 13.812 12.6394V12.7714H12.645V12.6969C12.6458 12.6619 12.6601 12.6285 12.685 12.6039L13.245 12.0414C13.2913 11.9941 13.3337 11.9486 13.372 11.9049C13.41 11.8616 13.4425 11.8177 13.4695 11.7734C13.4962 11.7294 13.5168 11.6849 13.5315 11.6399C13.5459 11.5929 13.5533 11.544 13.5535 11.4949C13.5543 11.4489 13.5459 11.4032 13.529 11.3604C13.5146 11.324 13.4922 11.2914 13.4635 11.2649C13.4347 11.2384 13.4004 11.2188 13.363 11.2074C13.2828 11.1818 13.1965 11.1821 13.1165 11.2084C13.0451 11.2326 12.9843 11.2808 12.9445 11.3449C12.9251 11.3774 12.9111 11.4129 12.903 11.4499C12.8933 11.4782 12.8802 11.4972 12.8635 11.5069C12.8468 11.5166 12.8233 11.5192 12.793 11.5149L12.6795 11.4949C12.6908 11.4156 12.7132 11.3451 12.7465 11.2834C12.7792 11.2224 12.8207 11.1709 12.871 11.1289C12.921 11.0879 12.978 11.0564 13.042 11.0344C13.1063 11.0131 13.176 11.0024 13.251 11.0024C13.325 11.0024 13.394 11.0132 13.458 11.0349C13.5195 11.054 13.5763 11.0862 13.6243 11.1291C13.6724 11.1721 13.7106 11.2249 13.7365 11.2839C13.7641 11.3486 13.7777 11.4185 13.7765 11.4889C13.7765 11.5542 13.7668 11.6146 13.7475 11.6699C13.728 11.726 13.7015 11.7795 13.6685 11.8289C13.6352 11.8796 13.5967 11.9289 13.553 11.9769C13.5093 12.0249 13.4632 12.0734 13.4145 12.1224L12.953 12.5929C12.9857 12.5842 13.0187 12.5772 13.052 12.5719C13.0853 12.5666 13.1175 12.5639 13.1485 12.5639H13.7345V12.5649Z" stroke="black" stroke-width="0.02" mask="url(#path-2-outside-1_15_7296)"/>
</svg>
