<svg width="53" height="52" viewBox="0 0 53 52" fill="none" xmlns="http://www.w3.org/2000/svg">
<g filter="url(#filter0_d_15_6634)">
<rect x="8.5" y="4" width="36" height="36" rx="18" fill="white"/>
<g clip-path="url(#clip0_15_6634)">
<path d="M19 26.5499V29.0832C19 29.3166 19.1833 29.4999 19.4167 29.4999H21.95C22.0583 29.4999 22.1667 29.4582 22.2417 29.3749L31.3417 20.2832L28.2167 17.1582L19.125 26.2499C19.0417 26.3332 19 26.4332 19 26.5499ZM33.7583 17.8666C34.0833 17.5416 34.0833 17.0166 33.7583 16.6916L31.8083 14.7416C31.4833 14.4166 30.9583 14.4166 30.6333 14.7416L29.1083 16.2666L32.2333 19.3916L33.7583 17.8666Z" fill="#432C81"/>
</g>
</g>
<defs>
<filter id="filter0_d_15_6634" x="0.5" y="0" width="52" height="52" filterUnits="userSpaceOnUse" color-interpolation-filters="sRGB">
<feFlood flood-opacity="0" result="BackgroundImageFix"/>
<feColorMatrix in="SourceAlpha" type="matrix" values="0 0 0 0 0 0 0 0 0 0 0 0 0 0 0 0 0 0 127 0" result="hardAlpha"/>
<feOffset dy="4"/>
<feGaussianBlur stdDeviation="4"/>
<feColorMatrix type="matrix" values="0 0 0 0 0 0 0 0 0 0 0 0 0 0 0 0 0 0 0.16 0"/>
<feBlend mode="normal" in2="BackgroundImageFix" result="effect1_dropShadow_15_6634"/>
<feBlend mode="normal" in="SourceGraphic" in2="effect1_dropShadow_15_6634" result="shape"/>
</filter>
<clipPath id="clip0_15_6634">
<rect width="20" height="20" fill="white" transform="translate(16.5 12)"/>
</clipPath>
</defs>
</svg>
