<svg width="333" height="266" viewBox="0 0 333 266" fill="none" xmlns="http://www.w3.org/2000/svg">
<g clip-path="url(#clip0_15_5659)">
<path d="M274.915 237.862C274.941 237.819 274.969 237.777 274.999 237.737C275.073 237.563 275.166 237.397 275.277 237.244L284.475 224.373L292.053 213.772H304.979L304.066 215.049L302.439 217.327L297.398 224.376L286.595 239.489L296.608 259.607C297.017 260.426 296.319 261.603 295.058 262.232L290.229 264.638C289.749 264.883 289.221 265.016 288.682 265.026C288.003 265.026 287.436 264.774 287.198 264.295L274.751 239.284C274.653 239.053 274.616 238.8 274.645 238.551C274.674 238.302 274.767 238.064 274.915 237.862Z" fill="#407CE2"/>
<path d="M292.31 237.091L279.288 232.251C278.698 232.031 278.219 231.586 277.956 231.013C277.694 230.44 277.669 229.786 277.888 229.195L281.708 218.913C281.928 218.322 282.373 217.843 282.946 217.581C283.519 217.318 284.172 217.294 284.763 217.513L297.784 222.352C298.375 222.572 298.854 223.017 299.116 223.59C299.378 224.163 299.403 224.817 299.184 225.408L295.365 235.691C295.256 235.983 295.091 236.251 294.878 236.48C294.666 236.709 294.411 236.894 294.127 237.024C293.843 237.154 293.537 237.226 293.225 237.238C292.913 237.249 292.602 237.199 292.31 237.091Z" fill="#2F2E41"/>
<path d="M281.237 231.375C281.149 231.375 281.062 231.359 280.979 231.328C280.798 231.259 280.651 231.121 280.572 230.944C280.492 230.768 280.485 230.566 280.554 230.385L285.335 217.729C285.403 217.548 285.541 217.401 285.718 217.321C285.895 217.241 286.096 217.235 286.277 217.304C286.459 217.372 286.606 217.51 286.685 217.687C286.765 217.864 286.771 218.065 286.703 218.246L281.922 230.902C281.869 231.041 281.775 231.161 281.653 231.245C281.531 231.329 281.385 231.375 281.237 231.375Z" fill="white"/>
<path d="M302.249 263.143V217.433C302.247 217.39 302.25 217.347 302.257 217.305C302.279 216.775 302.455 216.263 302.765 215.832C303.074 215.401 303.503 215.069 303.998 214.879C304.314 214.753 304.651 214.689 304.99 214.69H310.386C311.113 214.691 311.81 214.98 312.324 215.494C312.838 216.008 313.127 216.705 313.128 217.433V263.143C313.127 263.87 312.838 264.567 312.324 265.081C311.81 265.595 311.113 265.884 310.386 265.885H304.99C304.263 265.884 303.566 265.595 303.052 265.081C302.538 264.567 302.249 263.87 302.249 263.143Z" fill="#407CE2"/>
<path d="M299.32 234.615V223.645C299.321 223.015 299.572 222.411 300.017 221.965C300.463 221.52 301.067 221.269 301.696 221.268H315.588C316.218 221.269 316.822 221.52 317.267 221.965C317.713 222.411 317.963 223.015 317.964 223.645V234.615C317.963 235.245 317.713 235.849 317.267 236.294C316.822 236.74 316.218 236.991 315.588 236.991H301.696C301.067 236.991 300.463 236.74 300.017 236.294C299.572 235.849 299.321 235.245 299.32 234.615Z" fill="#2F2E41"/>
<path d="M309.949 235.834C309.755 235.833 309.569 235.756 309.432 235.619C309.295 235.482 309.218 235.296 309.218 235.102V221.573C309.218 221.379 309.295 221.193 309.432 221.056C309.569 220.919 309.755 220.842 309.949 220.842C310.143 220.842 310.329 220.919 310.466 221.056C310.603 221.193 310.68 221.379 310.68 221.573V235.102C310.68 235.296 310.603 235.482 310.466 235.619C310.329 235.756 310.143 235.833 309.949 235.834Z" fill="white"/>
<path d="M284.968 182.664L244.998 162.052C244.353 161.718 243.867 161.141 243.646 160.449C243.425 159.756 243.487 159.005 243.818 158.358L246.29 153.56C246.624 152.915 247.201 152.429 247.893 152.208C248.585 151.987 249.337 152.049 249.983 152.381L289.955 172.993C290.155 173.096 290.342 173.225 290.51 173.376C290.969 173.779 291.28 174.324 291.393 174.924C291.506 175.524 291.414 176.145 291.133 176.688L288.662 181.485C288.497 181.806 288.271 182.09 287.995 182.323C287.72 182.556 287.402 182.732 287.058 182.841C286.786 182.926 286.503 182.969 286.218 182.97C285.783 182.969 285.355 182.865 284.968 182.664Z" fill="#407CE2"/>
<path d="M285.745 183.849L266.313 176.175C265.664 175.849 265.171 175.279 264.941 174.589C264.712 173.9 264.765 173.148 265.089 172.498L269.52 163.362C269.848 162.714 270.418 162.221 271.107 161.991C271.453 161.876 271.819 161.832 272.183 161.861C272.547 161.889 272.901 161.99 273.226 162.158L290.774 172.798C290.843 172.832 290.906 172.876 290.961 172.928C291.409 173.331 291.631 174.298 291.81 175.073L291.839 175.194C291.887 175.402 291.93 175.582 291.972 175.708L291.987 175.756C292.002 175.807 292.018 175.86 292.029 175.909C292.186 176.542 292.111 177.211 291.818 177.794L289.398 182.617C289.167 183.071 288.815 183.453 288.381 183.72C287.947 183.988 287.448 184.13 286.939 184.133C286.524 184.133 286.115 184.036 285.745 183.849Z" fill="#2F2E41"/>
<path d="M300.08 158.814C310.885 158.814 319.645 150.052 319.645 139.244C319.645 128.436 310.885 119.675 300.08 119.675C289.275 119.675 280.515 128.436 280.515 139.244C280.515 150.052 289.275 158.814 300.08 158.814Z" fill="#407CE2"/>
<path d="M301.222 149.788L301.242 149.057C299.882 149.019 298.683 148.934 297.782 148.275C297.527 148.078 297.317 147.828 297.166 147.542C297.016 147.256 296.929 146.942 296.911 146.619C296.896 146.422 296.925 146.225 296.999 146.041C297.072 145.857 297.186 145.693 297.333 145.561C297.931 145.056 298.894 145.219 299.595 145.541L300.2 145.818L299.04 137.339L298.316 137.438L299.302 144.651C298.349 144.371 297.466 144.492 296.861 145.003C296.629 145.205 296.446 145.459 296.328 145.744C296.21 146.029 296.16 146.337 296.181 146.645C296.202 147.078 296.318 147.501 296.52 147.885C296.722 148.269 297.006 148.603 297.351 148.866C298.508 149.712 300.013 149.754 301.222 149.788Z" fill="#2F2E41"/>
<path d="M294.733 138.06H290.796V138.791H294.733V138.06Z" fill="#2F2E41"/>
<path d="M307.163 138.06H303.225V138.791H307.163V138.06Z" fill="#2F2E41"/>
<path d="M282.245 224.55C280.953 224.475 279.945 222.35 279.945 219.686V185.434C279.945 183.766 280.154 182.105 280.569 180.489L280.569 180.489C280.72 179.908 280.899 179.33 281.1 178.773C282.327 175.343 284.482 172.32 287.324 170.041C287.645 169.779 287.981 169.526 288.321 169.288C289.976 168.119 291.803 167.214 293.735 166.605C293.682 166.365 293.655 166.119 293.654 165.872C293.655 164.951 294.021 164.068 294.672 163.417C295.323 162.765 296.206 162.399 297.127 162.398H302.245C303.166 162.399 304.048 162.765 304.699 163.417C305.35 164.068 305.717 164.951 305.718 165.872C305.717 166.118 305.69 166.364 305.637 166.604C309.637 167.871 313.13 170.379 315.609 173.765C318.088 177.15 319.425 181.238 319.426 185.434V219.686C319.426 222.419 318.383 224.559 317.05 224.559H282.321C282.296 224.56 282.27 224.557 282.245 224.55Z" fill="#2F2E41"/>
<path d="M304.853 227.676C304.626 227.278 304.502 226.828 304.493 226.369L303.724 181.396C303.718 181.036 303.782 180.678 303.914 180.343C304.046 180.008 304.243 179.702 304.494 179.443L304.494 179.442C304.744 179.183 305.043 178.976 305.373 178.832C305.703 178.688 306.058 178.611 306.418 178.605L311.814 178.514C312.494 178.502 313.154 178.743 313.666 179.191C314.178 179.638 314.505 180.26 314.584 180.935C314.596 181.025 314.602 181.116 314.602 181.207L315.374 226.183C315.384 226.91 315.106 227.611 314.601 228.134C314.096 228.656 313.404 228.957 312.677 228.971L307.283 229.064C306.791 229.071 306.306 228.946 305.879 228.702C305.451 228.458 305.097 228.104 304.853 227.676Z" fill="#407CE2"/>
<path d="M302.585 196.793C302.381 196.433 302.26 196.032 302.232 195.62L302.463 174.784C302.407 174.059 302.641 173.341 303.113 172.788C303.585 172.236 304.257 171.893 304.982 171.835L310.361 171.414C311.016 171.364 311.667 171.549 312.197 171.936C312.252 171.978 312.307 172.029 312.361 172.065C312.496 172.177 312.636 172.282 312.781 172.38L312.898 172.462C313.671 173.01 314.547 173.63 314.59 174.235L317.825 194.564C317.874 195.144 317.733 195.725 317.425 196.219C317.352 196.34 317.269 196.455 317.177 196.562C317.096 196.657 317.008 196.746 316.914 196.827C316.467 197.228 315.901 197.471 315.302 197.516L305.179 198.169C304.661 198.209 304.142 198.101 303.683 197.857C303.223 197.614 302.843 197.244 302.585 196.793Z" fill="#2F2E41"/>
<path d="M283.628 219.745C283.435 219.745 283.249 219.668 283.112 219.53C282.975 219.393 282.897 219.207 282.897 219.014V183.545C282.897 183.351 282.974 183.165 283.111 183.028C283.248 182.891 283.434 182.814 283.628 182.814C283.822 182.814 284.008 182.891 284.145 183.028C284.282 183.165 284.359 183.351 284.359 183.545V219.014C284.359 219.207 284.282 219.393 284.145 219.53C284.008 219.668 283.822 219.745 283.628 219.745Z" fill="white"/>
<path d="M317.824 134.595L283.836 122.159C283.656 122.093 283.49 121.992 283.349 121.862C283.207 121.732 283.093 121.575 283.012 121.401C282.931 121.227 282.885 121.038 282.877 120.846C282.869 120.655 282.899 120.463 282.965 120.283L283.08 119.739C285.734 112.481 294.532 107.914 301.788 110.569L312.247 114.396C319.503 117.051 322.657 125.645 320.002 132.902L319.7 133.724C319.566 134.089 319.294 134.385 318.942 134.548C318.59 134.712 318.188 134.729 317.824 134.595Z" fill="#2F2E41"/>
<path d="M319.655 135.285C272.282 137.034 268.143 131.08 282.577 121.718L285.639 116.082L320.733 128.88L319.655 135.285Z" fill="#2F2E41"/>
<path d="M310.366 113.503C310.628 112.633 309.507 111.527 307.864 111.033C306.22 110.539 304.676 110.844 304.414 111.714C304.153 112.584 305.273 113.69 306.917 114.184C308.56 114.678 310.105 114.374 310.366 113.503Z" fill="#2F2E41"/>
<path d="M103.669 0C69.7024 0 42.0725 27.6364 42.0725 61.6115C42.0628 70.3082 43.9039 78.9075 47.4734 86.8376C57.1268 108.269 78.6808 123.223 103.669 123.223C120.003 123.214 135.665 116.72 147.215 105.167C158.765 93.6149 165.257 77.949 165.266 61.6115C165.266 27.6365 137.631 0 103.669 0ZM154.632 86.3792C149.981 95.941 142.737 104.003 133.726 109.646C124.715 115.289 114.3 118.285 103.669 118.294C79.6565 118.294 59.0831 103.276 50.8489 82.1355C48.2969 75.5943 46.9916 68.6331 47.0003 61.6115C47.0003 30.3572 72.4225 4.92892 103.669 4.92892C134.916 4.92892 160.338 30.3572 160.338 61.6115C160.349 70.1946 158.397 78.6665 154.632 86.3792Z" fill="#E6E6E6"/>
<path d="M103.669 123.406C92.0018 123.396 80.5749 120.086 70.7079 113.858C60.841 107.629 52.9365 98.7361 47.9071 88.2057C47.7064 87.7858 47.6192 87.3206 47.6543 86.8565C47.6894 86.3924 47.8456 85.9456 48.1073 85.5607L48.1403 85.5124C48.4016 85.1337 48.7579 84.8305 49.1733 84.6332C49.5888 84.4358 50.0489 84.3512 50.5074 84.3879C50.9658 84.4246 51.4066 84.5812 51.7854 84.8422C52.1643 85.1031 52.4678 85.4591 52.6656 85.8744C62.0108 105.457 82.0309 118.111 103.669 118.111C113.558 118.086 123.268 115.475 131.836 110.538C140.405 105.601 147.534 98.5083 152.516 89.9646C152.747 89.5634 153.081 89.2306 153.483 89.0002C153.885 88.7698 154.341 88.6499 154.804 88.6527C155.262 88.6515 155.713 88.7726 156.109 89.0035C156.505 89.2344 156.832 89.5667 157.057 89.9663L157.085 90.0168C157.313 90.4199 157.432 90.8757 157.43 91.3389C157.427 91.8021 157.304 92.2567 157.071 92.6574C151.621 101.993 143.825 109.741 134.458 115.135C125.091 120.528 114.478 123.379 103.669 123.406Z" fill="#407CE2"/>
<path d="M89.7859 67.2467C91.4602 67.2358 93.0863 67.8065 94.3867 68.8614C95.6871 69.9163 96.5811 71.3899 96.9162 73.0307C97.2513 74.6715 97.0066 76.3778 96.2239 77.8582C95.4413 79.3387 94.1692 80.5015 92.6248 81.1482C91.0804 81.795 89.3594 81.8855 87.7557 81.4043C86.152 80.9232 84.765 79.9002 83.8314 78.51C82.8979 77.1198 82.4756 75.4486 82.6368 73.7817C82.798 72.1148 83.5326 70.5555 84.7152 69.3701C85.378 68.6983 86.1675 68.1647 87.0379 67.8002C87.9083 67.4358 88.8423 67.2476 89.7859 67.2467ZM89.7859 64.1661C87.7551 64.165 85.7696 64.7663 84.0804 65.8939C82.3913 67.0215 81.0743 68.6249 80.2962 70.5011C79.518 72.3774 79.3136 74.4423 79.7087 76.4348C80.1038 78.4273 81.0808 80.2578 82.516 81.6949C83.9512 83.132 85.7803 84.1112 87.7718 84.5085C89.7634 84.9059 91.8281 84.7036 93.7047 83.9272C95.5814 83.1509 97.1857 81.8354 98.3149 80.147C99.4441 78.4587 100.047 76.4733 100.048 74.442C100.05 71.7181 98.9695 69.1053 97.0449 67.1781C95.1203 65.251 92.5092 64.1676 89.7859 64.1661ZM111.18 49.4784C112.109 49.4831 113.001 49.1186 113.661 48.465C114.321 47.8114 114.695 46.9223 114.7 45.9933C114.7 45.9814 114.7 45.9696 114.7 45.9577C114.704 45.5026 114.619 45.0511 114.449 44.629C114.278 44.2069 114.027 43.8224 113.708 43.4975C113.39 43.1726 113.01 42.9137 112.591 42.7355C112.173 42.5574 111.723 42.4634 111.268 42.4591C111.246 42.4589 111.224 42.4589 111.202 42.4591C110.271 42.4503 109.375 42.8116 108.711 43.4636C108.047 44.1156 107.669 45.0048 107.66 45.9356C107.651 46.8664 108.013 47.7625 108.664 48.4269C109.316 49.0913 110.205 49.4695 111.136 49.4782C111.15 49.4784 111.165 49.4784 111.18 49.4784ZM118.538 67.2467C120.213 67.2358 121.839 67.8065 123.139 68.8614C124.44 69.9163 125.334 71.3899 125.669 73.0307C126.004 74.6715 125.759 76.3778 124.976 77.8582C124.194 79.3387 122.922 80.5015 121.377 81.1482C119.833 81.795 118.112 81.8855 116.508 81.4043C114.905 80.9232 113.518 79.9002 112.584 78.51C111.65 77.1198 111.228 75.4486 111.389 73.7817C111.551 72.1148 112.285 70.5555 113.468 69.3701C114.131 68.6983 114.92 68.1647 115.79 67.8002C116.661 67.4357 117.595 67.2476 118.538 67.2467ZM118.538 64.1661C116.509 64.1661 114.525 64.7681 112.837 65.8961C111.149 67.024 109.834 68.6272 109.057 70.5028C108.28 72.3785 108.077 74.4424 108.473 76.4336C108.869 78.4248 109.847 80.2538 111.282 81.6894C112.717 83.125 114.546 84.1026 116.536 84.4987C118.527 84.8948 120.591 84.6915 122.466 83.9146C124.341 83.1376 125.944 81.822 127.071 80.1339C128.199 78.4459 128.801 76.4612 128.801 74.431C128.801 73.083 128.536 71.7482 128.02 70.5028C127.504 69.2574 126.748 68.1258 125.795 67.1726C124.842 66.2195 123.711 65.4634 122.466 64.9475C121.221 64.4316 119.886 64.1661 118.538 64.1661Z" fill="#E6E6E6"/>
<path d="M116.482 56.5417H111.202L107.957 49.9295C107.695 49.4658 107.329 49.0692 106.888 48.7709C106.447 48.4726 105.943 48.2807 105.415 48.2103C104.888 48.1399 104.351 48.193 103.847 48.3653C103.343 48.5376 102.886 48.8245 102.512 49.2033L94.6257 56.8058C93.9802 57.4648 93.6138 58.3476 93.6028 59.2702C93.6028 61.1846 94.9887 61.8667 95.6377 62.2518C100.642 65.1343 102.402 65.4534 102.402 66.8946V74.145C102.402 74.6118 102.588 75.0596 102.918 75.3897C103.248 75.7198 103.695 75.9053 104.162 75.9053C104.629 75.9053 105.077 75.7198 105.407 75.3897C105.737 75.0596 105.922 74.6118 105.922 74.145V64.2431C105.922 62.7909 102.578 61.6026 100.609 60.0624L105.988 54.3963C108.045 57.5319 108.991 60.0624 110.168 60.0624H116.482C116.948 60.0631 117.396 59.8784 117.727 59.5488C118.057 59.2192 118.244 58.7717 118.244 58.3049C118.245 57.838 118.06 57.39 117.731 57.0593C117.401 56.7287 116.954 56.5425 116.487 56.5417L116.482 56.5417Z" fill="#E6E6E6"/>
<path d="M54.1244 156.447C52.6083 156.447 51.3531 160.862 51.1098 166.651H21.9437C21.7004 160.862 20.4452 156.447 18.9291 156.447C17.2389 156.447 15.8687 161.929 15.8687 168.692C15.8687 175.454 17.2389 180.936 18.9291 180.936C20.4452 180.936 21.7004 176.521 21.9437 170.733H51.1098C51.3531 176.521 52.6083 180.936 54.1244 180.936C55.8146 180.936 57.1848 175.454 57.1848 168.692C57.1848 161.929 55.8146 156.447 54.1244 156.447Z" fill="#E6E6E6"/>
<path d="M68.3312 150.613C64.0083 142.863 57.0095 136.955 48.6452 133.996C40.281 131.036 31.1248 131.227 22.8913 134.533C14.6577 137.839 7.91127 144.034 3.91524 151.957C-0.0807882 159.881 -1.05241 168.989 1.18231 177.578C3.41703 186.166 8.70484 193.645 16.0556 198.614C23.4064 203.584 32.3161 205.703 41.1165 204.575C49.9168 203.447 58.0043 199.149 63.8646 192.486C69.7249 185.823 72.9562 177.251 72.9534 168.377C72.9514 162.159 71.3603 156.044 68.3312 150.613ZM36.4684 201.948C27.6255 201.903 19.1615 198.351 12.9326 192.073C6.70379 185.795 3.21863 177.301 3.24151 168.456C3.26439 159.611 6.79344 151.136 13.0547 144.89C19.3159 138.644 27.7982 135.137 36.6412 135.137C45.4842 135.138 53.966 138.646 60.2264 144.893C66.4868 151.14 70.0148 159.616 70.0365 168.461C70.0582 177.306 66.572 185.798 60.3423 192.076C54.1127 198.354 45.6482 201.904 36.8053 201.948C36.693 201.948 36.5807 201.948 36.4684 201.948Z" fill="#E6E6E6"/>
<path d="M36.4863 205.054C29.5344 205.057 22.7255 203.079 16.8565 199.352C16.5634 199.165 16.3372 198.89 16.2105 198.566L16.1921 198.519C16.0647 198.198 16.0437 197.845 16.1323 197.511C16.2209 197.178 16.4144 196.881 16.6841 196.666C16.9449 196.447 17.2693 196.317 17.6093 196.296C17.9494 196.276 18.2871 196.365 18.5727 196.551C24.8108 200.522 32.1913 202.309 39.5548 201.629C46.9182 200.949 53.8472 197.842 59.2534 192.796C64.6596 187.749 68.2365 181.049 69.4222 173.749C70.6079 166.448 69.3353 158.96 65.8042 152.461C65.6387 152.163 65.5732 151.82 65.6175 151.482C65.6618 151.144 65.8134 150.829 66.0501 150.584C66.2839 150.33 66.5932 150.157 66.9324 150.092C67.2716 150.027 67.6228 150.072 67.9342 150.222L67.98 150.243C68.2924 150.389 68.5503 150.631 68.7165 150.933C71.739 156.517 73.2601 162.789 73.1309 169.137C73.0017 175.485 71.2265 181.69 67.9793 187.146C64.7321 192.601 60.1242 197.12 54.6066 200.259C49.089 203.398 42.851 205.05 36.5034 205.054H36.4863Z" fill="#407CE2"/>
<path d="M170.853 131.89C166.061 131.888 161.316 132.83 156.888 134.663C152.46 136.495 148.436 139.182 145.047 142.571C141.657 145.959 138.968 149.982 137.133 154.41C135.298 158.838 134.353 163.584 134.352 168.377C134.351 173.17 135.295 177.917 137.128 182.345C138.961 186.774 141.649 190.798 145.037 194.187C148.426 197.577 152.448 200.265 156.876 202.1C161.303 203.934 166.048 204.878 170.84 204.877H170.853C171.09 204.877 171.322 204.877 171.558 204.867C181.172 204.682 190.324 200.709 197.024 193.81C203.724 186.912 207.431 177.647 207.338 168.03C207.245 158.412 203.36 149.221 196.528 142.453C189.696 135.685 180.469 131.889 170.853 131.89ZM178.289 201.121C173.684 202.167 168.91 202.23 164.279 201.304C159.648 200.379 155.265 198.486 151.415 195.75C147.565 193.014 144.336 189.496 141.938 185.427C139.541 181.357 138.029 176.827 137.501 172.133C136.973 167.439 137.442 162.687 138.876 158.186C140.31 153.686 142.677 149.538 145.823 146.015C148.969 142.493 152.823 139.673 157.133 137.742C161.443 135.811 166.111 134.811 170.834 134.808H170.853C179.108 134.807 187.074 137.849 193.228 143.353C199.381 148.856 203.292 156.434 204.212 164.639C205.132 172.845 202.997 181.101 198.215 187.831C193.433 194.561 186.339 199.293 178.289 201.121Z" fill="#E6E6E6"/>
<path d="M170.853 205.06C161.804 205.06 153.075 201.713 146.344 195.663C139.614 189.613 135.357 181.288 134.394 172.288C133.43 163.288 135.828 154.25 141.126 146.912C146.423 139.574 154.246 134.454 163.09 132.538C163.308 132.491 163.532 132.488 163.751 132.529L163.827 132.543C164.194 132.615 164.525 132.81 164.765 133.097C165.004 133.384 165.137 133.745 165.142 134.119C165.146 134.493 165.021 134.857 164.789 135.149C164.556 135.442 164.229 135.645 163.864 135.725C155.802 137.453 148.665 142.105 143.827 148.783C138.99 155.461 136.793 163.694 137.662 171.895C138.53 180.096 142.402 187.685 148.531 193.202C154.66 198.718 162.613 201.771 170.858 201.772C171.181 201.769 171.494 201.767 171.813 201.758C172.168 201.743 172.516 201.854 172.798 202.071C173.08 202.287 173.276 202.596 173.352 202.943C173.437 203.279 173.399 203.633 173.247 203.943C173.095 204.254 172.838 204.5 172.522 204.639C172.307 204.738 172.091 204.835 171.875 204.93C171.692 205.01 171.495 205.054 171.296 205.058C171.149 205.06 171.002 205.06 170.853 205.06Z" fill="#407CE2"/>
<path d="M188.853 166.832C187.881 166.783 186.919 167.054 186.115 167.603C185.312 168.152 184.709 168.948 184.401 169.872H180.807L178.184 161.982C178.087 161.686 177.899 161.428 177.647 161.246C177.395 161.063 177.091 160.965 176.78 160.965H176.753C176.437 160.97 176.131 161.077 175.881 161.27C175.632 161.464 175.451 161.733 175.367 162.037L171.257 176.385L166.426 147.366C166.37 147.03 166.2 146.723 165.945 146.498C165.69 146.272 165.365 146.142 165.024 146.128C164.684 146.114 164.35 146.217 164.077 146.42C163.804 146.624 163.609 146.915 163.526 147.245L158.63 169.872H153.143C152.751 169.872 152.376 170.027 152.098 170.305C151.821 170.582 151.666 170.958 151.666 171.35C151.666 171.742 151.821 172.118 152.098 172.395C152.376 172.672 152.751 172.828 153.143 172.828H159.794C160.123 172.828 160.443 172.719 160.702 172.516C160.962 172.313 161.146 172.03 161.226 171.71L164.68 154.877L169.419 183.323C169.473 183.655 169.639 183.958 169.889 184.181C170.14 184.405 170.459 184.536 170.795 184.552H170.878C171.199 184.552 171.511 184.447 171.768 184.254C172.025 184.061 172.211 183.789 172.3 183.48L176.891 167.442L178.341 171.812C178.44 172.106 178.629 172.363 178.88 172.545C179.132 172.727 179.434 172.826 179.745 172.828H184.465C184.747 173.576 185.226 174.233 185.851 174.731C186.476 175.229 187.224 175.548 188.015 175.656C188.807 175.764 189.613 175.656 190.348 175.344C191.083 175.031 191.721 174.526 192.192 173.881C192.664 173.236 192.953 172.476 193.029 171.68C193.104 170.885 192.963 170.084 192.621 169.362C192.279 168.64 191.748 168.023 191.085 167.578C190.422 167.133 189.65 166.875 188.853 166.832Z" fill="#E6E6E6"/>
<path d="M332.634 266H265.736C265.639 266 265.546 265.961 265.477 265.893C265.409 265.824 265.37 265.731 265.37 265.634C265.37 265.537 265.409 265.444 265.477 265.376C265.546 265.307 265.639 265.269 265.736 265.269H332.634C332.731 265.269 332.824 265.307 332.893 265.376C332.961 265.444 333 265.537 333 265.634C333 265.731 332.961 265.824 332.893 265.893C332.824 265.961 332.731 266 332.634 266Z" fill="#3F3D56"/>
</g>
<defs>
<clipPath id="clip0_15_5659">
<rect width="333" height="266" fill="white"/>
</clipPath>
</defs>
</svg>
