<svg width="24" height="24" viewBox="0 0 24 24" fill="none" xmlns="http://www.w3.org/2000/svg">
  <path d="M12 21.5C16.1421 21.5 19.5 18.1421 19.5 14C19.5 10.5817 16.7353 6.20355 13.8846 3.42518C12.9224 2.48358 11.0776 2.48358 10.1154 3.42518C7.26472 6.20355 4.5 10.5817 4.5 14C4.5 18.1421 7.85786 21.5 12 21.5Z" stroke="currentColor" stroke-width="1.5"/>
  <path d="M12 17.5C13.933 17.5 15.5 15.933 15.5 14C15.5 12.067 13.933 10.5 12 10.5C10.067 10.5 8.5 12.067 8.5 14C8.5 15.933 10.067 17.5 12 17.5Z" fill="currentColor"/>
</svg>
