<svg width="184" height="242" viewBox="0 0 184 242" fill="none" xmlns="http://www.w3.org/2000/svg">
<path d="M180 60.3294C180 31.3154 161.574 0 131.806 0C110.903 0 98.2331 12.4299 92 20.9606C85.7669 12.4278 73.0966 0 52.1941 0C22.4264 0 4 31.3154 4 60.3294C4 94.6186 31.44 123.244 61.0926 149.072C62.0634 149.92 63.2198 150.329 64.3669 150.329C65.9391 150.329 67.4946 149.558 68.5415 148.083C70.3513 145.533 69.9522 141.837 67.6487 139.832C40.101 115.838 14.61 89.6006 14.61 60.3294C14.61 40.7406 26.5545 11.7554 52.1941 11.7554C76.6586 11.7554 86.8472 33.1601 87.2574 34.0506C88.154 36.029 89.9842 37.2691 91.9814 37.2794C91.9889 37.2794 91.9963 37.2794 92.0056 37.2794C93.9954 37.2794 95.8219 36.0352 96.7314 34.0732C97.1528 33.1622 107.343 11.7574 131.808 11.7574C157.447 11.7574 169.392 40.7427 169.392 60.3315C169.392 83.18 154.405 106.199 119.318 137.229C109.766 145.118 100.873 148.034 94.9495 145.044C89.5201 142.3 86.4054 134.38 86.4054 123.312V98.7605C86.4054 95.5153 84.0295 92.8829 81.1005 92.8829H64.2463V80.4859H81.1005C84.0295 80.4859 86.4054 77.8535 86.4054 74.6082V55.9325H97.5964V74.6082C97.5964 77.8535 99.9705 80.4859 102.901 80.4859H119.756V92.8829H102.901C99.9723 92.8829 97.5964 95.5153 97.5964 98.7605V123.312C97.5964 126.557 99.9705 129.19 102.901 129.19C105.83 129.19 108.206 126.557 108.206 123.312V104.636H125.061C127.99 104.636 130.366 102.004 130.366 98.7585V74.6061C130.366 71.3609 127.99 68.7285 125.061 68.7285H108.206V50.0528C108.206 46.8075 105.83 44.1751 102.901 44.1751H81.1005C78.1714 44.1751 75.7955 46.8075 75.7955 50.0528V68.7285H58.9413C56.0122 68.7285 53.6363 71.3609 53.6363 74.6061V98.7585C53.6363 102.004 56.0122 104.636 58.9413 104.636H75.7955V123.312C75.7955 139.182 81.1729 151.001 90.5466 155.738C93.5425 157.251 96.7741 158 100.189 158C107.833 158 116.4 154.243 125.294 146.952C125.358 146.903 125.426 146.87 125.487 146.814C125.604 146.711 125.721 146.607 125.838 146.502C127.288 145.292 128.745 143.995 130.21 142.598C156.647 118.715 180 92.1919 180 60.3294Z" fill="url(#paint0_linear_15_5419)"/>
<path d="M20.4849 204.448H27.8449V208H16.0049V185.664H20.4849V204.448ZM32.9644 188.16C32.175 188.16 31.5137 187.915 30.9804 187.424C30.4684 186.912 30.2124 186.283 30.2124 185.536C30.2124 184.789 30.4684 184.171 30.9804 183.68C31.5137 183.168 32.175 182.912 32.9644 182.912C33.7537 182.912 34.4044 183.168 34.9164 183.68C35.4497 184.171 35.7164 184.789 35.7164 185.536C35.7164 186.283 35.4497 186.912 34.9164 187.424C34.4044 187.915 33.7537 188.16 32.9644 188.16ZM35.1724 190.272V208H30.6924V190.272H35.1724ZM47.7266 193.952H44.6226V208H40.0786V193.952H38.0626V190.272H40.0786V189.376C40.0786 187.2 40.6973 185.6 41.9346 184.576C43.172 183.552 45.0386 183.072 47.5346 183.136V186.912C46.4466 186.891 45.6893 187.072 45.2626 187.456C44.836 187.84 44.6226 188.533 44.6226 189.536V190.272H47.7266V193.952ZM67.1099 198.752C67.1099 199.392 67.0672 199.968 66.9819 200.48H54.0219C54.1285 201.76 54.5765 202.763 55.3659 203.488C56.1552 204.213 57.1259 204.576 58.2779 204.576C59.9419 204.576 61.1259 203.861 61.8299 202.432H66.6619C66.1499 204.139 65.1685 205.547 63.7179 206.656C62.2672 207.744 60.4859 208.288 58.3739 208.288C56.6672 208.288 55.1312 207.915 53.7659 207.168C52.4219 206.4 51.3659 205.323 50.5979 203.936C49.8512 202.549 49.4779 200.949 49.4779 199.136C49.4779 197.301 49.8512 195.691 50.5979 194.304C51.3445 192.917 52.3899 191.851 53.7339 191.104C55.0779 190.357 56.6245 189.984 58.3739 189.984C60.0592 189.984 61.5632 190.347 62.8859 191.072C64.2299 191.797 65.2645 192.832 65.9899 194.176C66.7365 195.499 67.1099 197.024 67.1099 198.752ZM62.4699 197.472C62.4485 196.32 62.0325 195.403 61.2219 194.72C60.4112 194.016 59.4192 193.664 58.2459 193.664C57.1365 193.664 56.1979 194.005 55.4299 194.688C54.6832 195.349 54.2245 196.277 54.0539 197.472H62.4699ZM85.9319 192.384C85.4199 191.445 84.7159 190.731 83.8199 190.24C82.9239 189.749 81.8785 189.504 80.6839 189.504C79.3612 189.504 78.1879 189.803 77.1639 190.4C76.1399 190.997 75.3399 191.851 74.7639 192.96C74.1879 194.069 73.8999 195.349 73.8999 196.8C73.8999 198.293 74.1879 199.595 74.7639 200.704C75.3612 201.813 76.1825 202.667 77.2279 203.264C78.2732 203.861 79.4892 204.16 80.8759 204.16C82.5825 204.16 83.9799 203.712 85.0679 202.816C86.1559 201.899 86.8705 200.629 87.2119 199.008H79.5319V195.584H91.6279V199.488C91.3292 201.045 90.6892 202.485 89.7079 203.808C88.7265 205.131 87.4572 206.197 85.8999 207.008C84.3639 207.797 82.6359 208.192 80.7159 208.192C78.5612 208.192 76.6092 207.712 74.8599 206.752C73.1319 205.771 71.7665 204.416 70.7639 202.688C69.7825 200.96 69.2919 198.997 69.2919 196.8C69.2919 194.603 69.7825 192.64 70.7639 190.912C71.7665 189.163 73.1319 187.808 74.8599 186.848C76.6092 185.867 78.5505 185.376 80.6839 185.376C83.2012 185.376 85.3879 185.995 87.2439 187.232C89.0999 188.448 90.3799 190.165 91.0839 192.384H85.9319ZM111.678 190.272V208H107.166V205.76C106.59 206.528 105.833 207.136 104.894 207.584C103.977 208.011 102.974 208.224 101.886 208.224C100.5 208.224 99.273 207.936 98.2064 207.36C97.1397 206.763 96.297 205.899 95.6784 204.768C95.081 203.616 94.7824 202.251 94.7824 200.672V190.272H99.2624V200.032C99.2624 201.44 99.6144 202.528 100.318 203.296C101.022 204.043 101.982 204.416 103.198 204.416C104.436 204.416 105.406 204.043 106.11 203.296C106.814 202.528 107.166 201.44 107.166 200.032V190.272H111.678ZM114.947 199.072C114.947 197.28 115.299 195.691 116.003 194.304C116.728 192.917 117.699 191.851 118.915 191.104C120.152 190.357 121.528 189.984 123.043 189.984C124.365 189.984 125.517 190.251 126.499 190.784C127.501 191.317 128.301 191.989 128.899 192.8V190.272H133.411V208H128.899V205.408C128.323 206.24 127.523 206.933 126.499 207.488C125.496 208.021 124.333 208.288 123.011 208.288C121.517 208.288 120.152 207.904 118.915 207.136C117.699 206.368 116.728 205.291 116.003 203.904C115.299 202.496 114.947 200.885 114.947 199.072ZM128.899 199.136C128.899 198.048 128.685 197.12 128.259 196.352C127.832 195.563 127.256 194.965 126.531 194.56C125.805 194.133 125.027 193.92 124.195 193.92C123.363 193.92 122.595 194.123 121.891 194.528C121.187 194.933 120.611 195.531 120.163 196.32C119.736 197.088 119.523 198.005 119.523 199.072C119.523 200.139 119.736 201.077 120.163 201.888C120.611 202.677 121.187 203.285 121.891 203.712C122.616 204.139 123.384 204.352 124.195 204.352C125.027 204.352 125.805 204.149 126.531 203.744C127.256 203.317 127.832 202.72 128.259 201.952C128.685 201.163 128.899 200.224 128.899 199.136ZM142.266 193.024C142.842 192.085 143.589 191.349 144.506 190.816C145.445 190.283 146.511 190.016 147.706 190.016V194.72H146.522C145.114 194.72 144.047 195.051 143.322 195.712C142.618 196.373 142.266 197.525 142.266 199.168V208H137.786V190.272H142.266V193.024ZM149.572 199.072C149.572 197.28 149.924 195.691 150.628 194.304C151.353 192.917 152.334 191.851 153.572 191.104C154.809 190.357 156.185 189.984 157.7 189.984C158.852 189.984 159.95 190.24 160.996 190.752C162.041 191.243 162.873 191.904 163.492 192.736V184.32H168.036V208H163.492V205.376C162.937 206.251 162.158 206.955 161.156 207.488C160.153 208.021 158.99 208.288 157.668 208.288C156.174 208.288 154.809 207.904 153.572 207.136C152.334 206.368 151.353 205.291 150.628 203.904C149.924 202.496 149.572 200.885 149.572 199.072ZM163.524 199.136C163.524 198.048 163.31 197.12 162.884 196.352C162.457 195.563 161.881 194.965 161.156 194.56C160.43 194.133 159.652 193.92 158.82 193.92C157.988 193.92 157.22 194.123 156.516 194.528C155.812 194.933 155.236 195.531 154.788 196.32C154.361 197.088 154.148 198.005 154.148 199.072C154.148 200.139 154.361 201.077 154.788 201.888C155.236 202.677 155.812 203.285 156.516 203.712C157.241 204.139 158.009 204.352 158.82 204.352C159.652 204.352 160.43 204.149 161.156 203.744C161.881 203.317 162.457 202.72 162.884 201.952C163.31 201.163 163.524 200.224 163.524 199.136Z" fill="#223A6A"/>
<path d="M59.0077 226.228V236H57.0477V229.644L54.4297 236H52.9457L50.3137 229.644V236H48.3537V226.228H50.5797L53.6877 233.494L56.7957 226.228H59.0077ZM68.1555 231.954C68.1555 232.234 68.1368 232.486 68.0995 232.71H62.4295C62.4762 233.27 62.6722 233.709 63.0175 234.026C63.3628 234.343 63.7875 234.502 64.2915 234.502C65.0195 234.502 65.5375 234.189 65.8455 233.564H67.9595C67.7355 234.311 67.3062 234.927 66.6715 235.412C66.0368 235.888 65.2575 236.126 64.3335 236.126C63.5868 236.126 62.9148 235.963 62.3175 235.636C61.7295 235.3 61.2675 234.829 60.9315 234.222C60.6048 233.615 60.4415 232.915 60.4415 232.122C60.4415 231.319 60.6048 230.615 60.9315 230.008C61.2582 229.401 61.7155 228.935 62.3035 228.608C62.8915 228.281 63.5682 228.118 64.3335 228.118C65.0708 228.118 65.7288 228.277 66.3075 228.594C66.8955 228.911 67.3482 229.364 67.6655 229.952C67.9922 230.531 68.1555 231.198 68.1555 231.954ZM66.1255 231.394C66.1162 230.89 65.9342 230.489 65.5795 230.19C65.2248 229.882 64.7908 229.728 64.2775 229.728C63.7922 229.728 63.3815 229.877 63.0455 230.176C62.7188 230.465 62.5182 230.871 62.4435 231.394H66.1255ZM69.0821 232.094C69.0821 231.31 69.2361 230.615 69.5441 230.008C69.8615 229.401 70.2908 228.935 70.8321 228.608C71.3735 228.281 71.9755 228.118 72.6381 228.118C73.1421 228.118 73.6228 228.23 74.0801 228.454C74.5375 228.669 74.9015 228.958 75.1721 229.322V225.64H77.1601V236H75.1721V234.852C74.9295 235.235 74.5888 235.543 74.1501 235.776C73.7115 236.009 73.2028 236.126 72.6241 236.126C71.9708 236.126 71.3735 235.958 70.8321 235.622C70.2908 235.286 69.8615 234.815 69.5441 234.208C69.2361 233.592 69.0821 232.887 69.0821 232.094ZM75.1861 232.122C75.1861 231.646 75.0928 231.24 74.9061 230.904C74.7195 230.559 74.4675 230.297 74.1501 230.12C73.8328 229.933 73.4921 229.84 73.1281 229.84C72.7641 229.84 72.4281 229.929 72.1201 230.106C71.8121 230.283 71.5601 230.545 71.3641 230.89C71.1775 231.226 71.0841 231.627 71.0841 232.094C71.0841 232.561 71.1775 232.971 71.3641 233.326C71.5601 233.671 71.8121 233.937 72.1201 234.124C72.4375 234.311 72.7735 234.404 73.1281 234.404C73.4921 234.404 73.8328 234.315 74.1501 234.138C74.4675 233.951 74.7195 233.69 74.9061 233.354C75.0928 233.009 75.1861 232.598 75.1861 232.122ZM80.0684 227.32C79.7231 227.32 79.4337 227.213 79.2004 226.998C78.9764 226.774 78.8644 226.499 78.8644 226.172C78.8644 225.845 78.9764 225.575 79.2004 225.36C79.4337 225.136 79.7231 225.024 80.0684 225.024C80.4137 225.024 80.6984 225.136 80.9224 225.36C81.1557 225.575 81.2724 225.845 81.2724 226.172C81.2724 226.499 81.1557 226.774 80.9224 226.998C80.6984 227.213 80.4137 227.32 80.0684 227.32ZM81.0344 228.244V236H79.0744V228.244H81.0344ZM82.4669 232.122C82.4669 231.319 82.6302 230.619 82.9569 230.022C83.2835 229.415 83.7362 228.949 84.3149 228.622C84.8935 228.286 85.5562 228.118 86.3029 228.118C87.2642 228.118 88.0575 228.361 88.6829 228.846C89.3175 229.322 89.7422 229.994 89.9569 230.862H87.8429C87.7309 230.526 87.5395 230.265 87.2689 230.078C87.0075 229.882 86.6809 229.784 86.2889 229.784C85.7289 229.784 85.2855 229.989 84.9589 230.4C84.6322 230.801 84.4689 231.375 84.4689 232.122C84.4689 232.859 84.6322 233.433 84.9589 233.844C85.2855 234.245 85.7289 234.446 86.2889 234.446C87.0822 234.446 87.6002 234.091 87.8429 233.382H89.9569C89.7422 234.222 89.3175 234.889 88.6829 235.384C88.0482 235.879 87.2549 236.126 86.3029 236.126C85.5562 236.126 84.8935 235.963 84.3149 235.636C83.7362 235.3 83.2835 234.833 82.9569 234.236C82.6302 233.629 82.4669 232.925 82.4669 232.122ZM90.8888 232.094C90.8888 231.31 91.0428 230.615 91.3508 230.008C91.6681 229.401 92.0928 228.935 92.6248 228.608C93.1661 228.281 93.7681 228.118 94.4308 228.118C95.0094 228.118 95.5134 228.235 95.9428 228.468C96.3814 228.701 96.7314 228.995 96.9928 229.35V228.244H98.9668V236H96.9928V234.866C96.7408 235.23 96.3908 235.533 95.9428 235.776C95.5041 236.009 94.9954 236.126 94.4168 236.126C93.7634 236.126 93.1661 235.958 92.6248 235.622C92.0928 235.286 91.6681 234.815 91.3508 234.208C91.0428 233.592 90.8888 232.887 90.8888 232.094ZM96.9928 232.122C96.9928 231.646 96.8994 231.24 96.7128 230.904C96.5261 230.559 96.2741 230.297 95.9568 230.12C95.6394 229.933 95.2988 229.84 94.9348 229.84C94.5708 229.84 94.2348 229.929 93.9268 230.106C93.6188 230.283 93.3668 230.545 93.1708 230.89C92.9841 231.226 92.8908 231.627 92.8908 232.094C92.8908 232.561 92.9841 232.971 93.1708 233.326C93.3668 233.671 93.6188 233.937 93.9268 234.124C94.2441 234.311 94.5801 234.404 94.9348 234.404C95.2988 234.404 95.6394 234.315 95.9568 234.138C96.2741 233.951 96.5261 233.69 96.7128 233.354C96.8994 233.009 96.9928 232.598 96.9928 232.122ZM102.841 225.64V236H100.881V225.64H102.841ZM107.609 232.094C107.609 231.31 107.763 230.615 108.071 230.008C108.389 229.401 108.813 228.935 109.345 228.608C109.887 228.281 110.489 228.118 111.151 228.118C111.73 228.118 112.234 228.235 112.663 228.468C113.102 228.701 113.452 228.995 113.713 229.35V228.244H115.687V236H113.713V234.866C113.461 235.23 113.111 235.533 112.663 235.776C112.225 236.009 111.716 236.126 111.137 236.126C110.484 236.126 109.887 235.958 109.345 235.622C108.813 235.286 108.389 234.815 108.071 234.208C107.763 233.592 107.609 232.887 107.609 232.094ZM113.713 232.122C113.713 231.646 113.62 231.24 113.433 230.904C113.247 230.559 112.995 230.297 112.677 230.12C112.36 229.933 112.019 229.84 111.655 229.84C111.291 229.84 110.955 229.929 110.647 230.106C110.339 230.283 110.087 230.545 109.891 230.89C109.705 231.226 109.611 231.627 109.611 232.094C109.611 232.561 109.705 232.971 109.891 233.326C110.087 233.671 110.339 233.937 110.647 234.124C110.965 234.311 111.301 234.404 111.655 234.404C112.019 234.404 112.36 234.315 112.677 234.138C112.995 233.951 113.247 233.69 113.433 233.354C113.62 233.009 113.713 232.598 113.713 232.122ZM119.562 229.364C119.814 229.009 120.159 228.715 120.598 228.482C121.046 228.239 121.554 228.118 122.124 228.118C122.786 228.118 123.384 228.281 123.916 228.608C124.457 228.935 124.882 229.401 125.19 230.008C125.507 230.605 125.666 231.301 125.666 232.094C125.666 232.887 125.507 233.592 125.19 234.208C124.882 234.815 124.457 235.286 123.916 235.622C123.384 235.958 122.786 236.126 122.124 236.126C121.554 236.126 121.05 236.009 120.612 235.776C120.182 235.543 119.832 235.249 119.562 234.894V239.696H117.602V228.244H119.562V229.364ZM123.664 232.094C123.664 231.627 123.566 231.226 123.37 230.89C123.183 230.545 122.931 230.283 122.614 230.106C122.306 229.929 121.97 229.84 121.606 229.84C121.251 229.84 120.915 229.933 120.598 230.12C120.29 230.297 120.038 230.559 119.842 230.904C119.655 231.249 119.562 231.655 119.562 232.122C119.562 232.589 119.655 232.995 119.842 233.34C120.038 233.685 120.29 233.951 120.598 234.138C120.915 234.315 121.251 234.404 121.606 234.404C121.97 234.404 122.306 234.311 122.614 234.124C122.931 233.937 123.183 233.671 123.37 233.326C123.566 232.981 123.664 232.57 123.664 232.094ZM129.05 229.364C129.302 229.009 129.647 228.715 130.086 228.482C130.534 228.239 131.043 228.118 131.612 228.118C132.275 228.118 132.872 228.281 133.404 228.608C133.945 228.935 134.37 229.401 134.678 230.008C134.995 230.605 135.154 231.301 135.154 232.094C135.154 232.887 134.995 233.592 134.678 234.208C134.37 234.815 133.945 235.286 133.404 235.622C132.872 235.958 132.275 236.126 131.612 236.126C131.043 236.126 130.539 236.009 130.1 235.776C129.671 235.543 129.321 235.249 129.05 234.894V239.696H127.09V228.244H129.05V229.364ZM133.152 232.094C133.152 231.627 133.054 231.226 132.858 230.89C132.671 230.545 132.419 230.283 132.102 230.106C131.794 229.929 131.458 229.84 131.094 229.84C130.739 229.84 130.403 229.933 130.086 230.12C129.778 230.297 129.526 230.559 129.33 230.904C129.143 231.249 129.05 231.655 129.05 232.122C129.05 232.589 129.143 232.995 129.33 233.34C129.526 233.685 129.778 233.951 130.086 234.138C130.403 234.315 130.739 234.404 131.094 234.404C131.458 234.404 131.794 234.311 132.102 234.124C132.419 233.937 132.671 233.671 132.858 233.326C133.054 232.981 133.152 232.57 133.152 232.094Z" fill="#213359"/>
<defs>
<linearGradient id="paint0_linear_15_5419" x1="4.00148" y1="78.999" x2="180.001" y2="78.999" gradientUnits="userSpaceOnUse">
<stop stop-color="#407CE2"/>
<stop offset="0.9997" stop-color="#223A6A"/>
</linearGradient>
</defs>
</svg>
