<svg width="25" height="24" viewBox="0 0 25 24" fill="none" xmlns="http://www.w3.org/2000/svg">
<g clip-path="url(#clip0_144_138)">
<path d="M12.3335 22C13.4335 22 14.3335 21.1 14.3335 20H10.3335C10.3335 21.1 11.2235 22 12.3335 22ZM18.3335 16V11C18.3335 7.93 16.6935 5.36 13.8335 4.68V4C13.8335 3.17 13.1635 2.5 12.3335 2.5C11.5035 2.5 10.8335 3.17 10.8335 4V4.68C7.96355 5.36 6.33355 7.92 6.33355 11V16L5.04355 17.29C4.41355 17.92 4.85355 19 5.74355 19H18.9135C19.8035 19 20.2535 17.92 19.6235 17.29L18.3335 16Z" fill="#A095C1"/>
</g>
<defs>
<clipPath id="clip0_144_138">
<rect width="24" height="24" fill="white" transform="translate(0.333496)"/>
</clipPath>
</defs>
</svg>
