<svg width="20" height="20" viewBox="0 0 20 20" fill="none" xmlns="http://www.w3.org/2000/svg">
<path d="M12.5458 19.5062L6.75 17.475L1.7125 19.425C1.53194 19.4972 1.35572 19.5199 1.18383 19.4932C1.01194 19.4665 0.854139 19.4076 0.710417 19.3166C0.566694 19.2256 0.454028 19.1039 0.372417 18.9515C0.290805 18.7992 0.25 18.6229 0.25 18.4229V3.22913C0.25 2.9944 0.317889 2.78676 0.453667 2.60621C0.589444 2.42565 0.774333 2.29024 1.00833 2.19996L6.04583 0.493709C6.15417 0.457598 6.26719 0.430515 6.38492 0.412459C6.50264 0.394404 6.62433 0.385376 6.75 0.385376C6.87567 0.385376 6.99772 0.394404 7.11617 0.412459C7.23461 0.430515 7.34728 0.457598 7.45417 0.493709L13.25 2.52496L18.2875 0.574959C18.4681 0.502737 18.6443 0.480348 18.8162 0.507793C18.9881 0.535237 19.1459 0.593737 19.2896 0.683293C19.4333 0.772848 19.5463 0.894904 19.6287 1.04946C19.711 1.20401 19.7514 1.37988 19.75 1.57704V16.7708C19.75 17.0055 19.6825 17.2132 19.5474 17.3937C19.4124 17.5743 19.2271 17.7097 18.9917 17.8L13.9542 19.5062C13.8458 19.5423 13.7332 19.5694 13.6162 19.5875C13.4992 19.6055 13.3771 19.6145 13.25 19.6145C13.1229 19.6145 13.0012 19.6055 12.8849 19.5875C12.7686 19.5694 12.6556 19.5423 12.5458 19.5062ZM12.1667 17.0958V4.42079L7.83333 2.90413V15.5791L12.1667 17.0958ZM14.3333 17.0958L17.5833 16.0125V3.17496L14.3333 4.42079V17.0958ZM2.41667 16.825L5.66667 15.5791V2.90413L2.41667 3.98746V16.825Z" fill="#008000"/>
</svg>
