<svg width="13" height="13" viewBox="0 0 13 13" fill="none" xmlns="http://www.w3.org/2000/svg">
<path d="M9.70598 7.75675C9.56568 7.89271 9.50123 8.08933 9.53318 8.28217L10.0147 10.9472C10.0554 11.173 9.96002 11.4016 9.77098 11.5322C9.58573 11.6676 9.33927 11.6838 9.13723 11.5755L6.73818 10.3242C6.65477 10.2798 6.56214 10.256 6.46735 10.2533H6.32056C6.26964 10.2609 6.21981 10.2771 6.17431 10.302L3.77473 11.5592C3.6561 11.6188 3.52177 11.64 3.39014 11.6188C3.06948 11.5582 2.85552 11.2527 2.90806 10.9304L3.39014 8.26537C3.4221 8.07091 3.35764 7.87321 3.21735 7.73508L1.26139 5.83925C1.09781 5.68054 1.04093 5.44221 1.11568 5.22716C1.18827 5.01266 1.37352 4.85612 1.59723 4.82091L4.28931 4.43037C4.49406 4.40925 4.67389 4.28466 4.76598 4.1005L5.95223 1.66841C5.98039 1.61425 6.01668 1.56441 6.06056 1.52216L6.10931 1.48425C6.13477 1.45608 6.16402 1.43279 6.19652 1.41383L6.25556 1.39216L6.34764 1.35425H6.57568C6.77935 1.37537 6.95864 1.49725 7.05235 1.67925L8.25431 4.1005C8.34098 4.27762 8.50943 4.40058 8.70389 4.43037L11.396 4.82091C11.6235 4.85341 11.8136 5.0105 11.8889 5.22716C11.9599 5.44437 11.8986 5.68271 11.7318 5.83925L9.70598 7.75675Z" fill="#407CE2"/>
</svg>
