<svg width="25" height="24" viewBox="0 0 25 24" fill="none" xmlns="http://www.w3.org/2000/svg">
<g clip-path="url(#clip0_56_1012)">
<path d="M7.03169 18.1027L9.7426 17.2122C10.2307 17.0518 10.7559 17.3295 10.8851 17.8173C10.9647 18.118 11.0535 18.4352 11.1526 18.7708C11.4831 19.8886 10.8516 21.0622 9.72448 21.4325L9.66339 21.4526C8.56083 21.8148 7.35953 21.2834 6.90918 20.2338C6.78078 19.9345 6.64128 19.608 6.49397 19.2613C6.29607 18.7956 6.54321 18.2632 7.03169 18.1027Z" stroke="#D2B47D" stroke-width="1.5" stroke-miterlimit="10" stroke-linecap="round" stroke-linejoin="round"/>
<path d="M9.52058 9.01658C9.87185 10.8397 9.72309 11.8768 9.7808 13.3264C9.7962 13.7135 9.55099 14.0648 9.17576 14.1881L5.52597 15.3871C5.07746 15.5344 4.5898 15.3117 4.41639 14.8808C3.8694 13.522 3.35726 12.1954 3.00161 11.1581C1.78341 7.60489 2.79865 5.26985 4.81176 4.60853C6.8249 3.9472 8.90585 5.82632 9.52058 9.01658Z" stroke="#D2B47D" stroke-width="1.5" stroke-miterlimit="10" stroke-linecap="round" stroke-linejoin="round"/>
<path d="M19.069 15.6263L16.358 14.7357C15.87 14.5754 15.3447 14.853 15.2156 15.3409C15.136 15.6416 15.0471 15.9588 14.948 16.2944C14.6176 17.4121 15.249 18.5858 16.3762 18.9561L16.4373 18.9761C17.5398 19.3383 18.7411 18.807 19.1915 17.7573C19.3199 17.458 19.4594 17.1316 19.6067 16.7849C19.8046 16.3192 19.5574 15.7868 19.069 15.6263Z" stroke="#D2B47D" stroke-width="1.5" stroke-miterlimit="10" stroke-linecap="round" stroke-linejoin="round"/>
<path d="M16.58 6.54005C16.2287 8.36316 16.3775 9.40025 16.3198 10.8498C16.3044 11.237 16.5496 11.5883 16.9248 11.7115L20.5746 12.9105C21.0231 13.0579 21.5108 12.8352 21.6842 12.4043C22.2312 11.0454 22.7433 9.71888 23.099 8.68158C24.3172 5.12831 23.302 2.79331 21.2888 2.13195C19.2757 1.47066 17.1947 3.34983 16.58 6.54005Z" stroke="#D2B47D" stroke-width="1.5" stroke-miterlimit="10" stroke-linecap="round" stroke-linejoin="round"/>
</g>
<defs>
<clipPath id="clip0_56_1012">
<rect width="24.518" height="24" fill="white" transform="translate(0.431641)"/>
</clipPath>
</defs>
</svg>
