<svg width="93" height="93" viewBox="0 0 93 93" fill="none" xmlns="http://www.w3.org/2000/svg">
<path d="M38.7501 7.75L29.4501 20.925C32.5501 20.15 35.6501 19.375 38.7501 19.375C41.8501 19.375 44.9501 20.15 48.0501 20.925M73.6251 19.375C69.3239 19.375 65.8751 22.8237 65.8751 27.125V53.32C63.3951 55.5288 62.0001 58.7062 62.0001 62C62.0001 68.4325 67.1926 73.625 73.6251 73.625C80.0576 73.625 85.2501 68.4325 85.2501 62C85.2501 58.7062 83.8551 55.5288 81.3751 53.3588V27.125C81.3751 22.8237 77.9264 19.375 73.6251 19.375ZM73.6251 23.25C75.7564 23.25 77.5001 24.9937 77.5001 27.125V31H69.7501V27.125C69.7501 24.9937 71.4939 23.25 73.6251 23.25ZM21.3126 25.9625L5.0376 27.125L12.0126 41.85C12.4001 38.75 13.5626 35.65 15.1126 32.9375C17.0501 30.225 18.9876 27.9 21.3126 25.9625ZM38.7501 27.125C27.9001 27.125 19.3751 35.65 19.3751 46.5C19.3751 57.35 27.9001 65.875 38.7501 65.875C49.6001 65.875 58.1251 57.35 58.1251 46.5C58.1251 35.65 49.6001 27.125 38.7501 27.125ZM12.4001 51.15L5.4251 65.875L21.3126 67.425C19.3751 65.4875 17.0501 62.775 15.5001 60.0625C13.5626 57.35 12.7876 54.25 12.4001 51.15ZM29.4501 72.075L38.7501 85.25L48.0501 72.075C44.9501 72.85 41.8501 73.625 38.7501 73.625C35.2626 73.625 32.1626 72.85 29.4501 72.075Z" fill="#9C4A6B"/>
</svg>
