<svg width="24" height="24" viewBox="0 0 24 24" fill="none" xmlns="http://www.w3.org/2000/svg">
<path fill-rule="evenodd" clip-rule="evenodd" d="M9 6C9 5.20435 9.31607 4.44129 9.87868 3.87868C10.4413 3.31607 11.2044 3 12 3C12.7957 3 13.5587 3.31607 14.1213 3.87868C14.6839 4.44129 15 5.20435 15 6V11.5C15 11.815 15.152 12.106 15.384 12.319C16.1252 13.0004 16.6434 13.8897 16.8708 14.8705C17.0982 15.8512 17.0242 16.8778 16.6586 17.8159C16.2929 18.7539 15.6525 19.5597 14.8213 20.1278C13.9901 20.6959 13.0068 20.9998 12 20.9998C10.9932 20.9998 10.0099 20.6959 9.17866 20.1278C8.34746 19.5597 7.70712 18.7539 7.34145 17.8159C6.97578 16.8778 6.90181 15.8512 7.12922 14.8705C7.35663 13.8897 7.87483 13.0004 8.616 12.319C8.848 12.106 9 11.815 9 11.5V6ZM12 18C12.5304 18 13.0391 17.7893 13.4142 17.4142C13.7893 17.0391 14 16.5304 14 16C14 15.4696 13.7893 14.9609 13.4142 14.5858C13.0391 14.2107 12.5304 14 12 14C11.4696 14 10.9609 14.2107 10.5858 14.5858C10.2107 14.9609 10 15.4696 10 16C10 16.5304 10.2107 17.0391 10.5858 17.4142C10.9609 17.7893 11.4696 18 12 18Z" fill="black" fill-opacity="0.25"/>
<path d="M12 2.40002C11.0452 2.40002 10.1296 2.77931 9.45444 3.45444C8.77931 4.12957 8.40002 5.04524 8.40002 6.00002H9.60002C9.60002 5.3635 9.85288 4.75306 10.303 4.30297C10.7531 3.85288 11.3635 3.60002 12 3.60002V2.40002ZM15.6 6.00002C15.6 5.04524 15.2207 4.12957 14.5456 3.45444C13.8705 2.77931 12.9548 2.40002 12 2.40002V3.60002C12.6365 3.60002 13.247 3.85288 13.6971 4.30297C14.1472 4.75306 14.4 5.3635 14.4 6.00002H15.6ZM15.6 11.5V6.00002H14.4V11.5H15.6ZM15.79 11.877C15.7342 11.8306 15.6886 11.7731 15.6559 11.7083C15.6232 11.6434 15.6042 11.5725 15.6 11.5H14.4C14.4 12.013 14.647 12.457 14.978 12.76L15.79 11.877ZM17.6 16C17.6 14.369 16.902 12.9 15.79 11.877L14.978 12.76C15.4263 13.1721 15.7841 13.6738 16.0289 14.2313C16.2736 14.7889 16.4 15.3911 16.4 16H17.6ZM12 21.6C12.7354 21.6 13.4636 21.4552 14.1431 21.1737C14.8225 20.8923 15.4398 20.4798 15.9598 19.9598C16.4798 19.4398 16.8923 18.8225 17.1737 18.1431C17.4552 17.4636 17.6 16.7354 17.6 16H16.4C16.4 17.167 15.9365 18.2861 15.1113 19.1113C14.2861 19.9365 13.167 20.4 12 20.4V21.6ZM6.40002 16C6.40002 16.7354 6.54487 17.4636 6.8263 18.1431C7.10773 18.8225 7.52022 19.4398 8.04023 19.9598C9.09043 21.01 10.5148 21.6 12 21.6V20.4C10.8331 20.4 9.71391 19.9365 8.88875 19.1113C8.06359 18.2861 7.60002 17.167 7.60002 16H6.40002ZM8.21002 11.877C7.63943 12.4016 7.18393 13.0389 6.87237 13.7486C6.56081 14.4583 6.39997 15.2249 6.40002 16H7.60002C7.60002 14.719 8.14702 13.567 9.02202 12.761L8.21002 11.877ZM8.40002 11.5C8.39587 11.5725 8.37687 11.6434 8.34418 11.7083C8.3115 11.7731 8.26583 11.8306 8.21002 11.877L9.02202 12.761C9.35302 12.457 9.60002 12.013 9.60002 11.501L8.40002 11.5ZM8.40002 6.00002V11.5L9.60002 11.501V6.00002H8.40002ZM13.4 16C13.4 16.3713 13.2525 16.7274 12.99 16.99C12.7274 17.2525 12.3713 17.4 12 17.4V18.6C12.6896 18.6 13.3509 18.3261 13.8385 17.8385C14.3261 17.3509 14.6 16.6896 14.6 16H13.4ZM12 14.6C12.3713 14.6 12.7274 14.7475 12.99 15.0101C13.2525 15.2726 13.4 15.6287 13.4 16H14.6C14.6 15.3105 14.3261 14.6491 13.8385 14.1615C13.3509 13.674 12.6896 13.4 12 13.4V14.6ZM10.6 16C10.6 15.6287 10.7475 15.2726 11.0101 15.0101C11.2726 14.7475 11.6287 14.6 12 14.6V13.4C11.3105 13.4 10.6491 13.674 10.1615 14.1615C9.67395 14.6491 9.40002 15.3105 9.40002 16H10.6ZM12 17.4C11.6287 17.4 11.2726 17.2525 11.0101 16.99C10.7475 16.7274 10.6 16.3713 10.6 16H9.40002C9.40002 16.6896 9.67395 17.3509 10.1615 17.8385C10.6491 18.3261 11.3105 18.6 12 18.6V17.4Z" fill="black"/>
</svg>
