<svg width="24" height="24" viewBox="0 0 24 24" fill="none" xmlns="http://www.w3.org/2000/svg">
  <path d="M12 22C15.3137 22 18 19.3137 18 16C18 13.6483 16.5544 11.6424 14.5 10.8274V4C14.5 2.61929 13.3807 1.5 12 1.5C10.6193 1.5 9.5 2.61929 9.5 4V10.8274C7.44555 11.6424 6 13.6483 6 16C6 19.3137 8.68629 22 12 22Z" stroke="currentColor" stroke-width="1.5"/>
  <path d="M12 18.5C13.3807 18.5 14.5 17.3807 14.5 16C14.5 14.6193 13.3807 13.5 12 13.5C10.6193 13.5 9.5 14.6193 9.5 16C9.5 17.3807 10.6193 18.5 12 18.5Z" fill="currentColor"/>
</svg> 