<svg width="612" height="736" viewBox="0 0 612 736" fill="none" xmlns="http://www.w3.org/2000/svg">
<path d="M598.391 200.661C598.391 104.158 537.104 0 438.094 0C368.57 0 326.427 41.3429 305.696 69.7166C284.964 41.3361 242.821 0 173.298 0C74.2877 0 13 104.158 13 200.661C13 314.71 104.268 409.92 202.895 495.828C206.124 498.646 209.97 500.007 213.786 500.007C219.015 500.007 224.189 497.442 227.671 492.538C233.69 484.056 232.363 471.764 224.701 465.094C133.075 385.288 48.2897 298.019 48.2897 200.661C48.2897 135.507 88.0184 39.0993 173.298 39.0993C254.669 39.0993 288.557 110.293 289.921 113.255C292.903 119.836 298.991 123.96 305.634 123.995C305.659 123.995 305.683 123.995 305.714 123.995C312.333 123.995 318.408 119.856 321.433 113.331C322.834 110.3 356.729 39.1062 438.1 39.1062C523.379 39.1062 563.108 135.514 563.108 200.668C563.108 276.664 513.26 353.228 396.556 456.434C364.785 482.674 335.207 492.374 315.506 482.428C297.447 473.303 287.088 446.961 287.088 410.146V328.486C287.088 317.692 279.185 308.936 269.443 308.936H213.384V267.703H269.443C279.185 267.703 287.088 258.947 287.088 248.153V186.036H324.31V248.153C324.31 258.947 332.206 267.703 341.955 267.703H398.013V308.936H341.955C332.212 308.936 324.31 317.692 324.31 328.486V410.146C324.31 420.94 332.206 429.696 341.955 429.696C351.697 429.696 359.599 420.94 359.599 410.146V348.029H415.658C425.4 348.029 433.303 339.273 433.303 328.479V248.146C433.303 237.352 425.4 228.597 415.658 228.597H359.599V166.48C359.599 155.686 351.697 146.93 341.955 146.93H269.443C259.701 146.93 251.798 155.686 251.798 166.48V228.597H195.74C185.997 228.597 178.095 237.352 178.095 248.146V328.479C178.095 339.273 185.997 348.029 195.74 348.029H251.798V410.146C251.798 462.933 269.684 502.244 300.862 517.997C310.826 523.032 321.575 525.522 332.935 525.522C358.358 525.522 386.851 513.024 416.436 488.775C416.646 488.611 416.874 488.502 417.078 488.317C417.467 487.975 417.856 487.626 418.245 487.277C423.067 483.255 427.913 478.939 432.784 474.295C520.718 394.858 598.391 306.638 598.391 200.661Z" fill="url(#paint0_linear_15_5736)"/>
<path d="M109.333 676.645H129.573V686.413H97.0134V624.989H109.333V676.645ZM143.652 631.853C141.481 631.853 139.663 631.178 138.196 629.829C136.788 628.421 136.084 626.69 136.084 624.637C136.084 622.584 136.788 620.882 138.196 619.533C139.663 618.125 141.481 617.421 143.652 617.421C145.823 617.421 147.612 618.125 149.02 619.533C150.487 620.882 151.22 622.584 151.22 624.637C151.22 626.69 150.487 628.421 149.02 629.829C147.612 631.178 145.823 631.853 143.652 631.853ZM149.724 637.661V686.413H137.404V637.661H149.724ZM184.248 647.781H175.712V686.413H163.216V647.781H157.672V637.661H163.216V635.197C163.216 629.213 164.918 624.813 168.32 621.997C171.723 619.181 176.856 617.861 183.72 618.037V628.421C180.728 628.362 178.646 628.861 177.472 629.917C176.299 630.973 175.712 632.88 175.712 635.637V637.661H184.248V647.781ZM237.552 660.981C237.552 662.741 237.435 664.325 237.2 665.733H201.56C201.853 669.253 203.085 672.01 205.256 674.005C207.427 676 210.096 676.997 213.264 676.997C217.84 676.997 221.096 675.032 223.032 671.101H236.32C234.912 675.794 232.213 679.666 228.224 682.717C224.235 685.709 219.336 687.205 213.528 687.205C208.835 687.205 204.611 686.178 200.856 684.125C197.16 682.013 194.256 679.05 192.144 675.237C190.091 671.424 189.064 667.024 189.064 662.037C189.064 656.992 190.091 652.562 192.144 648.749C194.197 644.936 197.072 642.002 200.768 639.949C204.464 637.896 208.717 636.869 213.528 636.869C218.163 636.869 222.299 637.866 225.936 639.861C229.632 641.856 232.477 644.701 234.472 648.397C236.525 652.034 237.552 656.229 237.552 660.981ZM224.792 657.461C224.733 654.293 223.589 651.77 221.36 649.893C219.131 647.957 216.403 646.989 213.176 646.989C210.125 646.989 207.544 647.928 205.432 649.805C203.379 651.624 202.117 654.176 201.648 657.461H224.792ZM289.313 643.469C287.905 640.888 285.969 638.922 283.505 637.573C281.041 636.224 278.166 635.549 274.881 635.549C271.243 635.549 268.017 636.37 265.201 638.013C262.385 639.656 260.185 642.002 258.601 645.053C257.017 648.104 256.225 651.624 256.225 655.613C256.225 659.72 257.017 663.298 258.601 666.349C260.243 669.4 262.502 671.746 265.377 673.389C268.251 675.032 271.595 675.853 275.409 675.853C280.102 675.853 283.945 674.621 286.937 672.157C289.929 669.634 291.894 666.144 292.833 661.685H271.713V652.269H304.977V663.005C304.155 667.288 302.395 671.248 299.697 674.885C296.998 678.522 293.507 681.456 289.225 683.685C285.001 685.856 280.249 686.941 274.969 686.941C269.043 686.941 263.675 685.621 258.865 682.981C254.113 680.282 250.358 676.557 247.601 671.805C244.902 667.053 243.553 661.656 243.553 655.613C243.553 649.57 244.902 644.173 247.601 639.421C250.358 634.61 254.113 630.885 258.865 628.245C263.675 625.546 269.014 624.197 274.881 624.197C281.803 624.197 287.817 625.898 292.921 629.301C298.025 632.645 301.545 637.368 303.481 643.469H289.313ZM360.116 637.661V686.413H347.708V680.253C346.124 682.365 344.041 684.037 341.46 685.269C338.937 686.442 336.18 687.029 333.188 687.029C329.374 687.029 326.001 686.237 323.068 684.653C320.134 683.01 317.817 680.634 316.116 677.525C314.473 674.357 313.652 670.602 313.652 666.261V637.661H325.972V664.501C325.972 668.373 326.94 671.365 328.876 673.477C330.812 675.53 333.452 676.557 336.796 676.557C340.198 676.557 342.868 675.53 344.804 673.477C346.74 671.365 347.708 668.373 347.708 664.501V637.661H360.116ZM369.103 661.861C369.103 656.933 370.071 652.562 372.007 648.749C374.002 644.936 376.671 642.002 380.015 639.949C383.418 637.896 387.202 636.869 391.367 636.869C395.005 636.869 398.173 637.602 400.871 639.069C403.629 640.536 405.829 642.384 407.471 644.613V637.661H419.879V686.413H407.471V679.285C405.887 681.573 403.687 683.48 400.871 685.005C398.114 686.472 394.917 687.205 391.279 687.205C387.173 687.205 383.418 686.149 380.015 684.037C376.671 681.925 374.002 678.962 372.007 675.149C370.071 671.277 369.103 666.848 369.103 661.861ZM407.471 662.037C407.471 659.045 406.885 656.493 405.711 654.381C404.538 652.21 402.954 650.568 400.959 649.453C398.965 648.28 396.823 647.693 394.535 647.693C392.247 647.693 390.135 648.25 388.199 649.365C386.263 650.48 384.679 652.122 383.447 654.293C382.274 656.405 381.687 658.928 381.687 661.861C381.687 664.794 382.274 667.376 383.447 669.605C384.679 671.776 386.263 673.448 388.199 674.621C390.194 675.794 392.306 676.381 394.535 676.381C396.823 676.381 398.965 675.824 400.959 674.709C402.954 673.536 404.538 671.893 405.711 669.781C406.885 667.61 407.471 665.029 407.471 662.037ZM444.232 645.229C445.816 642.648 447.869 640.624 450.392 639.157C452.973 637.69 455.907 636.957 459.192 636.957V649.893H455.936C452.064 649.893 449.131 650.802 447.136 652.621C445.2 654.44 444.232 657.608 444.232 662.125V686.413H431.912V637.661H444.232V645.229ZM464.322 661.861C464.322 656.933 465.29 652.562 467.226 648.749C469.221 644.936 471.919 642.002 475.322 639.949C478.725 637.896 482.509 636.869 486.674 636.869C489.842 636.869 492.863 637.573 495.738 638.981C498.613 640.33 500.901 642.149 502.602 644.437V621.293H515.098V686.413H502.602V679.197C501.077 681.602 498.935 683.538 496.178 685.005C493.421 686.472 490.223 687.205 486.586 687.205C482.479 687.205 478.725 686.149 475.322 684.037C471.919 681.925 469.221 678.962 467.226 675.149C465.29 671.277 464.322 666.848 464.322 661.861ZM502.69 662.037C502.69 659.045 502.103 656.493 500.93 654.381C499.757 652.21 498.173 650.568 496.178 649.453C494.183 648.28 492.042 647.693 489.754 647.693C487.466 647.693 485.354 648.25 483.418 649.365C481.482 650.48 479.898 652.122 478.666 654.293C477.493 656.405 476.906 658.928 476.906 661.861C476.906 664.794 477.493 667.376 478.666 669.605C479.898 671.776 481.482 673.448 483.418 674.621C485.413 675.794 487.525 676.381 489.754 676.381C492.042 676.381 494.183 675.824 496.178 674.709C498.173 673.536 499.757 671.893 500.93 669.781C502.103 667.61 502.69 665.029 502.69 662.037Z" fill="#223A6A"/>
<defs>
<linearGradient id="paint0_linear_15_5736" x1="13.0049" y1="262.757" x2="598.394" y2="262.757" gradientUnits="userSpaceOnUse">
<stop stop-color="#407CE2"/>
<stop offset="0.9997" stop-color="#223A6A"/>
</linearGradient>
</defs>
</svg>
