<svg width="586" height="526" viewBox="0 0 586 526" fill="none" xmlns="http://www.w3.org/2000/svg">
<path d="M585.391 200.661C585.391 104.158 524.104 0 425.094 0C355.57 0 313.427 41.3429 292.696 69.7166C271.964 41.3361 229.821 0 160.298 0C61.2877 0 0 104.158 0 200.661C0 314.71 91.2679 409.92 189.895 495.828C193.124 498.646 196.97 500.007 200.786 500.007C206.015 500.007 211.189 497.442 214.671 492.538C220.69 484.056 219.363 471.764 211.701 465.094C120.075 385.288 35.2897 298.019 35.2897 200.661C35.2897 135.507 75.0184 39.0993 160.298 39.0993C241.669 39.0993 275.557 110.293 276.921 113.255C279.903 119.836 285.991 123.96 292.634 123.995C292.659 123.995 292.683 123.995 292.714 123.995C299.333 123.995 305.408 119.856 308.433 113.331C309.834 110.3 343.729 39.1062 425.1 39.1062C510.379 39.1062 550.108 135.514 550.108 200.668C550.108 276.664 500.26 353.228 383.556 456.434C351.785 482.674 322.207 492.374 302.506 482.428C284.447 473.303 274.088 446.961 274.088 410.146V328.486C274.088 317.692 266.185 308.936 256.443 308.936H200.384V267.703H256.443C266.185 267.703 274.088 258.947 274.088 248.153V186.036H311.31V248.153C311.31 258.947 319.206 267.703 328.955 267.703H385.013V308.936H328.955C319.212 308.936 311.31 317.692 311.31 328.486V410.146C311.31 420.94 319.206 429.696 328.955 429.696C338.697 429.696 346.599 420.94 346.599 410.146V348.029H402.658C412.4 348.029 420.303 339.273 420.303 328.479V248.146C420.303 237.352 412.4 228.597 402.658 228.597H346.599V166.48C346.599 155.686 338.697 146.93 328.955 146.93H256.443C246.701 146.93 238.798 155.686 238.798 166.48V228.597H182.74C172.997 228.597 165.095 237.352 165.095 248.146V328.479C165.095 339.273 172.997 348.029 182.74 348.029H238.798V410.146C238.798 462.933 256.684 502.244 287.862 517.997C297.826 523.032 308.575 525.522 319.935 525.522C345.358 525.522 373.851 513.024 403.436 488.775C403.646 488.611 403.874 488.502 404.078 488.317C404.467 487.975 404.856 487.626 405.245 487.277C410.067 483.255 414.913 478.939 419.784 474.295C507.718 394.858 585.391 306.638 585.391 200.661Z" fill="url(#paint0_linear_15_5737)"/>
<defs>
<linearGradient id="paint0_linear_15_5737" x1="0.00493907" y1="262.757" x2="585.394" y2="262.757" gradientUnits="userSpaceOnUse">
<stop stop-color="#407CE2"/>
<stop offset="0.9997" stop-color="#223A6A"/>
</linearGradient>
</defs>
</svg>
