<svg width="20" height="20" viewBox="0 0 20 20" fill="none" xmlns="http://www.w3.org/2000/svg">
<path d="M13.7283 4.50652L15.4933 6.27069L13.7283 4.50652ZM14.8633 2.95236L10.0908 7.72486C9.8442 7.9711 9.67602 8.28484 9.60746 8.62652L9.16663 10.8332L11.3733 10.3915C11.715 10.3232 12.0283 10.1557 12.275 9.90902L17.0475 5.13652C17.1909 4.99311 17.3046 4.82285 17.3823 4.63547C17.4599 4.44809 17.4998 4.24726 17.4998 4.04444C17.4998 3.84162 17.4599 3.64079 17.3823 3.45341C17.3046 3.26603 17.1909 3.09577 17.0475 2.95236C16.904 2.80894 16.7338 2.69518 16.5464 2.61756C16.359 2.53995 16.1582 2.5 15.9554 2.5C15.7526 2.5 15.5517 2.53995 15.3643 2.61756C15.177 2.69518 15.0067 2.80894 14.8633 2.95236V2.95236Z" stroke="white" stroke-width="2" stroke-linecap="round" stroke-linejoin="round"/>
<path d="M15.8334 12.4998V14.9998C15.8334 15.4419 15.6578 15.8658 15.3452 16.1783C15.0327 16.4909 14.6087 16.6665 14.1667 16.6665H5.00004C4.55801 16.6665 4.13409 16.4909 3.82153 16.1783C3.50897 15.8658 3.33337 15.4419 3.33337 14.9998V5.83317C3.33337 5.39114 3.50897 4.96722 3.82153 4.65466C4.13409 4.3421 4.55801 4.1665 5.00004 4.1665H7.50004" stroke="white" stroke-width="2" stroke-linecap="round" stroke-linejoin="round"/>
</svg>
