<svg width="20" height="20" viewBox="0 0 20 20" fill="none" xmlns="http://www.w3.org/2000/svg">
<path d="M18.3333 15.8333V7.5C18.3333 7.05797 18.1577 6.63405 17.8451 6.32149C17.5326 6.00893 17.1087 5.83333 16.6666 5.83333H11.03C10.7204 5.83332 10.4169 5.74709 10.1536 5.5843C9.89028 5.42151 9.67751 5.18859 9.53913 4.91167L8.79413 3.42167C8.65568 3.14461 8.44278 2.91162 8.17929 2.74882C7.91581 2.58602 7.61218 2.49986 7.30246 2.5H3.33329C2.89127 2.5 2.46734 2.67559 2.15478 2.98816C1.84222 3.30072 1.66663 3.72464 1.66663 4.16667V15.8333C1.66663 16.2754 1.84222 16.6993 2.15478 17.0118C2.46734 17.3244 2.89127 17.5 3.33329 17.5H16.6666C17.1087 17.5 17.5326 17.3244 17.8451 17.0118C18.1577 16.6993 18.3333 16.2754 18.3333 15.8333Z" stroke="#202020" stroke-width="2" stroke-linecap="round" stroke-linejoin="round"/>
</svg>
