<svg width="19" height="19" viewBox="0 0 19 19" fill="none" xmlns="http://www.w3.org/2000/svg">
<path d="M8.76692 2.08462C9.02025 1.41645 9.97896 1.41645 10.2331 2.08462L11.8718 6.62404C11.9866 6.92487 12.2787 7.12516 12.6049 7.12516H16.6321C17.3763 7.12516 17.7009 8.05141 17.1158 8.50504L14.25 11.0835C14.1216 11.1822 14.0278 11.319 13.982 11.4743C13.9362 11.6296 13.9408 11.7954 13.9951 11.948L15.0417 16.3837C15.2966 17.0962 14.4717 17.7082 13.8478 17.2696L9.95521 14.7996C9.8219 14.7059 9.66293 14.6556 9.5 14.6556C9.33706 14.6556 9.1781 14.7059 9.04479 14.7996L5.15217 17.2696C4.52912 17.7082 3.70342 17.0954 3.95833 16.3837L5.00492 11.948C5.05921 11.7954 5.06378 11.6296 5.01799 11.4743C4.97219 11.319 4.87837 11.1822 4.75 11.0835L1.88417 8.50504C1.29833 8.05141 1.6245 7.12516 2.36708 7.12516H6.39429C6.55286 7.12569 6.70784 7.07806 6.83875 6.98858C6.96965 6.89909 7.0703 6.77197 7.12738 6.62404L8.76612 2.08462H8.76692Z" stroke="white" stroke-width="2" stroke-linecap="round" stroke-linejoin="round"/>
</svg>
