<svg width="24" height="24" viewBox="0 0 24 24" fill="none" xmlns="http://www.w3.org/2000/svg">
<path d="M23.9881 12.0999C24.0641 13.2638 23.7791 14.554 23.3141 15.8105C23.0085 16.6352 22.5248 16.8183 21.752 16.3973C20.9643 15.9682 20.1964 15.504 19.41 15.0724C18.863 14.7721 18.6705 14.3585 18.8346 13.7487C19.2893 12.0591 19.1865 10.4018 18.4361 8.81064C17.5253 6.87972 15.997 5.64044 13.9556 5.01155C12.9665 4.70663 12.8111 4.51729 12.8035 3.47996C12.7984 2.77866 12.7998 2.07709 12.8035 1.37579C12.8092 0.171112 13.2602 -0.179673 14.4661 0.0812698C19.2214 1.10546 23.0196 5.05392 23.8508 9.81847C23.9718 10.5155 23.9845 11.2128 23.9881 12.0999Z" fill="#F7941D"/>
<path d="M11.198 2.4883C11.198 2.94439 11.2028 3.40047 11.198 3.85494C11.1915 4.42022 10.9241 4.76147 10.3579 4.91601C6.86321 5.86922 4.74655 8.78547 4.92083 12.3853C4.94403 12.8618 5.05841 13.3243 5.20059 13.7769C5.37729 14.3403 5.17172 14.7379 4.68154 15.0199C3.87221 15.4853 3.06693 15.9588 2.24951 16.4098C1.52112 16.8123 1.01178 16.6285 0.733645 15.8271C-0.262366 12.9565 -0.287185 10.088 0.924376 7.27127C2.45077 3.72187 5.11129 1.41168 8.81908 0.290521C9.18301 0.180525 9.56043 0.112916 9.93379 0.0367238C10.6746 -0.11432 11.106 0.202524 11.1909 0.951036C11.1953 0.988802 11.1974 1.02678 11.1974 1.06479C11.1974 1.53947 11.1976 2.01398 11.198 2.4883Z" fill="#F7941D"/>
<path d="M16.6732 12.1454C16.6732 13.0544 16.6813 13.9637 16.6705 14.8727C16.663 15.509 16.3446 15.8724 15.8307 15.8705C15.3168 15.8687 15.0027 15.5084 15.0011 14.8735C14.9957 13.0174 14.9957 11.1612 15.0011 9.30508C15.0032 8.70076 15.3602 8.30592 15.857 8.32175C16.3218 8.33623 16.6617 8.72838 16.6692 9.30454C16.6818 10.2514 16.6729 11.1985 16.6732 12.1454Z" fill="#F7941D"/>
<path d="M12.6979 12.6033C12.6979 13.3812 12.7059 14.1575 12.6955 14.9345C12.6877 15.5246 12.3637 15.8733 11.8615 15.8693C11.383 15.8642 11.0421 15.5284 11.0365 14.9723C11.0204 13.3614 11.0204 11.7504 11.0365 10.1394C11.0416 9.58415 11.4388 9.20058 11.9133 9.22258C12.3782 9.24296 12.6885 9.5981 12.6963 10.1582C12.7062 10.973 12.6979 11.7882 12.6979 12.6033Z" fill="#F7941D"/>
<path d="M8.79852 13.0177C8.79852 13.6242 8.81167 14.2309 8.79557 14.8368C8.77787 15.4948 8.43186 15.8829 7.91043 15.8687C7.41045 15.8564 7.07302 15.4787 7.06524 14.8535C7.04987 13.6217 7.04987 12.39 7.06524 11.1583C7.07329 10.5022 7.4303 10.1122 7.95039 10.1243C8.45278 10.1369 8.77733 10.5087 8.79557 11.1417C8.81247 11.7667 8.79825 12.3924 8.79852 13.0177Z" fill="#F7941D"/>
<path d="M11.8741 24C8.16081 23.9093 5.06727 22.654 2.72197 19.8181C2.1221 19.0929 2.22351 18.6674 3.04391 18.1852C3.79375 17.744 4.54386 17.3025 5.30202 16.8754C5.9797 16.4935 6.28044 16.5071 6.80707 17.0832C8.7309 19.1879 12.2338 19.7444 15.0596 18.4074C15.6997 18.1043 16.2462 17.6697 16.7498 17.1804C17.4672 16.4829 17.6303 16.4619 18.5239 16.9771C19.2287 17.3834 19.9343 17.7882 20.6342 18.2012C21.3937 18.6512 21.5008 19.1246 20.9309 19.8119C19.1106 22.0079 16.7672 23.3196 13.9479 23.8124C13.2345 23.9386 12.5139 23.9386 11.8741 24Z" fill="#F7941D"/>
</svg>
