<svg width="18" height="29" viewBox="0 0 18 29" fill="none" xmlns="http://www.w3.org/2000/svg">
<path fill-rule="evenodd" clip-rule="evenodd" d="M1.34843 8.62163C0.691679 8.62163 0.159805 8.07356 0.261555 7.42606C0.897492 3.4925 3.89449 0.625 9.0953 0.625C14.2984 0.625 17.8065 3.77 17.8065 8.05969C17.8065 11.1677 16.2687 13.3507 13.6671 14.9347C11.1234 16.4587 10.3972 17.5201 10.3972 19.5829V19.6522C10.3972 19.9589 10.2754 20.253 10.0586 20.4698C9.84175 20.6867 9.54765 20.8085 9.24099 20.8085H7.46037C7.1557 20.8085 6.86335 20.6883 6.64684 20.4739C6.43033 20.2596 6.30716 19.9685 6.30412 19.6638L6.29718 19.2013C6.19774 16.3778 7.40024 14.574 10.1012 12.9298C12.4831 11.4683 13.3318 10.3051 13.3318 8.24006C13.3318 5.97613 11.5789 4.31344 8.87793 4.31344C6.54462 4.31344 4.92356 5.53675 4.39631 7.55556C4.24368 8.14294 3.75343 8.62163 3.14755 8.62163H1.35074H1.34843ZM8.33449 28.375C9.77287 28.375 10.8667 27.2789 10.8667 25.8544C10.8667 24.4252 9.77287 23.3291 8.33449 23.3291C6.93312 23.3291 5.8208 24.4253 5.8208 25.8521C5.8208 27.2789 6.93312 28.375 8.33449 28.375Z" fill="#188380"/>
</svg>
