<svg width="16" height="13" viewBox="0 0 16 13" fill="none" xmlns="http://www.w3.org/2000/svg">
<path d="M13.3391 0.400681C13.6121 0.140841 13.9753 -0.00280962 14.3521 4.16472e-05C14.7289 0.00289291 15.0899 0.152023 15.3589 0.415963C15.6278 0.679904 15.7837 1.03801 15.7937 1.41472C15.8037 1.79143 15.6669 2.15727 15.4122 2.43506L7.68162 12.1032C7.54869 12.2464 7.38825 12.3613 7.2099 12.441C7.03155 12.5208 6.83895 12.5637 6.64361 12.5674C6.44827 12.571 6.25421 12.5352 6.07303 12.4621C5.89184 12.389 5.72726 12.2801 5.58912 12.1419L0.462497 7.0153C0.319729 6.88227 0.205219 6.72185 0.125797 6.5436C0.0463751 6.36535 0.00366866 6.17293 0.000226145 5.97782C-0.00321637 5.78271 0.0326756 5.5889 0.10576 5.40796C0.178844 5.22702 0.287625 5.06265 0.425611 4.92467C0.563597 4.78668 0.727963 4.6779 0.908902 4.60482C1.08984 4.53173 1.28365 4.49584 1.47876 4.49928C1.67387 4.50273 1.86629 4.54543 2.04454 4.62485C2.22279 4.70428 2.38321 4.81879 2.51625 4.96156L6.57337 9.01674L13.3023 0.443306C13.3144 0.428389 13.3274 0.414158 13.3411 0.400681H13.3391Z" fill="white"/>
</svg>
