<svg width="15" height="17" viewBox="0 0 15 17" fill="none" xmlns="http://www.w3.org/2000/svg">
<path d="M14.2394 16.0161C13.8906 16.3649 13.4175 16.5608 12.9242 16.5608C12.4309 16.5608 11.9578 16.3649 11.609 16.0161L7.49998 11.3196L3.39093 16.0145C3.21873 16.1895 3.01358 16.3287 2.78731 16.4241C2.56105 16.5194 2.31815 16.569 2.07261 16.57C1.82708 16.571 1.58378 16.5234 1.35675 16.4299C1.12972 16.3364 0.923441 16.1989 0.749822 16.0253C0.576204 15.8516 0.438679 15.6454 0.34518 15.4183C0.25168 15.1913 0.204057 14.948 0.205057 14.7025C0.206056 14.4569 0.255659 14.214 0.351005 13.9878C0.44635 13.7615 0.585551 13.5564 0.760577 13.3842L5.03548 8.50166L0.759027 3.61606C0.584001 3.44386 0.4448 3.23871 0.349455 3.01245C0.254109 2.78618 0.204506 2.54328 0.203507 2.29775C0.202507 2.05222 0.25013 1.80892 0.34363 1.58188C0.437129 1.35485 0.574654 1.14858 0.748273 0.974957C0.921891 0.801339 1.12817 0.663814 1.3552 0.570314C1.58223 0.476815 1.82553 0.429191 2.07106 0.430191C2.3166 0.431191 2.5595 0.480794 2.78576 0.576139C3.01203 0.671485 3.21718 0.810685 3.38938 0.985712L7.49998 5.68376L11.609 0.985712C11.7812 0.810685 11.9864 0.671485 12.2126 0.576139C12.4389 0.480794 12.6818 0.431191 12.9273 0.430191C13.1729 0.429191 13.4162 0.476815 13.6432 0.570314C13.8702 0.663814 14.0765 0.801339 14.2501 0.974957C14.4237 1.14858 14.5613 1.35485 14.6548 1.58188C14.7483 1.80892 14.7959 2.05222 14.7949 2.29775C14.7939 2.54328 14.7443 2.78618 14.6489 3.01245C14.5536 3.23871 14.4144 3.44386 14.2394 3.61606L9.96448 8.50166L14.2394 13.3842C14.4123 13.5569 14.5495 13.762 14.6431 13.9878C14.7367 14.2136 14.7849 14.4557 14.7849 14.7001C14.7849 14.9445 14.7367 15.1866 14.6431 15.4124C14.5495 15.6382 14.4123 15.8433 14.2394 16.0161Z" fill="#188380"/>
</svg>
