<svg width="23" height="34" viewBox="0 0 23 34" fill="none" xmlns="http://www.w3.org/2000/svg">
<path fill-rule="evenodd" clip-rule="evenodd" d="M9.97514 10.9312C10.2869 10.8182 10.4525 10.8649 10.5663 10.9227C10.7217 11.0034 10.9842 11.225 11.2322 11.7584L11.7503 12.8779C12.1767 13.8037 12.5623 14.6403 12.925 15.3614C13.432 16.3671 13.9578 17.281 14.6042 18.0352C15.2785 18.82 16.071 19.4171 17.0758 19.8095C18.0483 20.1892 19.138 20.3463 20.3654 20.3828C20.8129 20.3918 21.2458 20.2238 21.5701 19.9153C21.8944 19.6068 22.0839 19.1828 22.0973 18.7354C22.1107 18.288 21.9471 17.8534 21.6418 17.5261C21.3366 17.1987 20.9145 17.005 20.4673 16.9871C19.4455 16.9565 18.7839 16.8291 18.3116 16.6448C17.8725 16.4732 17.5285 16.2252 17.182 15.8218C16.8082 15.3869 16.4303 14.7686 15.9597 13.8343C15.6251 13.1684 15.2768 12.4116 14.8624 11.513C14.6908 11.1418 14.509 10.7469 14.312 10.3239C13.8448 9.31993 13.1297 8.42386 12.1266 7.9049C11.0819 7.36556 9.90974 7.33158 8.78264 7.75032L8.76311 7.75881C4.33794 9.46602 1.70068 13.1913 0.112379 18.1686C0.0398838 18.3823 0.0106963 18.6083 0.0265205 18.8334C0.0423447 19.0585 0.102864 19.2782 0.204543 19.4797C0.306222 19.6811 0.447022 19.8603 0.618722 20.0068C0.790422 20.1532 0.98958 20.264 1.20456 20.3326C1.41955 20.4012 1.64605 20.4263 1.87083 20.4064C2.09562 20.3865 2.31419 20.322 2.51378 20.2167C2.71337 20.1114 2.88997 19.9674 3.03328 19.793C3.17659 19.6187 3.28373 19.4176 3.34844 19.2014C4.75753 14.789 6.86479 12.1373 9.97514 10.932V10.9312Z" fill="#F7941D"/>
<path fill-rule="evenodd" clip-rule="evenodd" d="M8.92862 9.35354C9.37619 9.40429 9.78528 9.63072 10.0659 9.98305C10.3466 10.3354 10.4758 10.7847 10.4252 11.2323L9.66926 17.9168L16.9219 25.0735C17.0911 25.2404 17.2233 25.4409 17.3101 25.6621L19.662 31.6543C19.8266 32.0738 19.8179 32.5414 19.6378 32.9545C19.4576 33.3675 19.1208 33.692 18.7014 33.8567C18.2819 34.0214 17.8142 34.0127 17.4012 33.8325C16.9882 33.6524 16.6636 33.3155 16.499 32.8961L14.2787 27.2385L6.69565 19.7556C6.51242 19.5749 6.37263 19.355 6.28685 19.1123C6.20106 18.8697 6.17153 18.6108 6.20048 18.3551L7.04984 10.8501C7.10059 10.4025 7.32702 9.99345 7.67934 9.7128C8.03167 9.43215 8.48103 9.30292 8.92862 9.35354Z" fill="#F7941D"/>
<path fill-rule="evenodd" clip-rule="evenodd" d="M12.101 12.7038C12.1553 12.4874 12.1664 12.2624 12.1337 12.0418C12.101 11.8211 12.0252 11.609 11.9106 11.4176C11.7959 11.2262 11.6447 11.0593 11.4656 10.9264C11.2864 10.7934 11.0829 10.6971 10.8665 10.6428C10.6501 10.5886 10.4251 10.5774 10.2044 10.6101C9.98376 10.6428 9.77168 10.7186 9.5803 10.8332C9.19379 11.0648 8.91509 11.4403 8.8055 11.8774L8.40885 13.4589C9.025 13.582 9.57393 13.9285 9.95018 14.4317C10.3264 14.935 10.5035 15.5595 10.4473 16.1853L10.1925 19.0375L10.4507 19.2855L12.1002 12.7029L12.101 12.7038ZM9.01614 24.9702L6.20051 22.2693L5.80216 23.8576L4.6173 27.8581L0.683069 30.9395C0.501545 31.0749 0.348926 31.2453 0.234186 31.4405C0.119446 31.6357 0.044902 31.852 0.0149369 32.0764C-0.0150282 32.3009 0.000190897 32.5291 0.059699 32.7476C0.119207 32.9661 0.221803 33.1705 0.361454 33.3487C0.501104 33.527 0.67499 33.6756 0.872887 33.7857C1.07078 33.8958 1.28869 33.9652 1.51381 33.9898C1.73892 34.0145 1.96669 33.9939 2.18372 33.9292C2.40076 33.8646 2.60267 33.7572 2.77759 33.6133L7.13905 30.1972C7.41673 29.9796 7.61978 29.681 7.72001 29.3427L9.01614 24.9702Z" fill="#F7941D"/>
<path d="M17.2312 3.39744C17.2312 4.2985 16.8732 5.16265 16.2361 5.79979C15.5989 6.43693 14.7348 6.79488 13.8337 6.79488C12.9327 6.79488 12.0685 6.43693 11.4314 5.79979C10.7942 5.16265 10.4363 4.2985 10.4363 3.39744C10.4363 2.49638 10.7942 1.63223 11.4314 0.995087C12.0685 0.357943 12.9327 0 13.8337 0C14.7348 0 15.5989 0.357943 16.2361 0.995087C16.8732 1.63223 17.2312 2.49638 17.2312 3.39744Z" fill="#F7941D"/>
<path d="M13.8337 14.6205L11.6636 24.631L7.03882 19.9468L7.41678 12.1718L11.6636 11.8906L13.8337 14.6205Z" fill="#F7941D"/>
</svg>
