<svg width="37" height="37" viewBox="0 0 37 37" fill="none" xmlns="http://www.w3.org/2000/svg">
<g clip-path="url(#clip0_3015_38398)">
<path d="M35.2656 16.7656V12.7188C35.2648 11.9524 34.96 11.2176 34.4181 10.6757C33.8761 10.1338 33.1414 9.82897 32.375 9.82812H30.0625V9.25C30.0617 8.48362 29.7568 7.74886 29.2149 7.20695C28.673 6.66503 27.9383 6.36022 27.1719 6.35938H23.7031C22.9367 6.36022 22.202 6.66503 21.6601 7.20695C21.1182 7.74886 20.8133 8.48362 20.8125 9.25V16.7656H16.1875V9.25C16.1867 8.48362 15.8818 7.74886 15.3399 7.20695C14.798 6.66503 14.0633 6.36022 13.2969 6.35938H9.82812C9.06174 6.36022 8.32699 6.66503 7.78507 7.20695C7.24316 7.74886 6.93834 8.48362 6.9375 9.25V9.82812H4.625C3.85862 9.82897 3.12386 10.1338 2.58195 10.6757C2.04003 11.2176 1.73522 11.9524 1.73438 12.7188V16.7656C1.27439 16.7656 0.833245 16.9484 0.507987 17.2736C0.182728 17.5989 0 18.04 0 18.5C0 18.96 0.182728 19.4011 0.507987 19.7264C0.833245 20.0516 1.27439 20.2344 1.73438 20.2344V24.2812C1.73522 25.0476 2.04003 25.7824 2.58195 26.3243C3.12386 26.8662 3.85862 27.171 4.625 27.1719H6.9375V27.75C6.93834 28.5164 7.24316 29.2511 7.78507 29.7931C8.32699 30.335 9.06174 30.6398 9.82812 30.6406H13.2969C14.0633 30.6398 14.798 30.335 15.3399 29.7931C15.8818 29.2511 16.1867 28.5164 16.1875 27.75V20.2344H20.8125V27.75C20.8133 28.5164 21.1182 29.2511 21.6601 29.7931C22.202 30.335 22.9367 30.6398 23.7031 30.6406H27.1719C27.9383 30.6398 28.673 30.335 29.2149 29.7931C29.7568 29.2511 30.0617 28.5164 30.0625 27.75V27.1719H32.375C33.1414 27.171 33.8761 26.8662 34.4181 26.3243C34.96 25.7824 35.2648 25.0476 35.2656 24.2812V20.2344C35.7256 20.2344 36.1668 20.0516 36.492 19.7264C36.8173 19.4011 37 18.96 37 18.5C37 18.04 36.8173 17.5989 36.492 17.2736C36.1668 16.9484 35.7256 16.7656 35.2656 16.7656ZM5.20312 23.7031V13.2969H6.9375V23.7031H5.20312ZM12.7188 27.1719H10.4062V9.82812H12.7188V27.1719ZM26.5938 27.1719H24.2812V9.82812H26.5938V27.1719ZM31.7969 23.7031H30.0625V13.2969H31.7969V23.7031Z" fill="#228A87"/>
</g>
<defs>
<clipPath id="clip0_3015_38398">
<rect width="37" height="37" fill="white"/>
</clipPath>
</defs>
</svg>
