<svg width="46" height="51" viewBox="0 0 46 51" fill="none" xmlns="http://www.w3.org/2000/svg">
<path d="M23 12.75C23.3812 12.75 23.7469 12.9179 24.0165 13.2168C24.2861 13.5157 24.4375 13.9211 24.4375 14.3438V23.9062H33.0625C33.4437 23.9062 33.8094 24.0742 34.079 24.373C34.3486 24.6719 34.5 25.0773 34.5 25.5C34.5 25.9227 34.3486 26.3281 34.079 26.627C33.8094 26.9258 33.4437 27.0938 33.0625 27.0938H24.4375V36.6562C24.4375 37.0789 24.2861 37.4843 24.0165 37.7832C23.7469 38.0821 23.3812 38.25 23 38.25C22.6188 38.25 22.2531 38.0821 21.9835 37.7832C21.714 37.4843 21.5625 37.0789 21.5625 36.6562V27.0938H12.9375C12.5563 27.0938 12.1906 26.9258 11.921 26.627C11.6515 26.3281 11.5 25.9227 11.5 25.5C11.5 25.0773 11.6515 24.6719 11.921 24.373C12.1906 24.0742 12.5563 23.9062 12.9375 23.9062H21.5625V14.3438C21.5625 13.9211 21.714 13.5157 21.9835 13.2168C22.2531 12.9179 22.6188 12.75 23 12.75Z" fill="#F7941D"/>
</svg>
