<svg width="24" height="18" viewBox="0 0 24 18" fill="none" xmlns="http://www.w3.org/2000/svg">
<path d="M19.7966 1.363C20.1819 1.00293 20.7054 0.798707 21.2528 0.794974C21.8002 0.791241 22.327 0.988297 22.718 1.34308C23.1089 1.69786 23.3323 2.18152 23.3393 2.68835C23.3463 3.19518 23.1364 3.68397 22.7553 4.0479L11.7303 16.8096C11.5409 16.9984 11.3124 17.15 11.0583 17.2552C10.8043 17.3604 10.5299 17.4171 10.2517 17.422C9.9734 17.4269 9.69693 17.3798 9.43877 17.2835C9.18061 17.1872 8.94605 17.0438 8.74909 16.8617L1.4394 10.0961C1.05096 9.73624 0.832815 9.24826 0.832947 8.7395C0.833079 8.23073 1.05148 7.74285 1.44011 7.38319C1.82873 7.02352 2.35574 6.82153 2.90521 6.82165C3.45468 6.82177 3.98159 7.024 4.37003 7.38384L10.1511 12.738L19.7417 1.4229C19.7592 1.40231 19.778 1.38274 19.798 1.36431L19.7966 1.363Z" fill="#F7941D"/>
</svg>
