<svg width="21" height="21" viewBox="0 0 21 21" fill="none" xmlns="http://www.w3.org/2000/svg">
<path d="M12.0925 19.25H8.90746C8.7079 19.25 8.51432 19.1819 8.35884 19.0568C8.20335 18.9317 8.09529 18.7572 8.05258 18.5623L7.69646 16.9138C7.22139 16.7056 6.77091 16.4453 6.35333 16.1376L4.74596 16.6495C4.5557 16.7102 4.35042 16.7039 4.16419 16.6318C3.97796 16.5597 3.822 16.4261 3.72221 16.2531L2.12621 13.496C2.02746 13.3229 1.99039 13.1213 2.02107 12.9244C2.05175 12.7275 2.14836 12.5468 2.29508 12.4119L3.54196 11.2744C3.48526 10.7591 3.48526 10.2392 3.54196 9.72388L2.29508 8.589C2.14815 8.45405 2.05141 8.27319 2.02073 8.07606C1.99005 7.87893 2.02724 7.67722 2.12621 7.504L3.71871 4.74513C3.8185 4.57215 3.97446 4.43852 4.16069 4.36641C4.34692 4.29431 4.5522 4.28808 4.74246 4.34875L6.34983 4.86063C6.56333 4.70313 6.78558 4.55613 7.01483 4.42313C7.23621 4.29888 7.46371 4.186 7.69646 4.08538L8.05346 2.43863C8.09596 2.24367 8.20381 2.0691 8.35914 1.94386C8.51446 1.81861 8.70793 1.75021 8.90746 1.75H12.0925C12.292 1.75021 12.4855 1.81861 12.6408 1.94386C12.7961 2.0691 12.904 2.24367 12.9465 2.43863L13.307 4.08625C13.552 4.19475 13.7917 4.31638 14.0236 4.452C14.2397 4.57713 14.4488 4.7145 14.6501 4.86238L16.2583 4.3505C16.4485 4.29005 16.6536 4.2964 16.8396 4.36849C17.0256 4.44058 17.1814 4.57409 17.2812 4.74688L18.8737 7.50575C19.0767 7.86188 19.0067 8.3125 18.7048 8.58988L17.458 9.72738C17.5147 10.2427 17.5147 10.7626 17.458 11.2779L18.7048 12.4154C19.0067 12.6936 19.0767 13.1434 18.8737 13.4995L17.2812 16.2584C17.1814 16.4314 17.0255 16.565 16.8392 16.6371C16.653 16.7092 16.4477 16.7154 16.2575 16.6548L14.6501 16.1429C14.2328 16.4503 13.7826 16.7103 13.3078 16.9181L12.9465 18.5623C12.9038 18.757 12.7959 18.9314 12.6405 19.0565C12.4852 19.1816 12.2919 19.2498 12.0925 19.25ZM10.4965 7C9.5682 7 8.67796 7.36875 8.02159 8.02513C7.36521 8.6815 6.99646 9.57174 6.99646 10.5C6.99646 11.4283 7.36521 12.3185 8.02159 12.9749C8.67796 13.6313 9.5682 14 10.4965 14C11.4247 14 12.315 13.6313 12.9713 12.9749C13.6277 12.3185 13.9965 11.4283 13.9965 10.5C13.9965 9.57174 13.6277 8.6815 12.9713 8.02513C12.315 7.36875 11.4247 7 10.4965 7Z" fill="#F7941D"/>
</svg>
