<svg width="19" height="21" viewBox="0 0 19 21" fill="none" xmlns="http://www.w3.org/2000/svg">
<path d="M7.91674 1.75C6.92602 1.75059 5.94925 2.00805 5.06492 2.5017C4.18059 2.99536 3.41338 3.71142 2.82494 4.59236C2.23651 5.47329 1.84326 6.49452 1.67681 7.57396C1.51037 8.6534 1.57536 9.76094 1.86657 10.8076C2.15778 11.8542 2.66709 12.8107 3.35355 13.6003C4.04001 14.3898 4.88449 14.9903 5.8191 15.3536C6.75372 15.7169 7.7524 15.8327 8.73489 15.6918C9.71737 15.551 10.6563 15.1573 11.4761 14.5425L15.3901 18.865C15.4988 18.994 15.6299 19.0974 15.7756 19.1691C15.9212 19.2409 16.0785 19.2794 16.2379 19.2825C16.3974 19.2856 16.5557 19.2532 16.7036 19.1872C16.8515 19.1212 16.9858 19.0229 17.0986 18.8983C17.2113 18.7737 17.3002 18.6252 17.3599 18.4618C17.4197 18.2984 17.449 18.1233 17.4462 17.9471C17.4434 17.7709 17.4085 17.5971 17.3436 17.4361C17.2787 17.2751 17.1851 17.1302 17.0684 17.01L13.1576 12.684C13.8046 11.6315 14.1798 10.404 14.2429 9.13349C14.3059 7.86296 14.0545 6.59746 13.5155 5.47306C12.9766 4.34866 12.1705 3.40789 11.1841 2.7519C10.1976 2.09592 9.068 1.74954 7.91674 1.75ZM3.95841 8.75C3.95841 7.58968 4.37544 6.47688 5.11778 5.65641C5.86011 4.83594 6.86693 4.375 7.91674 4.375C8.96656 4.375 9.97337 4.83594 10.7157 5.65641C11.458 6.47688 11.8751 7.58968 11.8751 8.75C11.8751 9.91032 11.458 11.0231 10.7157 11.8436C9.97337 12.6641 8.96656 13.125 7.91674 13.125C6.86693 13.125 5.86011 12.6641 5.11778 11.8436C4.37544 11.0231 3.95841 9.91032 3.95841 8.75Z" fill="#202020"/>
</svg>
