<svg width="43" height="43" viewBox="0 0 43 43" fill="none" xmlns="http://www.w3.org/2000/svg">
<path d="M21.5 3.58301C11.9504 11.7351 7.16663 18.7763 7.16663 24.7247C7.16663 33.6472 13.975 39.4163 21.5 39.4163C29.025 39.4163 35.8333 33.6472 35.8333 24.7247C35.8333 18.7763 31.0495 11.7351 21.5 3.58301ZM21.5 35.833C15.4979 35.833 10.75 31.2284 10.75 24.7247C10.75 20.5322 14.2437 14.978 21.5 8.34884C28.7562 14.978 32.25 20.5143 32.25 24.7247C32.25 31.2284 27.502 35.833 21.5 35.833ZM14.0287 25.083C14.6916 25.083 15.2291 25.5488 15.3545 26.1938C16.0891 30.1713 19.4395 31.533 21.8762 31.3359C22.6466 31.3001 23.2916 31.9093 23.2916 32.6797C23.2916 33.3963 22.7183 33.9876 22.0016 34.0234C18.1854 34.2563 13.7241 32.0705 12.7029 26.6418C12.6717 26.4497 12.6827 26.2531 12.735 26.0657C12.7873 25.8782 12.8797 25.7044 13.0057 25.5561C13.1318 25.4079 13.2886 25.2888 13.4652 25.2071C13.6418 25.1255 13.8341 25.0831 14.0287 25.083Z" fill="#228A87"/>
</svg>
