<svg width="31" height="18" viewBox="0 0 31 18" fill="none" xmlns="http://www.w3.org/2000/svg">
<path d="M30.125 16.5938C30.125 16.2705 29.9966 15.9605 29.768 15.732C29.5395 15.5034 29.2295 15.375 28.9062 15.375H21.5938C21.2705 15.375 20.9605 15.5034 20.732 15.732C20.5034 15.9605 20.375 16.2705 20.375 16.5938C20.375 16.917 20.5034 17.227 20.732 17.4555C20.9605 17.6841 21.2705 17.8125 21.5938 17.8125H28.9062C29.2295 17.8125 29.5395 17.6841 29.768 17.4555C29.9966 17.227 30.125 16.917 30.125 16.5938ZM30.125 9.28125C30.125 8.95802 29.9966 8.64802 29.768 8.41946C29.5395 8.1909 29.2295 8.0625 28.9062 8.0625H11.8438C11.5205 8.0625 11.2105 8.1909 10.982 8.41946C10.7534 8.64802 10.625 8.95802 10.625 9.28125C10.625 9.60448 10.7534 9.91448 10.982 10.143C11.2105 10.3716 11.5205 10.5 11.8438 10.5H28.9062C29.2295 10.5 29.5395 10.3716 29.768 10.143C29.9966 9.91448 30.125 9.60448 30.125 9.28125ZM30.125 1.96875C30.125 1.64552 29.9966 1.33552 29.768 1.10696C29.5395 0.878404 29.2295 0.75 28.9062 0.75H2.09375C1.77052 0.75 1.46052 0.878404 1.23196 1.10696C1.0034 1.33552 0.875 1.64552 0.875 1.96875C0.875 2.29198 1.0034 2.60198 1.23196 2.83054C1.46052 3.0591 1.77052 3.1875 2.09375 3.1875H28.9062C29.2295 3.1875 29.5395 3.0591 29.768 2.83054C29.9966 2.60198 30.125 2.29198 30.125 1.96875Z" fill="#F7941D"/>
</svg>
