<svg width="15" height="15" viewBox="0 0 15 15" fill="none" xmlns="http://www.w3.org/2000/svg">
<path d="M7.96875 1.40625C7.96875 1.28193 7.91936 1.1627 7.83146 1.07479C7.74355 0.986886 7.62432 0.9375 7.5 0.9375C7.37568 0.9375 7.25645 0.986886 7.16854 1.07479C7.08064 1.1627 7.03125 1.28193 7.03125 1.40625V2.34375C7.03125 2.46807 7.08064 2.5873 7.16854 2.67521C7.25645 2.76311 7.37568 2.8125 7.5 2.8125C7.62432 2.8125 7.74355 2.76311 7.83146 2.67521C7.91936 2.5873 7.96875 2.46807 7.96875 2.34375V1.40625ZM3.52219 2.85937C3.43378 2.77399 3.31537 2.72674 3.19247 2.72781C3.06956 2.72888 2.95199 2.77817 2.86508 2.86508C2.77817 2.95199 2.72888 3.06956 2.72781 3.19247C2.72674 3.31537 2.77399 3.43378 2.85937 3.52219L3.52219 4.185C3.61059 4.27039 3.729 4.31763 3.85191 4.31657C3.97481 4.3155 4.09238 4.2662 4.17929 4.17929C4.2662 4.09238 4.3155 3.97481 4.31657 3.85191C4.31763 3.729 4.27039 3.61059 4.185 3.52219L3.52219 2.85937V2.85937ZM12.1406 3.52219C12.1854 3.47895 12.2211 3.42722 12.2457 3.37003C12.2702 3.31284 12.2832 3.25133 12.2837 3.18909C12.2843 3.12685 12.2724 3.06513 12.2488 3.00752C12.2253 2.94991 12.1904 2.89758 12.1464 2.85356C12.1024 2.80955 12.0501 2.77475 11.9925 2.75118C11.9349 2.72761 11.8731 2.71575 11.8109 2.71629C11.7487 2.71683 11.6872 2.72976 11.63 2.75433C11.5728 2.77889 11.5211 2.8146 11.4778 2.85937L10.815 3.52219C10.7296 3.61059 10.6824 3.729 10.6834 3.85191C10.6845 3.97481 10.7338 4.09238 10.8207 4.17929C10.9076 4.2662 11.0252 4.3155 11.1481 4.31657C11.271 4.31763 11.3894 4.27039 11.4778 4.185L12.1406 3.52219ZM1.40625 7.03125C1.28193 7.03125 1.1627 7.08064 1.07479 7.16854C0.986886 7.25645 0.9375 7.37568 0.9375 7.5C0.9375 7.62432 0.986886 7.74355 1.07479 7.83146C1.1627 7.91936 1.28193 7.96875 1.40625 7.96875H2.34375C2.46807 7.96875 2.5873 7.91936 2.67521 7.83146C2.76311 7.74355 2.8125 7.62432 2.8125 7.5C2.8125 7.37568 2.76311 7.25645 2.67521 7.16854C2.5873 7.08064 2.46807 7.03125 2.34375 7.03125H1.40625ZM12.6562 7.03125C12.5319 7.03125 12.4127 7.08064 12.3248 7.16854C12.2369 7.25645 12.1875 7.37568 12.1875 7.5C12.1875 7.62432 12.2369 7.74355 12.3248 7.83146C12.4127 7.91936 12.5319 7.96875 12.6562 7.96875H13.5938C13.7181 7.96875 13.8373 7.91936 13.9252 7.83146C14.0131 7.74355 14.0625 7.62432 14.0625 7.5C14.0625 7.37568 14.0131 7.25645 13.9252 7.16854C13.8373 7.08064 13.7181 7.03125 13.5938 7.03125H12.6562ZM4.185 11.4778C4.22977 11.4346 4.26548 11.3828 4.29005 11.3257C4.31461 11.2685 4.32755 11.207 4.32809 11.1447C4.32863 11.0825 4.31677 11.0208 4.2932 10.9631C4.26963 10.9055 4.23482 10.8532 4.19081 10.8092C4.1468 10.7652 4.09446 10.7304 4.03685 10.7068C3.97925 10.6832 3.91752 10.6714 3.85528 10.6719C3.79304 10.6725 3.73153 10.6854 3.67434 10.71C3.61715 10.7345 3.56543 10.7702 3.52219 10.815L2.85937 11.4778C2.8146 11.5211 2.77889 11.5728 2.75433 11.63C2.72976 11.6872 2.71683 11.7487 2.71629 11.8109C2.71575 11.8731 2.72761 11.9349 2.75118 11.9925C2.77475 12.0501 2.80955 12.1024 2.85356 12.1464C2.89758 12.1904 2.94991 12.2253 3.00752 12.2488C3.06513 12.2724 3.12685 12.2843 3.18909 12.2837C3.25133 12.2832 3.31284 12.2702 3.37003 12.2457C3.42722 12.2211 3.47895 12.1854 3.52219 12.1406L4.185 11.4778ZM11.4778 10.815C11.3894 10.7296 11.271 10.6824 11.1481 10.6834C11.0252 10.6845 10.9076 10.7338 10.8207 10.8207C10.7338 10.9076 10.6845 11.0252 10.6834 11.1481C10.6824 11.271 10.7296 11.3894 10.815 11.4778L11.4778 12.1406C11.5211 12.1854 11.5728 12.2211 11.63 12.2457C11.6872 12.2702 11.7487 12.2832 11.8109 12.2837C11.8731 12.2843 11.9349 12.2724 11.9925 12.2488C12.0501 12.2253 12.1024 12.1904 12.1464 12.1464C12.1904 12.1024 12.2253 12.0501 12.2488 11.9925C12.2724 11.9349 12.2843 11.8731 12.2837 11.8109C12.2832 11.7487 12.2702 11.6872 12.2457 11.63C12.2211 11.5728 12.1854 11.5211 12.1406 11.4778L11.4778 10.815ZM7.96875 12.6562C7.96875 12.5319 7.91936 12.4127 7.83146 12.3248C7.74355 12.2369 7.62432 12.1875 7.5 12.1875C7.37568 12.1875 7.25645 12.2369 7.16854 12.3248C7.08064 12.4127 7.03125 12.5319 7.03125 12.6562V13.5938C7.03125 13.7181 7.08064 13.8373 7.16854 13.9252C7.25645 14.0131 7.37568 14.0625 7.5 14.0625C7.62432 14.0625 7.74355 14.0131 7.83146 13.9252C7.91936 13.8373 7.96875 13.7181 7.96875 13.5938V12.6562ZM7.5 3.75C6.50544 3.75 5.55161 4.14509 4.84835 4.84835C4.14509 5.55161 3.75 6.50544 3.75 7.5C3.75 8.49456 4.14509 9.44839 4.84835 10.1517C5.55161 10.8549 6.50544 11.25 7.5 11.25C8.49456 11.25 9.44839 10.8549 10.1517 10.1517C10.8549 9.44839 11.25 8.49456 11.25 7.5C11.25 6.50544 10.8549 5.55161 10.1517 4.84835C9.44839 4.14509 8.49456 3.75 7.5 3.75ZM4.6875 7.5C4.6875 6.75408 4.98382 6.03871 5.51126 5.51126C6.03871 4.98382 6.75408 4.6875 7.5 4.6875C8.24592 4.6875 8.96129 4.98382 9.48874 5.51126C10.0162 6.03871 10.3125 6.75408 10.3125 7.5C10.3125 8.24592 10.0162 8.96129 9.48874 9.48874C8.96129 10.0162 8.24592 10.3125 7.5 10.3125C6.75408 10.3125 6.03871 10.0162 5.51126 9.48874C4.98382 8.96129 4.6875 8.24592 4.6875 7.5Z" fill="#F7941D"/>
</svg>
